<svg width="20" height="20" viewBox="0 0 20 20" fill="none" xmlns="http://www.w3.org/2000/svg">
<g clip-path="url(#clip0)">
<path d="M6.79616 19.9514C6.84151 19.9831 6.89536 20.0001 6.95091 20.0001C7.10113 19.9979 7.22073 19.8749 7.21847 19.7247C7.2179 19.6861 7.20883 19.6476 7.19182 19.6113C5.53039 14.0641 7.99732 11.3909 9.05222 10.5423C8.96323 14.1231 10.8905 16.8088 10.984 16.9267C11.0515 17.0185 11.1705 17.0582 11.2805 17.0259C11.8383 16.8575 12.6942 16.3026 13.2214 15.9415C13.074 17.3773 12.4703 19.6243 12.4635 19.6493C12.425 19.7938 12.51 19.9429 12.6551 19.982C12.7362 20.0035 12.8223 19.986 12.8892 19.9355C13.0071 19.8443 15.779 17.6715 16.6718 14.0182C17.5748 10.3359 15.0461 6.73986 14.9469 6.59021C14.8607 6.46834 14.6912 6.43887 14.5694 6.52446C14.49 6.58114 14.4469 6.67467 14.4554 6.77104C14.5558 8.59516 14.1295 10.4102 13.2271 11.9996C13.392 11.0332 13.4765 9.61038 13.3138 7.53685C12.8983 2.31334 8.15377 0.047083 8.10558 0.0255427C7.96954 -0.0379443 7.80856 0.0210079 7.74564 0.157052C7.7241 0.202966 7.71616 0.255116 7.72239 0.305566C7.99732 2.45109 7.49679 3.39886 6.15846 5.93154C5.61655 6.953 4.94654 8.22501 4.14275 9.92385C1.27676 15.9869 6.74005 19.9134 6.79616 19.9514ZM4.62854 10.1557C5.42723 8.46648 6.09724 7.20071 6.63348 6.18208C7.88508 3.81266 8.461 2.72374 8.30965 0.753376C9.45128 1.43359 12.451 3.58875 12.7611 7.57596C13.0394 11.1454 12.5809 12.6748 12.285 13.2688C12.2419 13.3629 12.1863 13.4502 12.12 13.529C12.0157 13.6361 12.0174 13.8079 12.1245 13.9122C12.2271 14.0125 12.3898 14.0154 12.4958 13.919C14.0257 12.2156 14.9112 10.0299 14.9973 7.74092C15.6741 8.98685 16.7342 11.4589 16.139 13.9014C15.5517 16.3049 14.0654 18.0672 13.2021 18.9277C13.4425 17.9323 13.7911 16.3315 13.7911 15.4075C13.7911 15.2579 13.6698 15.136 13.5207 15.136C13.4623 15.136 13.4062 15.1542 13.3597 15.1887C13.345 15.2001 12.0945 16.124 11.3037 16.442C10.8724 15.7794 9.35889 13.1787 9.62247 10.023C9.63551 9.87453 9.52497 9.74302 9.37589 9.73055C9.32091 9.72545 9.26592 9.73736 9.21831 9.76513C9.17806 9.79007 4.84394 12.3483 6.46909 18.9759C5.15967 17.7662 2.52269 14.6162 4.6325 10.1557H4.62854Z" fill="#C79C42" stroke="#C79C42" stroke-width="0.5"/>
</g>
<defs>
<clipPath id="clip0">
<rect width="20" height="20" fill="white"/>
</clipPath>
</defs>
</svg>
