<svg width="25" height="36" viewBox="0 0 25 36" fill="none" xmlns="http://www.w3.org/2000/svg">
<path d="M6.91242 34.9171C6.98937 34.9711 7.08075 35 7.17501 35C7.4299 34.9961 7.63286 34.787 7.62901 34.5317C7.62805 34.4661 7.61266 34.4006 7.5838 34.3389C4.76459 24.9088 8.95061 20.3643 10.7406 18.9217C10.5896 25.009 13.8599 29.5747 14.0187 29.7752C14.1331 29.9313 14.3351 29.9987 14.5217 29.9438C15.4682 29.6576 16.9206 28.7142 17.8151 28.1004C17.565 30.5413 16.5407 34.3611 16.5291 34.4035C16.4637 34.6492 16.608 34.9027 16.8542 34.9692C16.9918 35.0058 17.138 34.9759 17.2515 34.8901C17.4515 34.735 22.155 31.0414 23.67 24.8308C25.2022 18.571 20.9113 12.4577 20.743 12.2033C20.5968 11.9961 20.3092 11.946 20.1024 12.0915C19.9678 12.1879 19.8947 12.3469 19.9091 12.5107C20.0793 15.6117 19.356 18.6972 17.8247 21.3993C18.1046 19.7563 18.248 17.3375 17.9719 13.8126C17.2669 4.93265 9.21608 1.08004 9.13432 1.04342C8.90348 0.935495 8.63031 1.03571 8.52354 1.26699C8.48699 1.34504 8.47352 1.43369 8.4841 1.51946C8.95061 5.16682 8.10128 6.77801 5.83033 11.0835C4.91079 12.82 3.77387 14.9824 2.40995 17.8704C-2.45322 28.1775 6.8172 34.8526 6.91242 34.9171ZM3.23427 18.2645C4.58953 15.3929 5.72645 13.2411 6.63637 11.5095C8.76016 7.48147 9.73741 5.63033 9.48059 2.28073C11.4178 3.43709 16.5079 7.10083 17.0341 13.879C17.5064 19.9471 16.7282 22.5469 16.2261 23.5568C16.153 23.7168 16.0588 23.8652 15.9462 23.9991C15.7692 24.1813 15.7721 24.4732 15.9539 24.6506C16.128 24.8211 16.4041 24.8259 16.5839 24.6621C19.18 21.7664 20.6824 18.0506 20.8286 14.1595C21.9771 16.2775 23.7758 20.4799 22.7658 24.6322C21.7693 28.7181 19.2473 31.714 17.7824 33.1768C18.1902 31.4847 18.7818 28.7634 18.7818 27.1926C18.7818 26.9382 18.576 26.731 18.323 26.731C18.2239 26.731 18.1287 26.7619 18.0498 26.8207C18.0248 26.8399 15.9029 28.4107 14.5611 28.9513C13.8292 27.8248 11.261 23.4036 11.7083 18.0391C11.7304 17.7866 11.5428 17.563 11.2899 17.5418C11.1966 17.5331 11.1033 17.5534 11.0225 17.6006C10.9542 17.643 3.59977 21.9919 6.35743 33.2587C4.13553 31.2023 -0.339049 25.8474 3.241 18.2645H3.23427Z" fill="#C79C42" stroke="#C79C42" stroke-width="0.5"/>
</svg>
