<svg width="18" height="18" viewBox="0 0 18 18" fill="none" xmlns="http://www.w3.org/2000/svg">
<path fill-rule="evenodd" clip-rule="evenodd" d="M5.02646 7.17743C5.03215 6.99686 5.03785 6.82194 5.05492 6.64702C3.83157 5.99812 2.42614 5.77806 1.00364 5.89091C0.844325 7.87147 1.35072 9.81254 2.76753 11.2796C4.09899 12.6564 5.70358 13.0401 7.513 12.7185C5.87997 11.3135 4.97525 9.51912 5.02646 7.17743ZM8.11045 17.7461L8.11614 17.7517L8.12182 17.7574L8.13321 17.7687L8.14458 17.7799L8.15028 17.7856L8.15596 17.7912L8.16165 17.7969L8.16735 17.8025L8.17303 17.8081L8.17872 17.8138L8.18442 17.8194L8.1901 17.8251L8.19579 17.8307L8.20149 17.8364L8.20717 17.842L8.21286 17.8476L8.22425 17.8533L8.22993 17.8589L8.23563 17.8646L8.247 17.8702L8.2527 17.8759L8.26407 17.8871L8.26977 17.8928L8.28114 17.8984L8.28683 17.9041L8.29821 17.9097L8.3096 17.9154L8.32097 17.921L8.32667 17.9266L8.33804 17.9323L8.34374 17.9379L8.35511 17.9436L8.36081 17.9492H8.3665L8.37788 17.9549L8.38925 17.9605H8.39495L8.40632 17.9661H8.41201L8.42339 17.9718H8.42908L8.44615 17.9774H8.45185L8.46892 17.9831H8.4746L8.49167 17.9887L8.50875 17.9944L8.52582 18H8.5315H8.54289H8.54857H8.55996H8.56564H8.57133H8.5884H8.60547H8.61117H8.62824H8.651H8.66807H8.67375H8.69082H8.70789H8.71358H8.73065H8.75342H8.77049H8.77617C8.78755 18 8.79893 17.9944 8.816 17.9944H8.8217H8.83307H8.83877H8.85583H8.86153L8.8786 17.9887L8.89567 17.9831H8.90135L8.91274 17.9774H8.91842H8.92411H8.9355H8.94118L8.95257 17.9718H8.95825L8.97532 17.9661L8.99239 17.9605L9.00378 17.9549H9.00946L9.02085 17.9492L9.03222 17.9436H9.03792L9.04929 17.9379H9.05499L9.06636 17.9323L9.07206 17.9266L9.08343 17.921L9.08913 17.9154L9.1005 17.9097L9.1062 17.9041L9.11757 17.8984L9.12896 17.8928H9.13464L9.14603 17.8871L9.1574 17.8815L9.16878 17.8759L9.17447 17.8702L9.18585 17.8646H9.19154L9.19724 17.8589L9.20292 17.8533L9.20861 17.8476L9.21431 17.842L9.22 17.8364L9.22568 17.8307L9.23138 17.8251L9.23707 17.8194L9.24845 17.8081L9.25982 17.7969H9.26551L9.27121 17.7912L9.27689 17.7856L9.28258 17.7799C9.41345 17.6389 9.49311 17.447 9.49311 17.2382C9.49311 17.0295 9.41345 16.8376 9.28258 16.6965V16.6909L9.27689 16.6853L9.27121 16.6796L9.25982 16.6683L9.24845 16.657L9.23707 16.6458L9.23138 16.6401L9.22 16.6288H9.21431L9.20292 16.6176L9.19724 16.6119L9.18585 16.6006L9.17447 16.5893L9.1574 16.5781C9.14602 16.5724 9.13465 16.5668 9.12896 16.5555H9.12326L9.11189 16.5498L9.1005 16.5442H9.09482C9.08344 16.5386 9.07205 16.5329 9.06636 16.5273L9.04929 16.5216L9.03222 16.516L9.01515 16.5103L8.99808 16.5047L8.98101 16.4991H8.97532L8.95825 16.4934H8.95257L8.9355 16.4878L8.91842 16.4821H8.91274H8.90704L8.88997 16.4765L8.8729 16.4708L8.85583 16.4652L8.83877 16.4596H8.83307H8.816H8.81032H8.79325H8.77617C8.7591 16.4596 8.73635 16.4539 8.71928 16.4539H8.71358H8.69652H8.67945H8.67375H8.65668H8.63961H8.63392C8.62823 16.4539 8.62254 16.4539 8.61685 16.4539C8.60547 16.4539 8.58841 16.4596 8.57703 16.4596H8.55996L8.54289 16.4652H8.5372L8.52013 16.4708L8.50306 16.4765H8.49736L8.48599 16.4821H8.48029L8.46892 16.4878H8.46322L8.45185 16.4934H8.44615L8.43478 16.4991H8.42908H8.42339L8.41201 16.5047H8.40632L8.39495 16.5103L8.38357 16.516L8.37218 16.5216L8.36081 16.5273H8.35511L8.34374 16.5329H8.33804H8.33235L8.32097 16.5386H8.31528L8.3039 16.5442L8.29253 16.5498L8.28114 16.5555L8.28683 16.516L8.27546 16.5216L8.26977 16.5273L8.25839 16.5329L8.2527 16.5386H8.247L8.23563 16.5442H8.22993L8.21856 16.5498V16.5611L8.21286 16.5668L8.20717 16.5724L8.20149 16.5781L8.19579 16.5837L8.1901 16.5893L8.18442 16.595L8.17872 16.6006L8.17303 16.6063L8.16735 16.6119L8.16165 16.6176L8.15596 16.6232V16.6288L8.15028 16.6345L8.14458 16.6401V16.6458L8.13889 16.6514C8.00802 16.7925 7.92836 16.9843 7.92836 17.1931C7.89991 17.4132 7.97958 17.605 8.11045 17.7461ZM0.95242 14.716C2.6708 14.2589 3.77467 13.1022 6.47742 14.3154C6.78468 14.4564 7.06348 14.6088 7.3366 14.7273C7.37643 14.7442 7.41627 14.7611 7.4561 14.7781C7.42196 14.5523 7.46179 14.2984 7.59835 14.0276C7.64387 13.9373 7.70646 13.8583 7.77474 13.785C5.70358 14.0163 3.85433 13.4633 2.30096 11.8495C0.480164 9.96489 -0.168502 7.47649 0.036338 4.93166C1.83438 4.79059 3.60397 5.06144 5.15734 5.86269C5.32804 4.86959 5.67513 3.93291 6.15309 3.06959C5.54995 2.72539 4.88422 2.47712 4.18435 2.30784C3.83157 3.15423 3.62103 4.04012 3.60396 4.92037C3.35929 4.85831 3.11463 4.80752 2.86427 4.76238C2.85289 3.55486 3.12601 2.34169 3.60966 1.17931C4.67369 1.42759 5.66943 1.83385 6.55707 2.40376C7.14314 1.51222 7.88284 0.710972 8.72496 0C9.56708 0.710972 10.3011 1.51787 10.8928 2.4094C11.7748 1.8395 12.7819 1.43323 13.8403 1.17931C14.3239 2.33605 14.597 3.54922 14.5857 4.76238C14.3353 4.80752 14.0849 4.85831 13.846 4.92037C13.8289 4.03448 13.6241 3.15423 13.2656 2.30784C12.5657 2.47147 11.8943 2.72539 11.2912 3.06959C11.7691 3.93291 12.1105 4.86959 12.2869 5.86269C13.8403 5.06144 15.6156 4.78495 17.4136 4.93166C17.6184 7.47649 16.9698 9.97053 15.149 11.8495C13.5899 13.4577 11.7463 14.0107 9.6695 13.785C9.73778 13.8527 9.80037 13.9373 9.84589 14.0276C9.98814 14.3041 10.028 14.558 9.98814 14.7781C10.028 14.7611 10.0678 14.7442 10.1076 14.7273C10.3808 14.6088 10.6596 14.4508 10.9668 14.3154C13.6753 13.1078 14.7791 14.2589 16.4918 14.716C14.9897 17.2157 11.6496 17.2665 11.587 15.5229C11.6041 15.348 11.8545 15.2633 11.9569 15.5962C12.3381 16.8376 14.7507 16.0646 15.149 15.0263C15.149 15.0263 14.0679 14.1348 12.5998 14.3661C11.5927 14.5241 10.927 14.9925 10.0393 15.3875C9.74916 15.5172 9.46467 15.6075 9.18017 15.6639C9.02085 15.6978 8.86721 15.7091 8.71358 15.7034C8.56564 15.7091 8.40632 15.6978 8.247 15.6639C7.9625 15.6075 7.678 15.5172 7.3935 15.3875C6.50586 14.9925 5.84013 14.5241 4.833 14.3661C3.36498 14.1348 2.28389 15.0263 2.28389 15.0263C2.68219 16.0646 5.10043 16.8376 5.47597 15.5962C5.57839 15.2633 5.82875 15.3536 5.84582 15.5229C5.79461 17.2665 2.44889 17.2157 0.95242 14.716ZM8.21856 14.9868L8.22425 14.9925L8.22993 14.9981L8.23563 15.0038L8.24132 15.0094L8.247 15.015L8.2527 15.0207L8.25839 15.0263L8.26407 15.032L8.26977 15.0376L8.27546 15.0433L8.28114 15.0489H8.28683L8.29253 15.0545L8.29821 15.0602L8.3039 15.0658L8.3096 15.0715L8.31528 15.0771L8.32097 15.0828L8.32667 15.0884L8.33235 15.094L8.33804 15.0997L8.34374 15.1053L8.34942 15.111L8.35511 15.1166L8.36081 15.1223H8.3665H8.37218L8.37788 15.1279H8.38357L8.39495 15.1335L8.40064 15.1392L8.40632 15.1448L8.41201 15.1505L8.41771 15.1561L8.42339 15.1618L8.42908 15.1674L8.43478 15.173L8.44046 15.1787H8.44615H8.45185H8.45753H8.46322H8.46892H8.48029H8.48599H8.49167H8.49736H8.50306H8.50875H8.51443H8.52013H8.52582H8.5315H8.5372H8.54857H8.55427H8.56564H8.57133H8.57703H8.58271H8.5884H8.59978H8.60547H8.61117H8.62254H8.62824H8.63392H8.64531H8.651H8.66238H8.67375H8.68514H8.69652H8.70221H8.71358H8.71928H8.73065H8.73635H8.74203H8.75342H8.7591H8.76479H8.77617H8.78186H8.78756H8.79893H8.80463H8.81032H8.816H8.8217H8.83307H8.83877H8.84446H8.85014H8.86153H8.86721H8.8729H8.8786H8.88428H8.88997H8.90135H8.90704H8.91274H8.91842H8.92411H8.92981L8.9355 15.173L8.94118 15.1674L8.94688 15.1618L8.95257 15.1561L8.95825 15.1505L8.96395 15.1448L8.96964 15.1392L8.97532 15.1335H8.98101L8.99239 15.1279H8.99808L9.00946 15.1223H9.01515L9.02085 15.1166L9.03222 15.111L9.03792 15.1053L9.0436 15.0997L9.04929 15.094L9.05499 15.0884L9.06067 15.0828L9.06636 15.0771L9.07206 15.0715L9.07775 15.0658L9.08343 15.0602L9.08913 15.0545H9.09482L9.1005 15.0489H9.1062L9.11189 15.0433L9.11757 15.0376L9.12326 15.032L9.12896 15.0263L9.13464 15.0207L9.14033 15.015L9.14603 15.0094L9.15171 15.0038L9.1574 14.9981L9.1631 14.9925C9.27121 14.874 9.33949 14.716 9.33949 14.5467C9.33949 14.3718 9.27121 14.2194 9.1631 14.1009L9.1574 14.0953L9.15171 14.0897L9.14603 14.084L9.14033 14.0784L9.13464 14.0727L9.12896 14.0671L9.11757 14.0558L9.11189 14.0502H9.1062L9.1005 14.0445L9.09482 14.0389L9.08913 14.0332L9.08343 14.0276L9.07775 14.0219L9.07206 14.0163L9.06636 14.0107L9.06067 14.005L9.05499 13.9994L9.04929 13.9937L9.0436 13.9881L9.03792 13.9824L9.03222 13.9768L9.02653 13.9712H9.02085L9.01515 13.9655H9.00946H9.00378L8.99808 13.9599H8.99239H8.98671L8.98101 13.9542H8.97532L8.96964 13.9486L8.95257 13.9429L8.94688 13.9373H8.94118L8.9355 13.9317H8.92981L8.92411 13.926H8.91842H8.91274H8.90704H8.90135H8.89567H8.88997H8.88428H8.8786L8.8729 13.9204H8.86721H8.86153H8.85014H8.84446H8.83307L8.816 13.9147H8.81032H8.80463H8.79325H8.78756H8.78186H8.77049H8.76479H8.7591H8.74772H8.74203H8.73635H8.72496H8.71928H8.71358H8.70221H8.69652H8.68514H8.67945H8.66807H8.65668H8.64531H8.63392H8.62824H8.62254H8.61685H8.61117H8.59978H8.5941H8.5884H8.57703H8.57133H8.56564H8.55996H8.55427H8.54289H8.5372H8.52582L8.50875 13.9204H8.50306H8.49736H8.49167H8.48599L8.4746 13.926H8.46892H8.46322H8.45753H8.45185H8.44615H8.44046H8.43478H8.42908L8.42339 13.9317H8.41771L8.41201 13.9373H8.40632L8.40064 13.9429L8.39495 13.9486L8.38925 13.9542L8.38357 13.9599H8.37788L8.37218 13.9655H8.3665H8.36081L8.35511 13.9712H8.34942H8.34374L8.33804 13.9768H8.33235L8.32667 13.9824L8.32097 13.9881L8.31528 13.9937L8.3096 13.9994L8.3039 14.005L8.29821 14.0107L8.29253 14.0163L8.28683 14.0219L8.28114 14.0276L8.27546 14.0332L8.26977 14.0389L8.26407 14.0445L8.25839 14.0502L8.2527 14.0558H8.247L8.24132 14.0614H8.23563L8.22993 14.0671L8.22425 14.0727L8.21856 14.0784L8.21286 14.084L8.20717 14.0897L8.20149 14.0953L8.19579 14.1009L8.1901 14.1066C8.08199 14.2251 8.01371 14.3831 8.01371 14.5524C8.04785 14.7103 8.11045 14.8683 8.21856 14.9868ZM12.3722 6.64702C12.3836 6.82194 12.395 6.99686 12.4007 7.17179C12.4519 9.51348 11.5472 11.3135 9.91986 12.7129C11.7293 13.0401 13.3396 12.6564 14.671 11.2796C16.0878 9.81254 16.5942 7.87147 16.4349 5.89091C15.001 5.77241 13.6013 5.99812 12.3722 6.64702ZM5.90272 6.29718C6.28964 6.5511 6.6595 6.84451 7.00659 7.17743C7.8487 7.97868 8.40632 8.85329 8.71358 9.80125C9.02084 8.85329 9.57846 7.97868 10.4206 7.17743C10.7677 6.85015 11.1375 6.55674 11.5187 6.30282C11.2513 4.39561 10.1987 2.76489 8.71358 1.50658C7.22849 2.75925 6.17015 4.38997 5.90272 6.29718ZM11.587 7.14357C11.3822 7.29592 11.1887 7.45956 11.001 7.64012C9.81175 8.76865 9.35655 10.089 9.45328 11.573C10.8303 10.4671 11.6098 9.03385 11.587 7.14357ZM5.84014 7.13793C6.04498 7.29028 6.24412 7.45392 6.43189 7.63448C7.6211 8.76301 8.0763 10.089 7.97957 11.573C6.5969 10.4727 5.81169 9.03385 5.84014 7.13793Z" fill="#C79C42"/>
</svg>
