<svg width="18" height="18" viewBox="0 0 18 18" fill="none" xmlns="http://www.w3.org/2000/svg">
<path d="M15.8762 17.8824C7.12201 17.8824 0 10.7603 0 2.0062C0.000604542 1.47431 0.212166 0.964376 0.588271 0.588271C0.964375 0.212166 1.47431 0.000604854 2.0062 0H5.04027C5.57216 0.000604387 6.08209 0.212166 6.4582 0.588271C6.8343 0.964376 7.04586 1.47431 7.04647 2.0062C7.0452 2.93614 7.1927 3.86029 7.4834 4.74362L7.48678 4.75425C7.59536 5.09762 7.61017 5.46376 7.5297 5.81478C7.44922 6.16579 7.27638 6.48892 7.02906 6.75069L5.95605 8.17641C6.90671 9.83795 8.03257 10.9631 9.70611 11.9245L11.1741 10.8158C11.6764 10.3393 12.4602 10.1764 13.1462 10.4107C14.0272 10.7 14.9489 10.8465 15.8762 10.8446C16.4081 10.8452 16.918 11.0567 17.2941 11.4328C17.6702 11.8089 17.8818 12.3189 17.8823 12.8508V15.8761C17.8818 16.408 17.6702 16.918 17.2941 17.2941C16.918 17.6702 16.4081 17.8817 15.8762 17.8824ZM2.00621 1.41176C1.84861 1.41194 1.69751 1.47463 1.58607 1.58607C1.47463 1.69751 1.41194 1.8486 1.41177 2.0062C1.41177 9.9819 7.90051 16.4706 15.8762 16.4706C16.0338 16.4704 16.1849 16.4077 16.2963 16.2963C16.4077 16.1848 16.4704 16.0337 16.4706 15.8762V12.8508C16.4704 12.6932 16.4077 12.5421 16.2963 12.4306C16.1849 12.3192 16.0338 12.2565 15.8762 12.2563C14.797 12.2583 13.7245 12.0873 12.6994 11.7499L12.6911 11.7471C12.4786 11.6739 12.2435 11.7403 12.1388 11.8468L12.1024 11.8839L9.83117 13.5991L9.43336 13.3868C7.16602 12.1772 5.68876 10.7 4.49391 8.44761L4.28355 8.05101L5.95697 5.82743L5.99167 5.79262C6.0706 5.71411 6.12628 5.6153 6.15257 5.50712C6.17885 5.39895 6.17472 5.28561 6.14063 5.17963C5.8042 4.15548 5.63341 3.08419 5.63471 2.0062C5.63453 1.8486 5.57185 1.6975 5.46041 1.58606C5.34897 1.47462 5.19787 1.41194 5.04027 1.41176L2.00621 1.41176Z" fill="#122223"/>
</svg>
