<svg width="116" height="116" viewBox="0 0 116 116" fill="none" xmlns="http://www.w3.org/2000/svg">
<path d="M54.9813 41.5014C55.489 41.4212 60.5097 41.4212 61.0162 41.5008C64.2694 42.0927 66.4472 44.5034 67.4881 48.665C68.2582 51.7436 68.501 54.8548 68.7005 58.0367L69.8856 57.9625C69.6903 54.8524 69.4332 51.55 68.6394 48.377C67.4916 43.7873 64.929 41.005 61.2282 40.3323C60.6552 40.2278 55.3441 40.2278 54.7711 40.3323C52.9929 40.6553 51.4687 41.4669 50.2402 42.7441L51.0958 43.5676C52.1485 42.4745 53.4566 41.7792 54.9813 41.5014Z" fill="#3F5651"/>
<path d="M74.0312 69.875C73.0492 69.875 72.25 70.6742 72.25 71.6563V72.25H73.4375V71.6563C73.4375 71.3285 73.7035 71.0625 74.0312 71.0625C74.359 71.0625 74.625 71.3285 74.625 71.6563V71.9882C74.625 72.4109 74.4843 72.8289 74.2302 73.1626C74.2005 73.2006 74.1702 73.2369 74.1352 73.2689C73.697 73.6697 72.8687 74.2854 72.2358 73.903C71.6206 73.5314 71.3986 71.9009 71.2656 70.926C71.2311 70.6766 71.2002 70.448 71.167 70.2562L69.9967 70.4569C70.0276 70.638 70.0567 70.8524 70.0888 71.0869C70.2093 71.9739 70.366 73.0724 70.7751 73.9096L66.9336 73.6834C64.9208 73.5646 63.3438 71.8914 63.3438 69.875V63.9221C65.0021 61.955 65.7734 59.0985 66.4431 56.5899C66.6877 55.6761 66.9181 54.8122 67.177 54.0302C67.2376 53.8485 67.2061 53.649 67.0933 53.4947C66.6106 52.8303 62.3332 47.0649 59.3745 47.0649C59.3419 47.0649 59.3092 47.0655 59.2766 47.0667C58.757 47.0899 58.0249 47.3036 57.4906 48.1943C55.8417 50.9421 48.9703 53.3183 48.9014 53.3421C48.6015 53.4448 48.4353 53.7636 48.5226 54.0682C48.6769 54.6044 48.8266 55.1732 48.9809 55.7604C49.7077 58.5172 50.6025 61.9033 52.6551 64.0848V69.875C52.6551 71.8914 51.0781 73.5646 49.0647 73.6828L45.2231 73.909C45.6322 73.0718 45.7889 71.9734 45.9095 71.0863C45.9421 70.8518 45.9712 70.6374 46.0015 70.4569C46.4171 68.0421 46.7354 65.5929 46.9479 63.1781C47.0673 61.8208 47.1516 60.4386 47.2323 59.1014C47.3837 56.6148 47.5399 54.0427 47.9294 51.5608L46.7556 51.3762C46.3577 53.9138 46.1992 56.5145 46.0472 59.029C45.9659 60.3584 45.8827 61.7329 45.7646 63.0742C45.555 65.4569 45.2415 67.8729 44.8312 70.2562C44.798 70.448 44.7671 70.6766 44.7327 70.926C44.5997 71.9009 44.3776 73.5314 43.7625 73.903C43.4044 74.1198 42.9407 74.0426 42.3832 73.6774C42.0727 73.4732 41.8191 73.1591 41.6499 72.7672L41.5602 72.56C41.4373 72.2726 41.375 71.9686 41.375 71.6563C41.375 71.3285 41.641 71.0625 41.9688 71.0625C42.2965 71.0625 42.5625 71.3285 42.5625 71.6563V72.25H43.75V71.6563C43.75 70.6742 42.9508 69.875 41.9688 69.875C40.9867 69.875 40.1875 70.6742 40.1875 71.6563C40.1875 72.1325 40.2831 72.5944 40.4719 73.0308L40.5616 73.238C40.8228 73.8437 41.2289 74.3389 41.7348 74.6696C42.2888 75.0329 42.7727 75.1772 43.1907 75.2028L43.1913 75.217L43.2946 75.2111C43.3047 75.2111 43.3166 75.2134 43.3267 75.2134C43.4175 75.2134 43.5024 75.2045 43.5855 75.1938L49.1359 74.8673C51.7757 74.7129 53.8438 72.5196 53.8438 69.875V65.1066C54.9416 65.8589 56.2977 66.3161 58 66.3161C59.7427 66.3161 61.0875 65.8292 62.1562 65.0413V69.875C62.1562 72.5196 64.2243 74.7129 66.8647 74.8679L72.3771 75.1921C72.475 75.2063 72.5742 75.2152 72.6745 75.2152C72.69 75.2152 72.7054 75.2128 72.7208 75.2123L72.8093 75.2176L72.8099 75.2069C73.4844 75.1648 74.21 74.8091 74.9367 74.1453C75.0234 74.0657 75.0994 73.9802 75.173 73.8846C75.5851 73.3425 75.8125 72.6686 75.8125 71.9882V71.6563C75.8125 70.6742 75.0133 69.875 74.0312 69.875ZM58 65.1292C52.6806 65.1292 51.3257 59.9909 50.1298 55.457C50.0236 55.0533 49.9197 54.6578 49.8146 54.276C51.54 53.6348 56.9117 51.4682 58.5094 48.8058C58.7915 48.3356 59.0955 48.2637 59.3294 48.253C61.0447 48.1889 64.2088 51.6107 65.9551 53.9513C65.7235 54.6822 65.5157 55.4629 65.2966 56.2841C64.1346 60.6327 62.9335 65.1292 58 65.1292Z" fill="#3F5651"/>
<path d="M41.0575 46.6468C41.6358 47.2257 42.3964 47.5149 43.1564 47.5149C43.3013 47.5149 43.4456 47.4947 43.5892 47.4733C43.458 48.3705 43.727 49.3163 44.4157 50.0051L45.1116 50.7009C45.2274 50.8167 45.3794 50.8749 45.5314 50.8749C45.6834 50.8749 45.8354 50.8167 45.9512 50.7009L46.6471 50.0051C47.3358 49.3163 47.6054 48.3705 47.4736 47.4733C47.6172 47.4941 47.7615 47.5149 47.9064 47.5149C48.6664 47.5149 49.427 47.2257 50.0053 46.6468L50.7012 45.9509C50.9333 45.7188 50.9333 45.3435 50.7012 45.1114L50.0053 44.4155C49.3166 43.7267 48.3707 43.4572 47.4736 43.589C47.6048 42.6918 47.3358 41.746 46.6471 41.0572L45.9512 40.3614C45.719 40.1292 45.3438 40.1292 45.1116 40.3614L44.4157 41.0572C43.727 41.746 43.4574 42.6918 43.5892 43.589C42.6921 43.4578 41.7462 43.7267 41.0575 44.4155L40.3616 45.1114C40.1295 45.3435 40.1295 45.7188 40.3616 45.9509L41.0575 46.6468ZM46.6471 45.2551C47.3198 44.5823 48.493 44.5823 49.1657 45.2551L49.4418 45.5312L49.1657 45.8072C48.493 46.48 47.3198 46.48 46.6471 45.8072L46.371 45.5312L46.6471 45.2551ZM45.2553 41.8968L45.5314 41.6207L45.8075 41.8968C46.1436 42.2329 46.3288 42.68 46.3288 43.1562C46.3288 43.6323 46.1436 44.0794 45.8075 44.4155L45.5314 44.6916L45.2553 44.4155C44.9192 44.0794 44.734 43.6323 44.734 43.1562C44.734 42.68 44.9192 42.2329 45.2553 41.8968ZM45.2553 46.6468L45.5314 46.3707L45.8075 46.6468C46.1436 46.9829 46.3288 47.43 46.3288 47.9062C46.3288 48.3823 46.1436 48.8294 45.8075 49.1655L45.5314 49.4416L45.2553 49.1655C44.9192 48.8294 44.734 48.3823 44.734 47.9062C44.734 47.43 44.9192 46.9829 45.2553 46.6468ZM41.8971 45.2551C42.5698 44.5823 43.743 44.5823 44.4157 45.2551L44.6918 45.5312L44.4157 45.8072C43.743 46.48 42.5698 46.48 41.8971 45.8072L41.621 45.5312L41.8971 45.2551Z" fill="#3F5651"/>
<path d="M76.2324 62.9239L75.5365 62.228C74.8478 61.5392 73.902 61.2697 73.0048 61.4015C73.136 60.5043 72.8671 59.5585 72.1783 58.8697L71.4824 58.1739C71.2503 57.9417 70.875 57.9417 70.6429 58.1739L69.947 58.8697C69.2582 59.5585 68.9887 60.5043 69.1205 61.4015C68.2233 61.2703 67.2775 61.5392 66.5887 62.228L65.8929 62.9239C65.6607 63.156 65.6607 63.5313 65.8929 63.7634L66.5887 64.4593C67.1676 65.0382 67.9276 65.3274 68.6876 65.3274C68.8325 65.3274 68.9768 65.3072 69.1205 65.2858C68.9893 66.183 69.2582 67.1288 69.947 67.8176L70.6429 68.5134C70.7586 68.6292 70.9106 68.6874 71.0626 68.6874C71.2146 68.6874 71.3666 68.6292 71.4824 68.5134L72.1783 67.8176C72.8671 67.1288 73.1366 66.183 73.0048 65.2858C73.1485 65.3066 73.2928 65.3274 73.4376 65.3274C74.1976 65.3274 74.9582 65.0382 75.5365 64.4593L76.2324 63.7634C76.4646 63.5313 76.4646 63.156 76.2324 62.9239ZM69.947 63.6197C69.2743 64.2925 68.101 64.2925 67.4283 63.6197L67.1522 63.3437L67.4283 63.0676C68.101 62.3948 69.2743 62.3948 69.947 63.0676L70.2231 63.3437L69.947 63.6197ZM71.3387 66.978L71.0626 67.2541L70.7866 66.978C70.4505 66.6419 70.2652 66.1948 70.2652 65.7186C70.2652 65.2425 70.4505 64.7954 70.7866 64.4593L71.0626 64.1832L71.3387 64.4593C71.6748 64.7954 71.8601 65.2425 71.8601 65.7186C71.8601 66.1948 71.6748 66.6419 71.3387 66.978ZM71.3387 62.228L71.0626 62.5041L70.7866 62.228C70.4505 61.8919 70.2652 61.4448 70.2652 60.9687C70.2652 60.4925 70.4505 60.0454 70.7866 59.7093L71.0626 59.4332L71.3387 59.7093C71.6748 60.0454 71.8601 60.4925 71.8601 60.9687C71.8601 61.4448 71.6748 61.8919 71.3387 62.228ZM74.697 63.6197C74.0243 64.2925 72.851 64.2925 72.1783 63.6197L71.9022 63.3437L72.1783 63.0676C72.851 62.3948 74.0243 62.3948 74.697 63.0676L74.9731 63.3437L74.697 63.6197Z" fill="#3F5651"/>
<path d="M69.875 40.1875H71.0625V41.375H69.875V40.1875Z" fill="#3F5651"/>
<path d="M71.0625 41.375H72.25V42.5625H71.0625V41.375Z" fill="#3F5651"/>
<path d="M68.6875 41.375H69.875V42.5625H68.6875V41.375Z" fill="#3F5651"/>
<path d="M69.875 42.5625H71.0625V43.75H69.875V42.5625Z" fill="#3F5651"/>
<path d="M41.375 53.8438H42.5625V55.0312H41.375V53.8438Z" fill="#3F5651"/>
<path d="M42.5625 55.0312H43.75V56.2188H42.5625V55.0312Z" fill="#3F5651"/>
<path d="M40.1875 55.0312H41.375V56.2188H40.1875V55.0312Z" fill="#3F5651"/>
<path d="M41.375 56.2188H42.5625V57.4062H41.375V56.2188Z" fill="#3F5651"/>
<path d="M73.4375 46.125H74.625V47.3125H73.4375V46.125Z" fill="#3F5651"/>
<path d="M74.625 47.3125H75.8125V48.5H74.625V47.3125Z" fill="#3F5651"/>
<path d="M72.25 47.3125H73.4375V48.5H72.25V47.3125Z" fill="#3F5651"/>
<path d="M73.4375 48.5H74.625V49.6875H73.4375V48.5Z" fill="#3F5651"/>
<circle cx="61" cy="55" r="54.5" stroke="#C79C42"/>
<circle cx="55" cy="61" r="54.5" stroke="#C79C42"/>
</svg>
