<svg width="116" height="116" viewBox="0 0 116 116" fill="none" xmlns="http://www.w3.org/2000/svg">
<path d="M40.1875 63.3437V73.4375C40.1875 74.7473 41.2527 75.8125 42.5625 75.8125H62.75C63.2072 75.8125 63.6305 75.6765 63.9933 75.4521C64.0082 75.4871 64.0194 75.5233 64.042 75.5554C64.1548 75.7192 64.3395 75.8125 64.5312 75.8125C64.593 75.8125 64.6559 75.803 64.7171 75.7828C64.9035 75.721 69.308 74.2503 71.4823 72.076C74.5258 69.0324 75.7365 62.6253 75.8012 62.269C75.8345 62.0992 75.7923 61.9187 75.6765 61.778C75.4948 61.5583 75.1843 61.4989 74.9361 61.6337C74.9361 61.6337 69.6838 64.4712 69.6037 64.5146C69.4956 64.5728 69.4006 64.6482 69.2967 64.7111C70.4123 60.9776 70.9996 57.1224 71.0506 53.2149C73.5604 52.9371 75.5952 50.8922 75.7965 48.3272C75.8167 48.0641 75.8 47.7815 75.743 47.4377L74.6167 40.6832C74.5722 40.4149 74.3513 40.2118 74.0799 40.1892C73.8217 40.1696 73.558 40.3306 73.4696 40.5882L72.4139 43.668C72.2613 43.1699 72.0826 42.68 71.8498 42.2145L71.0002 40.5158C70.7983 40.1132 70.1398 40.1132 69.9379 40.5158L69.0883 42.2145C68.8567 42.6776 68.6786 43.1645 68.5266 43.6603L67.4679 40.5882C67.3795 40.3306 67.1164 40.1643 66.8576 40.1898C66.5868 40.2124 66.3659 40.4161 66.3214 40.6838L65.1957 47.4395C65.1387 47.7821 65.122 48.0641 65.1422 48.3284C65.3423 50.8845 67.3652 52.924 69.8643 53.2114C69.8049 57.614 69.0467 61.949 67.5998 66.1094C66.5981 67.1805 65.8143 68.4814 65.1262 69.7877V63.3437C65.1262 62.8366 64.9635 62.3694 64.6922 61.9828C65.296 61.6978 65.7188 61.0869 65.7188 60.375C65.7188 59.3929 64.9196 58.5937 63.9375 58.5937H53.25V57.3522C54.1436 57.1978 54.6388 56.7121 54.9006 56.2888C56.4628 53.7612 53.5273 47.7269 53.1871 47.0471C52.9852 46.6445 52.3267 46.6445 52.1248 47.0471C51.7852 47.7269 48.8491 53.7612 50.4113 56.2888C50.6731 56.7121 51.1683 57.1978 52.0619 57.3522V58.5937H41.375C40.3929 58.5937 39.5938 59.3929 39.5938 60.375C39.5938 61.0869 40.0165 61.6978 40.6215 61.9828C40.3502 62.3688 40.1875 62.8366 40.1875 63.3437ZM72.8259 46.1273L73.8317 43.1942L74.5716 47.6325C74.6119 47.8789 74.625 48.0707 74.6119 48.2357C74.5104 49.5277 73.808 50.6481 72.7968 51.3375C72.8265 51.1879 72.8438 51.0335 72.8438 50.875V46.4272C72.8438 46.3274 72.8295 46.2277 72.8259 46.1273ZM66.325 48.2363C66.3125 48.0707 66.325 47.8783 66.3653 47.6337L67.1069 43.1865L68.1122 46.1036C68.1092 46.2116 68.0938 46.3191 68.0938 46.4272V50.875C68.0938 51.0335 68.111 51.1879 68.1407 51.3375C67.1289 50.6481 66.4265 49.5277 66.325 48.2363ZM69.2812 50.875V46.4272C69.2812 45.1554 69.5817 43.8824 70.1505 42.7453L70.4688 42.1088L70.787 42.7459C71.3558 43.8824 71.6562 45.156 71.6562 46.4272V50.875C71.6562 51.5299 71.1237 52.0625 70.4688 52.0625C69.8138 52.0625 69.2812 51.5299 69.2812 50.875ZM70.6427 71.2364C69.5704 72.3087 67.8177 73.2201 66.433 73.8323L74.014 64.5668C73.4001 66.6646 72.3094 69.5704 70.6427 71.2364ZM65.125 73.4375V72.3919C65.2509 72.1461 65.3767 71.8979 65.5056 71.6437C66.3659 69.9373 67.313 68.064 68.6418 66.7263L68.6448 66.7275C68.6453 66.7251 68.6465 66.7227 68.6471 66.7204C69.1049 66.2602 69.6072 65.8624 70.1689 65.559L70.1653 65.5525C70.3797 65.4426 70.9865 65.1172 72.855 64.1079L65.1113 73.5716C65.1137 73.5265 65.125 73.4832 65.125 73.4375ZM63.9375 73.4375C63.9375 74.0924 63.4049 74.625 62.75 74.625H42.5625C41.9076 74.625 41.375 74.0924 41.375 73.4375V63.3437C41.375 62.6888 41.9076 62.1562 42.5625 62.1562H50.5098H61.6314C62.5303 62.1562 63.9375 62.0565 63.9375 63.3437V73.4375ZM51.4224 55.6647C50.6411 54.4012 51.6249 51.116 52.6562 48.725C53.6876 51.1166 54.672 54.4018 53.8901 55.6647C53.7879 55.8298 53.6128 56.0311 53.25 56.1397V54.4375H52.0625V56.1397C51.6991 56.0311 51.5246 55.8298 51.4224 55.6647ZM41.375 59.7812H63.9375C64.2652 59.7812 64.5312 60.0478 64.5312 60.375C64.5312 60.7021 64.2653 60.9687 63.9108 60.9693L41.375 60.9687C41.0473 60.9687 40.7812 60.7021 40.7812 60.375C40.7812 60.0478 41.0473 59.7812 41.375 59.7812Z" fill="#3F5651"/>
<path d="M40.1875 49.0408H41.375V50.2283H40.1875V49.0408Z" fill="#3F5651"/>
<path d="M41.375 47.8533H42.5625V49.0408H41.375V47.8533Z" fill="#3F5651"/>
<path d="M42.5625 49.0408H43.75V50.2283H42.5625V49.0408Z" fill="#3F5651"/>
<path d="M41.375 50.2283H42.5625V51.4158H41.375V50.2283Z" fill="#3F5651"/>
<path d="M43.1562 41.322H44.3438V42.5095H43.1562V41.322Z" fill="#3F5651"/>
<path d="M44.3438 40.1345H45.5312V41.322H44.3438V40.1345Z" fill="#3F5651"/>
<path d="M45.5312 41.322H46.7188V42.5095H45.5312V41.322Z" fill="#3F5651"/>
<path d="M44.3438 42.5095H45.5312V43.697H44.3438V42.5095Z" fill="#3F5651"/>
<path d="M59.7812 49.6345H60.9688V50.822H59.7812V49.6345Z" fill="#3F5651"/>
<path d="M60.9688 48.447H62.1562V49.6345H60.9688V48.447Z" fill="#3F5651"/>
<path d="M62.1562 49.6345H63.3438V50.822H62.1562V49.6345Z" fill="#3F5651"/>
<path d="M60.9688 50.822H62.1562V52.0095H60.9688V50.822Z" fill="#3F5651"/>
<path d="M57.4062 65.125H58.5938V66.3125H57.4062V65.125Z" fill="#3F5651"/>
<path d="M60.375 65.125H59.7812V66.3125H60.375C61.0299 66.3125 61.5625 66.8451 61.5625 67.5V69.2812C61.5625 69.9362 61.0299 70.4688 60.375 70.4688H44.9375C44.2826 70.4688 43.75 69.9362 43.75 69.2812V67.5C43.75 66.8451 44.2826 66.3125 44.9375 66.3125H56.2188V65.125H44.9375C43.6277 65.125 42.5625 66.1902 42.5625 67.5V69.2812C42.5625 70.5911 43.6277 71.6562 44.9375 71.6562H60.375C61.6848 71.6562 62.75 70.5911 62.75 69.2812V67.5C62.75 66.1902 61.6848 65.125 60.375 65.125Z" fill="#3F5651"/>
<path d="M45.5312 47.3125H46.7188V48.5H45.5312V47.3125Z" fill="#3F5651"/>
<path d="M58 43.1562H59.1875V44.3438H58V43.1562Z" fill="#3F5651"/>
<circle cx="61" cy="55" r="54.5" stroke="#C79C42"/>
<circle cx="55" cy="61" r="54.5" stroke="#C79C42"/>
</svg>
