<svg width="116" height="116" viewBox="0 0 116 116" fill="none" xmlns="http://www.w3.org/2000/svg">
<path d="M65.7188 71.0625H69.875V72.25H65.7188V71.0625Z" fill="#283E39"/>
<path d="M60.375 55.4766C60.948 55.4766 61.4141 55.0105 61.4141 54.4375C61.4141 53.8645 60.948 53.3984 60.375 53.3984C59.802 53.3984 59.3359 53.8645 59.3359 54.4375C59.3359 55.0105 59.802 55.4766 60.375 55.4766ZM60.375 54.2891C60.4569 54.2891 60.5234 54.3556 60.5234 54.4375C60.5234 54.6008 60.2266 54.6008 60.2266 54.4375C60.2266 54.3556 60.2931 54.2891 60.375 54.2891Z" fill="#283E39"/>
<path d="M66.3125 55.4766C66.8855 55.4766 67.3516 55.0105 67.3516 54.4375C67.3516 53.8645 66.8855 53.3984 66.3125 53.3984C65.7395 53.3984 65.2734 53.8645 65.2734 54.4375C65.2734 55.0105 65.7395 55.4766 66.3125 55.4766ZM66.3125 54.2891C66.3944 54.2891 66.4609 54.3556 66.4609 54.4375C66.4609 54.6008 66.1641 54.6008 66.1641 54.4375C66.1641 54.3556 66.2306 54.2891 66.3125 54.2891Z" fill="#283E39"/>
<path d="M63.3438 59.6328C64.5716 59.6328 65.5703 58.6335 65.5703 57.4062H64.6797C64.6797 58.1425 64.0806 58.7422 63.3438 58.7422C62.6069 58.7422 62.0078 58.1425 62.0078 57.4062H61.1172C61.1172 58.6335 62.1159 59.6328 63.3438 59.6328Z" fill="#283E39"/>
<path d="M75.8125 59.7814C75.8125 58.4716 74.7473 57.4064 73.4375 57.4064V50.5497C73.4375 44.9994 69.2177 40.453 63.8318 40.1989C63.659 40.1912 63.0285 40.1912 62.8563 40.1989C57.4698 40.453 53.25 44.9994 53.25 50.5497V57.4064C51.9402 57.4064 50.875 58.4716 50.875 59.7814C50.875 60.764 51.4753 61.6095 52.3285 61.9705C51.4391 62.7335 50.875 63.8646 50.875 65.1251C50.875 65.821 51.0496 66.5062 51.3809 67.1136C51.4313 67.3529 51.5822 67.9401 51.936 68.6294L51.366 71.3108L49.1223 66.8232L49.542 64.7243C49.6732 64.0682 49.3473 63.4009 48.7488 63.1016C48.1746 62.8142 47.4853 62.9277 47.0311 63.3807L46.5763 63.8355L42.5851 62.2395C42.0465 62.0234 41.4367 62.0893 40.9558 62.4152C40.4749 62.7412 40.1875 63.2809 40.1875 63.8616C40.1875 64.4874 40.5248 65.0687 41.068 65.3792L44.4328 67.3018L46.7413 75.3816C46.8143 75.6369 47.0477 75.8126 47.3125 75.8126H52.6562H75.2188C75.3975 75.8126 75.5661 75.7325 75.6789 75.5941C75.7917 75.4558 75.8363 75.2741 75.8006 75.0995L74.5086 68.8325C74.837 68.3118 75.0976 67.762 75.2757 67.192L75.3108 67.078C75.3583 66.9212 75.4153 66.7668 75.4729 66.6119C75.632 66.1802 75.8125 65.6916 75.8125 65.1251C75.8125 63.8646 75.2484 62.7335 74.359 61.9705C75.2122 61.6095 75.8125 60.764 75.8125 59.7814ZM47.7602 74.6251L45.5081 66.7437C45.4653 66.5947 45.3662 66.4682 45.232 66.391L41.657 64.3485C41.4831 64.2482 41.375 64.0623 41.375 63.8616C41.375 63.6728 41.4647 63.503 41.6214 63.3973C41.7782 63.2916 41.9688 63.2702 42.1439 63.3409L46.4979 65.083C46.7182 65.1702 46.9705 65.1198 47.1385 64.9512L47.87 64.2197C47.9615 64.1288 48.1016 64.1051 48.2174 64.1632C48.3385 64.2238 48.4038 64.3586 48.3777 64.491L47.9181 66.79C47.892 66.9194 47.9104 67.0536 47.9692 67.1724L51.6956 74.6251H47.7602ZM52.2181 73.0143L53.4489 67.2222C53.4531 67.2021 53.4566 67.1819 53.459 67.1605C53.4839 66.9218 53.649 66.7229 53.8426 66.6629L57.5778 65.7925L58.4821 68.8557C58.5581 69.1139 58.7944 69.2814 59.0515 69.2814C59.1038 69.2814 59.1572 69.2742 59.2101 69.26L62.75 68.2803V74.6251H56.2188V72.2501H55.0312V74.6251H53.0232L52.2181 73.0143ZM59.8145 65.2718C59.8466 65.3941 59.9036 65.5081 60.0039 65.5894L62.0648 67.2383L59.4553 67.9603L58.7363 65.5229L59.8145 65.2718ZM57.4062 52.0626H61.6195C63.2571 52.0626 64.6779 50.9529 65.071 49.3824L65.7158 47.1179L66.4746 49.8135C66.7994 51.1138 67.9483 52.0234 69.2818 52.0567V55.0314C69.2818 58.3053 66.6183 60.9689 63.3443 60.9689C60.0704 60.9689 57.4068 58.3053 57.4068 55.0314V52.0626H57.4062ZM66.6836 65.5888C66.7827 65.5093 66.8386 65.3977 66.8718 65.2777L67.9043 65.5283L67.0007 67.9603L64.6037 67.2519L66.6836 65.5888ZM63.3438 62.1564C64.1774 62.1564 64.9748 62.005 65.7188 61.7407V64.8401L63.3438 66.7401L60.9688 64.8401V61.7407C61.7127 62.005 62.5101 62.1564 63.3438 62.1564ZM71.6562 74.6251V72.2501H70.4688V74.6251H63.9375V68.2946L67.196 69.257C67.4947 69.3467 67.8117 69.1876 67.921 68.8948L69.0663 65.8115L72.5368 66.6546C72.7672 66.7235 72.9322 66.9224 72.9661 67.2187L74.4902 74.6251H71.6562ZM73.4375 60.9689H71.6562C71.3285 60.9689 71.0625 61.2343 71.0625 61.5626C71.0625 61.891 71.3285 62.1564 71.6562 62.1564C73.2932 62.1564 74.625 63.4882 74.625 65.1251C74.625 65.4796 74.4956 65.8293 74.359 66.1998C74.2931 66.3779 74.2278 66.5561 74.1732 66.7366L74.1429 66.8351C74.1352 66.8595 74.1221 66.8826 74.1144 66.9064C73.9956 66.2497 73.5236 65.7106 72.8479 65.5081L66.9062 64.0647V61.1927C69.0325 59.9583 70.4688 57.6623 70.4688 55.032V52.0632H71.0625V50.8757H69.3543C68.5355 50.8757 67.8248 50.3206 67.6217 49.5095L66.2899 44.7773C66.2181 44.5214 65.9853 44.3445 65.7193 44.3439H65.7188C65.4533 44.3439 65.2206 44.5202 65.1476 44.7755L63.9233 49.0767C63.6584 50.1353 62.7114 50.8751 61.6195 50.8751H55.625V52.0626H56.2188V55.0314C56.2188 57.6617 57.655 59.9583 59.7812 61.1921V64.0599L53.5368 65.5164C53.0232 65.6714 52.6188 66.0425 52.414 66.5175C52.1866 66.0906 52.0625 65.6126 52.0625 65.1251C52.0625 63.4882 53.3943 62.1564 55.0312 62.1564C55.359 62.1564 55.625 61.891 55.625 61.5626C55.625 61.2343 55.359 60.9689 55.0312 60.9689H53.25C52.5951 60.9689 52.0625 60.4363 52.0625 59.7814C52.0625 59.1265 52.5951 58.5939 53.25 58.5939H53.8438C54.1715 58.5939 54.4375 58.3285 54.4375 58.0001V50.5497C54.4375 45.6347 58.1603 41.6091 62.9133 41.3852C63.0463 41.3781 63.6406 41.3781 63.7748 41.3852C68.5272 41.6097 72.25 45.6347 72.25 50.5497V58.0001C72.25 58.3285 72.516 58.5939 72.8438 58.5939H73.4375C74.0924 58.5939 74.625 59.1265 74.625 59.7814C74.625 60.4363 74.0924 60.9689 73.4375 60.9689Z" fill="#283E39"/>
<path d="M49.0938 52.0625H50.2812V53.8438H49.0938V52.0625Z" fill="#283E39"/>
<path d="M47.3125 50.875H49.0938V52.0625H47.3125V50.875Z" fill="#283E39"/>
<path d="M49.0938 49.0938H50.2812V50.875H49.0938V49.0938Z" fill="#283E39"/>
<path d="M50.2812 50.875H52.0625V52.0625H50.2812V50.875Z" fill="#283E39"/>
<path d="M41.9688 46.125H43.1562V47.9062H41.9688V46.125Z" fill="#283E39"/>
<path d="M40.1875 44.9375H41.9688V46.125H40.1875V44.9375Z" fill="#283E39"/>
<path d="M41.9688 43.1562H43.1562V44.9375H41.9688V43.1562Z" fill="#283E39"/>
<path d="M43.1562 44.9375H44.9375V46.125H43.1562V44.9375Z" fill="#283E39"/>
<path d="M47.9062 44.9375H49.0938V46.125H47.9062V44.9375Z" fill="#283E39"/>
<path d="M41.375 51.4688H42.5625V52.6562H41.375V51.4688Z" fill="#283E39"/>
<path d="M44.9375 55.625H46.125V56.8125H44.9375V55.625Z" fill="#283E39"/>
<circle cx="61" cy="55" r="54.5" stroke="#C79C42"/>
<circle cx="55" cy="61" r="54.5" stroke="#C79C42"/>
</svg>
