<svg width="847" height="119" viewBox="0 0 847 119" fill="none" xmlns="http://www.w3.org/2000/svg">
<g filter="url(#filter0_i)">
<path fill-rule="evenodd" clip-rule="evenodd" d="M16.3088 56.9213C16.3088 64.515 17.2426 71.6621 19.11 78.3624C20.9774 85.0628 23.7786 90.806 27.5134 95.7834C31.2483 100.761 35.9789 104.717 41.5812 107.589C47.1835 110.46 53.844 111.864 61.5004 111.864C65.671 111.864 69.717 111.29 73.4518 110.141C77.2489 108.929 80.6726 107.014 83.5982 104.334C86.3371 101.846 88.827 98.7188 90.8189 95.0176C92.8108 91.3803 94.8651 86.9772 96.9192 81.9998L101.525 83.1484C100.218 88.3811 99.1601 93.2947 98.4131 97.8892C97.6661 102.484 96.9814 107.334 96.4211 112.566C90.3209 114.417 84.2829 115.821 78.3071 116.842C72.3314 117.863 66.3557 118.437 60.3177 118.437C51.6031 118.437 43.5109 116.969 36.1657 114.289C28.8205 111.545 22.4091 107.589 17.118 102.548C11.7648 97.5064 7.59425 91.3803 4.54413 84.2332C1.55625 77.0862 0 69.1096 0 60.3672C0 50.2209 1.8052 41.4147 5.4778 33.8848C9.08815 26.3548 14.0057 20.0373 20.2304 14.9961C26.3929 9.95487 33.6135 6.12606 41.7679 3.70117C49.9223 1.21246 58.5748 0 67.6629 0C72.3937 0 77.4357 0.382915 82.7889 1.08486C88.08 1.7868 93.1222 2.8078 97.7285 4.02025C97.2305 9.06148 96.9814 13.9113 96.8569 18.442C96.7324 22.9727 96.7325 27.8225 96.7325 32.8637L91.8772 33.3742C91.566 28.7159 90.6322 24.6318 89.1383 21.2498C87.6444 17.8038 85.5902 14.9961 83.1003 12.6988C80.6104 10.4654 77.6848 8.74243 74.3857 7.72142C71.0866 6.70041 67.4139 6.12609 63.5545 6.12609C55.8358 6.12609 49.051 7.40233 43.1997 9.89104C37.4107 12.3797 32.4309 15.8256 28.4471 20.2925C24.4633 24.7595 21.4131 30.1836 19.4212 36.4373C17.367 42.3719 16.3088 49.3275 16.3088 56.9213ZM584.192 111.928C587.18 111.737 589.607 111.29 591.475 110.843C593.342 110.333 594.774 109.503 595.832 108.482C596.89 107.397 597.575 105.93 597.948 104.143C598.322 102.292 598.509 99.8674 598.509 96.8044V21.3136C598.509 18.3144 598.26 15.8256 597.948 13.9751C597.575 12.1883 596.89 10.6568 595.832 9.63578C594.836 8.55096 593.342 7.78522 591.475 7.2109C589.607 6.7004 587.242 6.31753 584.192 6.12609L584.565 2.10584C585.623 2.10584 586.993 2.10586 588.549 2.16967C590.105 2.23348 591.786 2.23349 593.529 2.23349C600.936 2.23349 608.406 2.23349 615.813 2.23349C617.93 2.23349 619.859 2.16967 621.727 2.16967C623.594 2.10586 625.088 2.10584 626.333 2.10584V6.3813C623.096 6.57274 620.544 6.82803 618.615 7.2109C616.685 7.59378 615.191 8.2319 614.195 8.99766C613.199 9.82723 612.577 10.9121 612.265 12.1883C612.016 13.4008 611.83 14.9961 611.767 16.8467V16.9105V101.144V101.207C611.767 103.058 611.954 104.59 612.265 105.866C612.577 107.078 613.199 108.163 614.195 109.056C615.253 109.886 616.685 110.46 618.615 110.843C620.544 111.226 623.096 111.545 626.333 111.673V115.948C625.088 115.948 623.594 115.948 621.727 115.884C619.859 115.821 617.867 115.821 615.813 115.821C608.406 115.821 600.936 115.821 593.529 115.821C591.724 115.821 590.105 115.884 588.549 115.884C586.993 115.948 585.623 115.948 584.565 115.948L584.192 111.928ZM319.889 96.613C319.889 99.2931 320.076 101.527 320.387 103.313C320.699 105.036 321.445 106.376 322.504 107.397C323.5 108.355 324.994 109.056 326.861 109.439C328.728 109.822 331.281 110.014 334.455 110.014H342.921C347.403 110.014 351.013 109.631 353.876 108.929C356.678 108.163 359.043 106.887 360.973 105.1C362.902 103.313 364.645 100.952 366.077 98.0806C367.571 95.1452 369.251 91.5079 370.994 87.2962L375.476 88.3811C374.854 90.6784 374.294 93.167 373.733 95.7195C373.173 98.2721 372.675 100.888 372.239 103.441C371.804 105.993 371.368 108.355 371.119 110.588C370.808 112.821 370.621 114.672 370.496 116.076C355.121 116.076 342.734 116.012 333.21 115.948C323.686 115.884 316.59 115.821 311.859 115.821C310.49 115.821 308.809 115.884 306.942 115.884C305.074 115.948 303.082 115.948 301.091 115.948C299.099 115.948 297.107 116.012 295.239 116.012C293.372 116.076 291.754 116.076 290.446 116.076L290.073 111.992C293.621 111.8 296.484 111.418 298.663 110.907C300.779 110.397 302.46 109.567 303.643 108.546C304.763 107.525 305.572 105.993 305.946 104.207C306.319 102.356 306.568 99.9312 306.568 96.8682V17.1019C306.568 15.1875 306.382 13.5922 306.07 12.3159C305.759 11.0397 305.012 10.0187 303.954 9.18909C302.896 8.35952 301.402 7.72139 299.472 7.33851C297.48 6.95563 294.866 6.7004 291.504 6.50896L291.878 2.23349C293.31 2.23349 295.053 2.29727 296.858 2.29727C298.725 2.29727 300.717 2.3611 302.585 2.3611C304.577 2.3611 306.568 2.42493 308.436 2.42493C310.303 2.48874 312.108 2.48875 313.727 2.48875C316.715 2.48875 323.064 2.42491 332.65 2.3611C342.298 2.29729 354.561 2.23349 369.438 2.23349C368.94 6.25372 368.567 10.5292 368.38 14.9323C368.193 19.3354 368.007 24.0575 367.944 29.0349L363.276 29.1626C362.591 25.0148 361.844 21.6326 360.973 18.9525C360.101 16.2723 358.918 14.1027 357.362 12.5074C355.806 10.9121 353.814 9.76343 351.387 9.06149C348.897 8.35954 345.66 8.04045 341.8 8.04045H325.243C322.939 8.04045 321.445 8.29571 320.761 8.7424C320.138 9.18909 319.765 10.4654 319.765 12.3797V53.4115L359.728 52.1991L359.479 62.8559C352.445 62.2177 345.535 61.771 338.688 61.5796C331.841 61.3243 325.554 61.1329 319.765 61.0053V96.613H319.889ZM138.003 96.613C138.003 99.2931 138.189 101.527 138.5 103.313C138.812 105.036 139.559 106.44 140.617 107.397C141.613 108.355 143.107 109.056 144.974 109.439C146.842 109.822 149.394 110.014 152.568 110.014H161.034C165.516 110.014 169.126 109.631 171.99 108.929C174.791 108.227 177.156 106.887 179.086 105.1C181.015 103.313 182.758 100.952 184.252 98.0806C185.746 95.1452 187.427 91.5079 189.17 87.2962L193.652 88.3811C193.029 90.6784 192.469 93.167 191.909 95.7195C191.348 98.2721 190.85 100.888 190.415 103.441C189.917 105.993 189.543 108.355 189.294 110.588C188.983 112.821 188.796 114.672 188.672 116.076C173.297 116.076 160.91 116.012 151.386 115.948C141.862 115.884 134.766 115.821 130.097 115.821C128.728 115.821 127.047 115.884 125.18 115.884C123.312 115.948 121.32 115.948 119.328 115.948C117.336 115.948 115.344 116.012 113.477 116.012C111.61 116.076 109.991 116.076 108.684 116.076L108.31 111.992C111.859 111.8 114.722 111.418 116.901 110.907C119.017 110.397 120.698 109.567 121.88 108.546C123.001 107.525 123.81 105.993 124.184 104.207C124.557 102.356 124.806 99.9312 124.806 96.8682V17.1019C124.806 15.1875 124.619 13.5922 124.308 12.3159C123.997 11.1035 123.188 10.0187 122.192 9.18909C121.196 8.35952 119.639 7.72139 117.71 7.33851C115.78 6.95563 113.104 6.7004 109.804 6.50896L110.178 2.23349C111.61 2.23349 113.352 2.29727 115.158 2.29727C117.025 2.29727 119.017 2.3611 120.884 2.3611C122.876 2.3611 124.868 2.42493 126.736 2.42493C128.603 2.48874 130.408 2.48875 132.027 2.48875C135.015 2.48875 141.364 2.42491 150.95 2.3611C160.598 2.29729 172.861 2.23349 187.738 2.23349C187.24 6.25372 186.867 10.5292 186.68 14.9323C186.493 19.3354 186.306 24.0575 186.244 29.0349L181.576 29.1626C180.891 25.0148 180.144 21.6326 179.272 18.9525C178.401 16.2723 177.218 14.1027 175.662 12.5074C174.106 10.9121 172.114 9.76343 169.686 9.06149C167.197 8.35954 163.96 8.04045 160.1 8.04045L143.542 8.04045C141.239 8.04045 139.745 8.29571 139.061 8.7424C138.438 9.18909 138.065 10.4654 138.065 12.3797V53.4115L178.028 52.1991L177.779 62.8559C170.745 62.2177 163.835 61.771 156.988 61.5796C150.141 61.3243 143.854 61.1329 138.065 61.0053V96.613H138.003ZM244.757 6.12609C241.582 6.38135 239.03 6.76423 237.038 7.27473C235.046 7.78523 233.552 8.55096 232.432 9.63578C231.373 10.7206 230.626 12.1883 230.253 14.1027C229.88 16.0171 229.631 18.442 229.631 21.3774V96.6768C229.631 99.3569 229.817 101.59 230.129 103.377C230.502 105.1 231.187 106.504 232.245 107.461C233.241 108.418 234.735 109.12 236.602 109.503C238.47 109.886 241.022 110.077 244.197 110.077H250.235C254.716 110.077 258.389 109.695 261.252 108.993C264.116 108.291 266.481 106.951 268.473 105.164C270.465 103.377 272.146 101.016 273.577 98.1445C275.009 95.2091 276.69 91.5717 278.433 87.3601L282.852 88.4449C282.23 90.7421 281.607 93.2309 281.109 95.7834C280.611 98.3359 280.051 100.952 279.615 103.505C279.18 106.057 278.744 108.418 278.433 110.652C278.121 112.885 277.935 114.736 277.872 116.14H260.256C255.152 116.14 250.795 116.14 247.06 116.076C243.387 116.076 240.213 116.012 237.598 116.012C234.984 116.012 232.681 116.012 230.751 115.948C228.821 115.884 227.078 115.884 225.647 115.884H221.601C220.107 115.884 218.364 115.948 216.496 115.948C214.629 115.948 212.762 116.012 210.956 116.012C209.151 116.012 207.346 116.076 205.728 116.076C204.047 116.14 202.678 116.14 201.619 116.14L201.246 112.056C204.42 111.864 206.973 111.481 208.965 110.971C210.956 110.46 212.45 109.631 213.571 108.61C214.629 107.589 215.376 106.057 215.749 104.271C216.123 102.42 216.372 99.995 216.372 96.932V17.1657C216.372 15.2513 216.247 13.656 215.874 12.3797C215.563 11.1673 214.816 10.0825 213.757 9.25292C212.762 8.42335 211.205 7.78521 209.276 7.40233C207.284 7.01946 204.669 6.76422 201.37 6.57278L201.744 2.29727C202.989 2.29727 204.545 2.3611 206.35 2.3611C208.155 2.3611 210.085 2.42493 212.201 2.42493C214.255 2.42493 216.434 2.48875 218.551 2.48875C220.667 2.55257 222.721 2.55253 224.526 2.55253C225.958 2.55253 227.639 2.55257 229.506 2.48875C231.373 2.48875 233.241 2.42493 235.046 2.42493C236.851 2.42493 238.656 2.42491 240.275 2.3611C241.893 2.3611 243.263 2.29727 244.321 2.29727L244.757 6.12609ZM383.444 2.10584C384.689 2.10584 386.12 2.16967 387.801 2.16967C389.482 2.16967 391.287 2.23349 393.154 2.23349C395.084 2.23349 397.076 2.29727 399.068 2.29727C401.06 2.36109 403.052 2.3611 404.981 2.3611C408.032 2.3611 411.518 2.16968 415.377 1.78681C419.174 1.40393 423.282 1.21246 427.515 1.21246C432.37 1.21246 437.039 1.65916 441.521 2.61636C446.002 3.50974 449.924 5.04123 453.348 7.08325C456.771 9.12527 459.51 11.933 461.502 15.3151C463.494 18.6972 464.49 22.9089 464.49 27.8863C464.49 32.0342 463.743 35.4801 462.374 38.3516C461.004 41.287 459.199 43.7119 457.145 45.6902C455.028 47.6684 452.663 49.2637 450.173 50.4761C447.621 51.6886 445.255 52.7096 443.077 53.4115V53.922C451.667 55.2621 458.39 58.4528 463.12 63.494C467.851 68.5352 470.154 75.2994 470.154 83.6589C470.154 89.7849 468.909 94.89 466.42 99.1655C463.93 103.377 460.631 106.823 456.46 109.503C452.352 112.183 447.621 114.162 442.392 115.374C437.101 116.586 431.686 117.225 426.146 117.225C424.34 117.225 422.535 117.161 420.543 116.969C418.551 116.842 416.622 116.714 414.568 116.523C412.576 116.331 410.584 116.204 408.592 116.012C406.6 115.821 404.732 115.757 403.052 115.757C401.496 115.757 399.877 115.821 398.134 115.821C396.391 115.884 394.648 115.884 392.843 115.884C391.038 115.884 389.357 115.948 387.739 115.948C386.121 116.012 384.689 116.012 383.506 116.012L383.133 111.928C386.369 111.737 389.046 111.354 390.976 110.843C392.968 110.333 394.524 109.567 395.644 108.482C396.703 107.397 397.449 105.866 397.761 104.079C398.134 102.229 398.259 99.8036 398.259 96.7406V16.9743C398.259 15.0599 398.134 13.4646 397.761 12.1883C397.449 10.9121 396.765 9.89106 395.769 9.06149C394.711 8.23192 393.217 7.59378 391.225 7.2109C389.233 6.82803 386.556 6.57274 383.257 6.3813L383.444 2.10584ZM411.704 97.8254C411.704 100.378 411.829 102.548 412.078 104.271C412.389 105.993 413.011 107.334 414.07 108.291C415.065 109.248 416.622 109.886 418.676 110.205C420.73 110.588 423.593 110.716 427.142 110.716C435.296 110.716 441.77 108.61 446.625 104.462C451.543 100.25 453.97 94.0604 453.97 85.8286C453.97 81.0426 453.161 76.8309 451.543 73.3212C449.924 69.8115 447.621 66.9399 444.758 64.6426C441.894 62.4092 438.408 60.75 434.362 59.6652C430.316 58.5804 425.772 58.0699 420.855 58.0699H411.642V97.8254H411.704ZM411.704 52.0715H421.29C430.876 52.0715 437.848 50.1571 442.33 46.4559C446.749 42.7548 448.99 37.1392 448.99 29.8007C448.99 27.1206 448.617 24.4404 447.87 21.7603C447.123 19.1439 445.878 16.719 443.948 14.6132C442.081 12.4435 439.404 10.7206 436.043 9.38052C432.619 8.04045 428.324 7.33851 422.971 7.33851C420.232 7.33851 418.053 7.59379 416.497 7.91285C414.941 8.23192 413.883 8.80622 413.136 9.44435C412.451 10.0825 412.016 10.9759 411.891 11.9331C411.767 12.9541 411.766 14.0389 411.766 15.3151V52.0715H411.704ZM503.27 100.888C503.27 102.803 503.332 104.334 503.519 105.674C503.706 106.951 504.204 108.036 505.137 108.929C506.071 109.822 507.503 110.46 509.495 110.907C511.425 111.354 514.226 111.609 517.836 111.737V116.012C514.101 116.012 510.366 115.948 506.507 115.884C502.648 115.821 498.913 115.757 495.178 115.757C493.684 115.757 492.128 115.821 490.323 115.821C488.517 115.884 486.775 115.884 484.969 115.884C483.289 115.884 481.67 115.948 480.114 115.948C478.558 116.012 477.251 116.012 476.192 116.012L476.006 111.928C478.994 111.737 481.421 111.29 483.226 110.843C485.032 110.333 486.401 109.503 487.459 108.482C488.455 107.397 489.14 105.93 489.451 104.143C489.825 102.292 489.949 99.8674 489.949 96.8044V17.0381C489.949 15.1237 489.825 13.5284 489.513 12.2521C489.202 10.9759 488.58 9.95483 487.584 9.12527C486.65 8.2957 485.156 7.65761 483.226 7.27473C481.297 6.89185 478.745 6.63657 475.508 6.44513L475.757 2.16967C477.002 2.16967 478.433 2.23349 480.114 2.23349C481.733 2.23349 483.538 2.29727 485.467 2.29727C487.397 2.29727 489.327 2.3611 491.319 2.3611C493.31 2.42491 495.24 2.42493 497.108 2.42493C500.158 2.42493 503.27 2.2335 506.382 1.78681C509.557 1.40393 512.732 1.14864 515.969 1.14864C520.575 1.14864 525.243 1.53152 529.85 2.29727C534.456 3.12684 538.689 4.53077 542.424 6.57278C546.159 8.6148 549.209 11.4226 551.512 14.9323C553.815 18.442 554.998 22.9727 554.998 28.3968C554.998 32.0342 554.375 35.4801 553.317 38.7346C552.197 41.989 550.64 44.9244 548.586 47.5407C546.594 50.2209 544.229 52.5181 541.49 54.5602C538.751 56.6022 535.701 58.1975 532.402 59.4738C534.892 64.2598 537.319 68.9181 539.685 73.3212C542.05 77.7881 544.291 81.8083 546.345 85.5095C548.399 89.1468 550.267 92.4013 551.885 95.1452C553.566 97.953 554.935 100.059 555.994 101.718C557.488 103.76 558.732 105.419 559.853 106.632C560.911 107.844 562.094 108.801 563.339 109.439C564.584 110.141 566.078 110.652 567.821 110.971C569.501 111.29 571.68 111.609 574.419 111.8L574.17 116.076C571.867 116.076 568.817 116.012 565.082 115.948C561.347 115.884 557.737 115.821 554.251 115.821C553.193 115.821 552.01 115.884 550.765 115.884C549.458 115.948 548.337 115.948 547.217 116.076C546.47 114.417 545.225 111.992 543.606 108.801C541.988 105.611 540.058 101.846 537.817 97.6339C535.576 93.4223 533.149 88.8278 530.41 83.8504C527.733 78.8729 524.932 73.8317 522.007 68.6628C521.509 67.8971 521.073 67.1313 520.637 66.4932C520.201 65.8551 519.641 65.3446 519.019 64.8979C518.334 64.4512 517.462 64.1321 516.404 63.8769C515.346 63.6216 513.852 63.494 512.109 63.494H508.686C508.063 63.494 507.316 63.494 506.382 63.4302C505.511 63.3664 504.453 63.3025 503.208 63.2387V100.888H503.27ZM503.27 57.4956C503.893 57.5594 504.515 57.6232 505.137 57.687C505.76 57.7508 506.383 57.7508 507.005 57.7508H510.678C519.766 57.7508 526.8 55.645 531.779 51.3695C536.759 47.094 539.249 40.2022 539.249 30.6303C539.249 22.526 536.884 16.6552 532.153 12.9541C527.422 9.25293 521.073 7.33851 513.23 7.33851C510.802 7.33851 508.935 7.59376 507.627 8.04045C506.258 8.42333 505.324 9.1253 504.64 9.95487C504.017 10.7844 503.644 11.9331 503.519 13.1455C503.395 14.4218 503.27 15.8257 503.27 17.421V57.4956ZM682.542 2.3611C685.157 2.3611 688.518 2.36109 692.627 2.29727C696.673 2.29727 700.843 2.23349 705.014 2.23349C709.247 2.23349 713.666 2.23348 718.21 2.16967C722.817 2.16967 727.361 2.10584 731.967 2.10584C731.718 4.91361 731.531 7.46617 731.344 9.76343C731.158 12.1245 730.971 14.4217 730.846 16.6552C730.722 18.8887 730.66 21.1859 730.597 23.4832C730.535 25.7167 730.535 28.2692 730.535 30.9494L726.178 31.2046C725.493 26.9291 724.684 23.3556 723.875 20.4202C723.066 17.4848 721.883 15.0599 720.389 13.2093C718.833 11.3588 716.779 10.0187 714.164 9.25292C711.55 8.48716 708.064 8.10428 703.769 8.10428H690.572V101.207C690.572 103.058 690.759 104.717 691.07 105.93C691.382 107.206 692.066 108.227 693.187 109.12C694.245 109.95 695.926 110.524 698.104 110.907C700.283 111.29 703.333 111.609 707.068 111.737L706.819 116.012C705.201 116.012 703.396 116.012 701.341 115.948C699.287 115.948 697.171 115.884 695.054 115.884C692.876 115.884 690.759 115.884 688.643 115.821C686.526 115.821 684.535 115.757 682.667 115.757C681.111 115.757 679.43 115.821 677.625 115.821C675.82 115.821 673.952 115.884 672.085 115.884C670.28 115.884 668.412 115.948 666.545 115.948C664.677 116.012 663.059 116.012 661.565 116.012L661.192 111.928C664.74 111.737 667.603 111.354 669.782 110.843C671.961 110.397 673.579 109.567 674.637 108.482C675.695 107.397 676.442 105.866 676.754 104.079C677.127 102.229 677.251 99.8036 677.251 96.7406V8.04045H664.428C660.133 8.04045 656.585 8.42334 653.971 9.18909C651.357 9.95485 649.178 11.2949 647.56 13.1455C645.941 14.9961 644.758 17.421 643.887 20.3564C643.078 23.2918 642.269 26.8653 641.584 31.1408L637.226 30.8855V23.4194C637.226 19.8459 637.164 16.4638 637.04 13.2093C636.915 9.95488 636.666 6.25372 636.293 2.04206C640.899 2.04206 645.505 2.10584 649.987 2.10584C654.407 2.10584 658.764 2.16967 662.935 2.16967C667.105 2.16967 670.778 2.23349 673.89 2.23349C676.878 2.36112 679.866 2.3611 682.542 2.3611ZM787.741 78.7453C787.741 76.448 787.678 74.4698 787.616 72.8745C787.554 71.2792 787.305 69.62 786.869 68.0247C786.496 66.4294 785.811 64.5788 785.002 62.792C784.13 60.8777 782.948 58.5166 781.391 55.645C779.337 51.8162 776.785 47.2855 773.797 41.8614C770.809 36.5011 767.074 29.9283 762.53 22.207C760.725 19.1439 759.169 16.5914 757.924 14.677C756.679 12.7626 755.31 11.1673 753.878 10.0187C752.446 8.87006 750.766 8.04044 748.836 7.52994C746.906 7.01943 744.479 6.63655 741.429 6.3813L741.677 2.10584C744.914 2.10584 748.525 2.16968 752.384 2.23349C756.306 2.29731 760.227 2.3611 764.149 2.3611C767.386 2.3611 770.685 2.29731 774.046 2.23349C777.408 2.16968 780.707 2.10584 783.944 2.10584L784.255 6.12609C780.084 6.44516 777.221 6.95565 775.665 7.65759C774.109 8.35954 773.299 9.44436 773.299 10.8482C773.299 11.8054 773.611 12.8902 774.109 14.1665C774.607 15.4428 775.353 17.0381 776.287 18.8249L797.327 58.5166L817.682 20.8031C818.927 18.5058 819.86 16.5914 820.545 15.0599C821.167 13.5284 821.541 12.1883 821.541 11.1035C821.541 9.57199 820.669 8.55097 818.927 7.84902C817.184 7.21089 814.133 6.70037 809.714 6.3813L809.963 2.10584C812.826 2.10584 815.814 2.16968 818.989 2.23349C822.163 2.29731 825.463 2.3611 828.948 2.3611C831.812 2.3611 834.737 2.29731 837.787 2.23349C840.838 2.16968 843.825 2.10584 846.627 2.10584L847 6.12609C844.012 6.38135 841.523 6.76423 839.531 7.27473C837.601 7.78523 835.796 8.80622 834.302 10.1463C832.745 11.4864 831.189 13.3369 829.758 15.5704C828.264 17.8677 826.396 20.8669 824.28 24.5681C820.358 31.2684 816.935 37.2668 814.071 42.4357C811.208 47.6045 808.967 51.88 807.349 55.1983C805.73 58.4527 804.485 61.0691 803.676 62.9835C802.805 64.9617 802.182 66.6846 801.808 68.2161C801.435 69.7477 801.186 71.1515 801.186 72.5554C801.124 73.8955 801.124 75.6823 801.124 77.5967V101.08C801.124 102.93 801.311 104.59 801.622 105.802C801.933 107.078 802.618 108.099 803.738 108.993C804.796 109.822 806.477 110.397 808.656 110.779C810.834 111.162 813.885 111.481 817.619 111.609L817.37 115.884C815.752 115.884 813.947 115.884 811.893 115.821C809.838 115.821 807.722 115.757 805.606 115.757C803.427 115.757 801.311 115.757 799.194 115.693C797.078 115.693 795.086 115.629 793.218 115.629C791.662 115.629 790.044 115.693 788.176 115.693C786.371 115.693 784.504 115.757 782.636 115.757C780.831 115.757 778.964 115.821 777.096 115.821C775.229 115.884 773.548 115.884 772.117 115.884L771.743 111.8C775.291 111.609 778.155 111.226 780.333 110.716C782.512 110.269 784.13 109.439 785.189 108.355C786.247 107.27 786.994 105.738 787.305 103.951C787.678 102.101 787.803 99.676 787.803 96.613V78.7453H787.741Z" fill="#37524B"/>
</g>
<defs>
<filter id="filter0_i" x="0" y="0" width="847" height="122.437" filterUnits="userSpaceOnUse" color-interpolation-filters="sRGB">
<feFlood flood-opacity="0" result="BackgroundImageFix"/>
<feBlend mode="normal" in="SourceGraphic" in2="BackgroundImageFix" result="shape"/>
<feColorMatrix in="SourceAlpha" type="matrix" values="0 0 0 0 0 0 0 0 0 0 0 0 0 0 0 0 0 0 127 0" result="hardAlpha"/>
<feOffset dy="4"/>
<feGaussianBlur stdDeviation="5"/>
<feComposite in2="hardAlpha" operator="arithmetic" k2="-1" k3="1"/>
<feColorMatrix type="matrix" values="0 0 0 0 0 0 0 0 0 0 0 0 0 0 0 0 0 0 0.1 0"/>
<feBlend mode="normal" in2="shape" result="effect1_innerShadow"/>
</filter>
</defs>
</svg>
