<svg width="18" height="18" viewBox="0 0 18 18" fill="none" xmlns="http://www.w3.org/2000/svg">
<path d="M12.7856 0H5.2118C4.48748 0 3.90234 0.587407 3.90234 1.31172V16.69C3.90234 17.412 4.48748 18 5.2118 18H12.7856C13.5088 18 14.0962 17.4126 14.0962 16.69V1.31172C14.0956 0.587407 13.5088 0 12.7856 0ZM13.114 14.5841H4.88458V2.21272H13.114V14.5841ZM10.7547 1.33104H7.24329V0.948146H10.7552L10.7547 1.33104ZM12.2573 1.15607C12.2573 1.34127 12.1062 1.49124 11.9215 1.49124C11.7363 1.49124 11.5858 1.3407 11.5858 1.15607C11.5858 0.971438 11.7363 0.820893 11.9215 0.820893C12.1067 0.820325 12.2573 0.97087 12.2573 1.15607ZM10.5973 16.6025H7.39952V15.6186H10.5973V16.6025Z" fill="#C79C42"/>
</svg>
