<svg width="18" height="18" viewBox="0 0 18 18" fill="none" xmlns="http://www.w3.org/2000/svg">
<g clip-path="url(#clip0)">
<path d="M17.7613 3.93384L11.5371 8.67557L17.7741 14.0418C17.919 13.7679 18.0015 13.4561 18.0015 13.1252V4.8749C18.0015 4.5342 17.9143 4.21354 17.7613 3.93384Z" fill="#C79C42"/>
<path d="M16.0331 2.90796H1.9671C1.57992 2.90796 1.21876 3.02085 0.914062 3.21484L8.67607 9.03225C8.87055 9.17498 9.13113 9.17526 9.32593 9.0332L17.0178 3.17328C16.728 3.00488 16.3917 2.90796 16.0331 2.90796Z" fill="#C79C42"/>
<path d="M10.6768 9.3291L9.9539 9.87982C9.66882 10.0903 9.33459 10.1956 9.0005 10.1956C8.66634 10.1956 8.33228 10.0903 8.0471 9.87982L8.04404 9.87757L7.32218 9.33655L0.957031 14.813C1.2522 14.9902 1.59733 15.0923 1.96591 15.0923H16.0319C16.4029 15.0923 16.7502 14.9889 17.0466 14.8097L10.6768 9.3291Z" fill="#C79C42"/>
<path d="M0.205137 4.00171C0.0740742 4.26499 0 4.56136 0 4.87492V13.1253C0 13.4585 0.0835312 13.7724 0.230379 14.0477L6.45887 8.6887L0.205137 4.00171Z" fill="#C79C42"/>
</g>
<defs>
<clipPath id="clip0">
<rect width="18" height="18" fill="white"/>
</clipPath>
</defs>
</svg>
