<svg width="31" height="31" viewBox="0 0 31 31" fill="none" xmlns="http://www.w3.org/2000/svg">
<g clip-path="url(#clip0)">
<path d="M22.4672 6.96785V22.0395C22.4672 22.3685 22.2006 22.6354 21.8712 22.6354C21.5418 22.6354 21.2749 22.3685 21.2749 22.0395V6.96785C21.2749 3.78289 18.6843 1.19234 15.4999 1.19234C12.3153 1.19234 9.72469 3.78332 9.72469 6.96785V7.95242V13.1166V25.2381C9.72469 27.7579 11.7746 29.8085 14.2942 29.8085C16.8145 29.8085 18.8643 27.7586 18.8643 25.2381V15.1865V9.81918C18.8643 8.17564 17.5274 6.83878 15.8841 6.83878C14.24 6.83878 12.9036 8.1757 12.9036 9.81918V23.2106C12.9036 23.5396 12.637 23.8066 12.3075 23.8066C11.978 23.8066 11.7115 23.5396 11.7115 23.2106V9.81924C11.7115 7.51883 13.5834 5.64669 15.8841 5.64669C18.1847 5.64669 20.0566 7.51883 20.0566 9.81924V15.1865V25.2382V25.7148C20.0566 25.7991 20.0391 25.8783 20.0077 25.9507C19.6549 28.7921 17.2294 31.0001 14.2939 31.0001C11.1168 31.0001 8.53223 28.4153 8.53223 25.2382V13.1163V7.95205V6.96748C8.53254 3.12602 11.6579 0 15.4999 0C19.3415 0 22.4672 3.12602 22.4672 6.96785Z" fill="#C79C42"/>
</g>
<defs>
<clipPath id="clip0">
<rect width="31" height="31" fill="white"/>
</clipPath>
</defs>
</svg>
