<svg width="156" height="69" viewBox="0 0 156 69" fill="none" xmlns="http://www.w3.org/2000/svg">
<path fill-rule="evenodd" clip-rule="evenodd" d="M104.031 14.4617C104.042 14.0979 104.054 13.7454 104.088 13.393C101.623 12.0855 98.7912 11.6421 95.9251 11.8695C95.604 15.8601 96.6244 19.7711 99.4791 22.7271C102.162 25.5012 105.395 26.2743 109.041 25.6263C105.75 22.7954 103.927 19.1799 104.031 14.4617ZM85.4807 62.6787C85.2973 62.6901 85.1483 62.7128 85.0336 62.7469C84.919 62.781 84.8272 62.8151 84.7699 62.8833C84.7126 62.9402 84.6667 63.0311 84.6438 63.1335C84.6208 63.2358 84.6094 63.3722 84.6094 63.5428V67.7721C84.6094 67.9199 84.6208 68.045 84.6438 68.1473C84.6667 68.2496 84.7011 68.3178 84.7699 68.3747C84.8272 68.4315 84.9189 68.4657 85.0221 68.4884C85.1368 68.5111 85.2858 68.5225 85.4578 68.5225H85.8017C86.0654 68.5225 86.2718 68.4998 86.4437 68.4657C86.6042 68.4202 86.7533 68.352 86.8679 68.2496C86.9826 68.1473 87.0858 68.0222 87.166 67.8517C87.2463 67.6812 87.3495 67.4765 87.4526 67.2378L87.7049 67.2946C87.6705 67.4197 87.6361 67.5675 87.6017 67.7039C87.5673 67.8517 87.5443 67.9995 87.5099 68.1359C87.487 68.2837 87.4641 68.4088 87.4412 68.5339C87.4182 68.6589 87.4182 68.7612 87.4068 68.8408H86.3864C86.0883 68.8408 85.8361 68.8408 85.6183 68.8408C85.4005 68.8408 85.217 68.8408 85.068 68.8408C84.919 68.8408 84.7814 68.8408 84.6667 68.8408C84.5521 68.8408 84.4604 68.8408 84.3686 68.8408H84.1394C84.0476 68.8408 83.9559 68.8408 83.8413 68.8408C83.7266 68.8408 83.6234 68.8408 83.5203 68.8408C83.4056 68.8408 83.3139 68.8408 83.2107 68.8408C83.119 68.8408 83.0387 68.8408 82.9699 68.8408L82.947 68.6134C83.1305 68.6021 83.2795 68.5793 83.3941 68.5452C83.5088 68.5111 83.6005 68.4657 83.6578 68.4088C83.7152 68.352 83.761 68.261 83.7839 68.1587C83.8069 68.0564 83.8184 67.9199 83.8184 67.7494V63.2585C83.8184 63.1562 83.8069 63.0653 83.7839 62.9857C83.761 62.9175 83.7266 62.8606 83.6578 62.8151C83.6005 62.7697 83.5088 62.7355 83.3941 62.7128C83.2795 62.6901 83.1304 62.6787 82.9355 62.6673L82.9585 62.4286C83.0273 62.4286 83.119 62.4286 83.2222 62.4286C83.3253 62.4286 83.44 62.4286 83.5661 62.4286C83.6808 62.4286 83.8069 62.4286 83.933 62.4286C84.0591 62.4286 84.1737 62.4286 84.2769 62.4286C84.3686 62.4286 84.4604 62.4286 84.5635 62.4286C84.6667 62.4286 84.7814 62.4286 84.8846 62.4286C84.9877 62.4286 85.0909 62.4286 85.1941 62.4286C85.2858 62.4286 85.3661 62.4286 85.4234 62.4286L85.4807 62.6787ZM89.3902 66.6579C89.3902 66.9763 89.4475 67.2491 89.5507 67.4879C89.6539 67.7153 89.8029 67.9086 89.9749 68.045C90.1583 68.1928 90.3532 68.2951 90.5825 68.3633C90.8003 68.4315 91.0411 68.4657 91.2704 68.4657C91.5112 68.4657 91.7404 68.4315 91.9583 68.352C92.1761 68.2724 92.371 68.1587 92.543 67.9995C92.7149 67.8403 92.8525 67.6243 92.9557 67.3742C93.0589 67.1241 93.1047 66.8057 93.1047 66.4533V63.6565C93.1047 63.4632 93.0933 63.304 93.0589 63.1789C93.0245 63.0539 92.9786 62.9629 92.8984 62.8947C92.8181 62.8265 92.7035 62.781 92.5659 62.7469C92.4283 62.7242 92.2449 62.7014 92.027 62.6901L92.0385 62.4513C92.199 62.4513 92.3825 62.4513 92.6117 62.4627C92.8296 62.4627 93.0704 62.474 93.3111 62.474C93.506 62.474 93.7123 62.474 93.9302 62.4627C94.148 62.4627 94.32 62.4513 94.469 62.4513L94.4805 62.6787C94.2856 62.7014 94.1251 62.7242 93.999 62.7469C93.8729 62.7696 93.7812 62.8151 93.7009 62.8947C93.6321 62.9629 93.5748 63.0653 93.5519 63.2131C93.5289 63.3495 93.5175 63.5428 93.5175 63.7815V66.6011C93.5175 67.0331 93.4372 67.4083 93.2996 67.7039C93.1506 68.0109 92.9557 68.261 92.7149 68.4429C92.4742 68.6362 92.199 68.7726 91.9009 68.8636C91.6029 68.9545 91.2933 69 90.9838 69C90.6742 69 90.3761 68.9545 90.0895 68.8749C89.8029 68.7954 89.5621 68.6589 89.3443 68.4884C89.1265 68.3178 88.9545 68.0905 88.8284 67.8403C88.7023 67.5788 88.6335 67.2719 88.6335 66.9081V63.3495C88.6335 63.2472 88.622 63.1562 88.6106 63.0766C88.5991 62.997 88.5418 62.9402 88.4845 62.8833C88.4157 62.8379 88.324 62.7924 88.2093 62.7697C88.0832 62.7469 87.9227 62.7242 87.7278 62.7128L87.7393 62.474C87.8195 62.474 87.9112 62.474 88.0259 62.474C88.1405 62.474 88.2552 62.474 88.3698 62.474C88.4959 62.474 88.622 62.474 88.7482 62.474C88.8743 62.474 88.9889 62.474 89.1036 62.474C89.1953 62.474 89.2985 62.474 89.4016 62.474C89.5163 62.474 89.6195 62.474 89.7341 62.474C89.8487 62.474 89.9519 62.474 90.0551 62.474C90.1583 62.474 90.2386 62.474 90.3188 62.474L90.3417 62.7014C90.1468 62.7128 89.9864 62.7355 89.8717 62.7697C89.7571 62.8038 89.6539 62.8492 89.5851 62.9174C89.5163 62.9857 89.4704 63.0766 89.4475 63.1789C89.4246 63.2926 89.4131 63.4291 89.4131 63.5882V66.6579H89.3902ZM97.1288 68.8636C96.9913 68.8636 96.8078 68.8636 96.59 68.8522C96.3607 68.8522 96.1429 68.8408 95.9365 68.8408C95.7072 68.8408 95.5238 68.8408 95.3747 68.8522C95.2257 68.8522 95.0652 68.8636 94.9162 68.8636L94.9047 68.6248C95.0881 68.6134 95.2486 68.5907 95.3747 68.5452C95.5009 68.4998 95.6155 68.4429 95.7187 68.3747C95.8218 68.2951 95.9251 68.1928 96.0282 68.0677C96.12 67.9427 96.2461 67.7949 96.3722 67.6243L97.7938 65.6916L96.269 63.52C96.1429 63.3495 96.0511 63.2131 95.9709 63.0994C95.8906 62.997 95.8104 62.9175 95.7301 62.8606C95.6499 62.8038 95.5467 62.7583 95.4321 62.7355C95.3174 62.7128 95.1799 62.7014 94.9964 62.6901L95.0079 62.4513C95.0767 62.4513 95.1569 62.4513 95.2716 62.4513C95.3747 62.4513 95.4894 62.4513 95.6155 62.4513C95.7416 62.4513 95.8563 62.4513 95.9824 62.4513C96.1085 62.4513 96.2117 62.4513 96.3149 62.4513C96.5212 62.4513 96.7276 62.4513 96.9454 62.4399C97.1632 62.4399 97.3352 62.4286 97.4728 62.4286L97.4957 62.656C97.255 62.6787 97.0945 62.7128 97.0027 62.7469C96.911 62.781 96.8766 62.8265 96.8766 62.8947C96.8766 62.9516 96.9225 63.0539 97.0142 63.1789L98.2868 65.0208L99.4791 63.2926C99.5364 63.2017 99.5937 63.1335 99.6281 63.0653C99.6625 62.997 99.674 62.9516 99.674 62.8947C99.674 62.8265 99.6281 62.7697 99.5364 62.7355C99.4447 62.7014 99.2842 62.6673 99.0549 62.6446L99.0778 62.4172C99.2154 62.4172 99.3874 62.4172 99.5937 62.4286C99.8001 62.4286 100.006 62.4399 100.213 62.4399C100.419 62.4399 100.591 62.4399 100.729 62.4286C100.866 62.4286 101.004 62.4172 101.153 62.4172L101.164 62.656C100.981 62.6673 100.82 62.6901 100.706 62.7242C100.58 62.7583 100.477 62.8151 100.373 62.8947C100.27 62.9743 100.178 63.0653 100.087 63.1903C99.995 63.304 99.8804 63.4518 99.7543 63.6337L98.4931 65.3618L100.133 67.7266C100.259 67.9086 100.362 68.0564 100.454 68.1701C100.545 68.2837 100.637 68.3633 100.729 68.4202C100.82 68.4884 100.935 68.5225 101.05 68.5452C101.164 68.568 101.325 68.5907 101.508 68.5907L101.497 68.8295C101.417 68.8295 101.325 68.8295 101.222 68.8295C101.119 68.8295 101.004 68.8295 100.889 68.8295C100.775 68.8295 100.648 68.8295 100.522 68.8295C100.396 68.8295 100.282 68.8295 100.167 68.8295C100.064 68.8295 99.9491 68.8295 99.8345 68.8295C99.7198 68.8295 99.5937 68.8295 99.4791 68.8295C99.3644 68.8295 99.2498 68.8295 99.1466 68.8295C99.0435 68.8295 98.9632 68.8295 98.8829 68.8295L98.8485 68.6134C99.1122 68.5907 99.2957 68.568 99.3989 68.5339C99.502 68.4998 99.5479 68.4543 99.5479 68.3861C99.5479 68.3179 99.502 68.2269 99.4218 68.1018L97.9887 66.0213L96.6473 67.9768C96.59 68.0677 96.5327 68.1359 96.5097 68.2042C96.4753 68.261 96.4639 68.3178 96.4639 68.3633C96.4639 68.4429 96.5097 68.4998 96.6129 68.5339C96.7161 68.568 96.8995 68.6021 97.1632 68.6248L97.1288 68.8636ZM103.331 66.6579C103.331 66.9763 103.389 67.2491 103.492 67.4879C103.595 67.7153 103.744 67.9086 103.916 68.045C104.099 68.1928 104.294 68.2951 104.524 68.3633C104.741 68.4315 104.982 68.4657 105.211 68.4657C105.452 68.4657 105.681 68.4315 105.899 68.352C106.117 68.2724 106.312 68.1587 106.484 67.9995C106.656 67.8403 106.794 67.6243 106.897 67.3742C107 67.1241 107.046 66.8057 107.046 66.4533V63.6565C107.046 63.4632 107.034 63.304 107 63.1789C106.966 63.0539 106.92 62.9629 106.839 62.8947C106.759 62.8265 106.656 62.781 106.518 62.7469C106.381 62.7242 106.197 62.7014 105.98 62.6901L105.991 62.4513C106.152 62.4513 106.335 62.4513 106.564 62.4627C106.782 62.4627 107.023 62.474 107.264 62.474C107.459 62.474 107.665 62.474 107.883 62.4627C108.101 62.4513 108.273 62.4513 108.422 62.4513L108.433 62.6787C108.238 62.7014 108.078 62.7128 107.952 62.7469C107.825 62.7696 107.734 62.8151 107.653 62.8947C107.585 62.9629 107.527 63.0653 107.504 63.2131C107.481 63.3495 107.47 63.5428 107.47 63.7815V66.6011C107.47 67.0331 107.39 67.4083 107.252 67.7039C107.103 68.0109 106.908 68.261 106.667 68.4429C106.427 68.6362 106.152 68.7726 105.853 68.8636C105.555 68.9545 105.246 69 104.936 69C104.627 69 104.329 68.9545 104.054 68.8749C103.767 68.7954 103.526 68.6589 103.308 68.4884C103.09 68.3178 102.919 68.1018 102.792 67.8403C102.666 67.5788 102.597 67.2719 102.597 66.9081V63.3495C102.597 63.2472 102.586 63.1562 102.563 63.0766C102.54 62.997 102.506 62.9402 102.437 62.8833C102.368 62.8379 102.276 62.7924 102.162 62.7697C102.036 62.7469 101.875 62.7242 101.68 62.7128L101.692 62.474C101.772 62.474 101.864 62.474 101.978 62.474C102.093 62.474 102.208 62.474 102.322 62.474C102.448 62.474 102.575 62.474 102.701 62.474C102.827 62.474 102.941 62.474 103.056 62.474C103.148 62.474 103.251 62.474 103.354 62.474C103.469 62.474 103.572 62.474 103.687 62.474C103.801 62.474 103.904 62.474 104.008 62.474C104.111 62.474 104.191 62.474 104.271 62.474L104.283 62.7014C104.088 62.7128 103.939 62.7355 103.813 62.7697C103.698 62.8038 103.595 62.8492 103.526 62.9174C103.457 62.9857 103.411 63.0766 103.389 63.1789C103.366 63.2926 103.354 63.4291 103.354 63.5882V66.6579H103.331ZM110.531 68.0109C110.531 68.1132 110.531 68.2042 110.543 68.2837C110.554 68.352 110.588 68.4202 110.634 68.4657C110.68 68.5111 110.772 68.5566 110.886 68.5793C111.001 68.6021 111.162 68.6248 111.379 68.6248V68.8636C111.162 68.8636 110.944 68.8636 110.715 68.8522C110.485 68.8522 110.267 68.8408 110.05 68.8408C109.969 68.8408 109.866 68.8408 109.763 68.8408C109.66 68.8408 109.557 68.8408 109.453 68.8408C109.35 68.8408 109.258 68.8408 109.167 68.8408C109.075 68.8408 109.006 68.8408 108.937 68.8408L108.926 68.6134C109.098 68.6021 109.236 68.5793 109.35 68.5452C109.465 68.5111 109.534 68.4657 109.591 68.4088C109.648 68.352 109.683 68.261 109.706 68.1587C109.729 68.0564 109.74 67.9199 109.74 67.7494V63.2585C109.74 63.1562 109.729 63.0653 109.717 62.9857C109.694 62.9175 109.66 62.8606 109.602 62.8151C109.545 62.7697 109.465 62.7355 109.35 62.7128C109.236 62.6901 109.086 62.6787 108.903 62.6673L108.915 62.4286C108.983 62.4286 109.075 62.4286 109.167 62.4286C109.258 62.4286 109.362 62.4286 109.476 62.4286C109.591 62.4286 109.706 62.4286 109.82 62.4286C109.935 62.4286 110.05 62.4286 110.153 62.4286C110.336 62.4286 110.508 62.4172 110.692 62.3945C110.875 62.3717 111.058 62.3604 111.242 62.3604C111.506 62.3604 111.781 62.3831 112.044 62.4286C112.308 62.474 112.56 62.5536 112.778 62.6673C112.996 62.781 113.168 62.9402 113.305 63.1335C113.443 63.3267 113.512 63.5882 113.512 63.8952C113.512 64.0999 113.477 64.2931 113.409 64.475C113.34 64.657 113.248 64.8275 113.134 64.9753C113.019 65.1231 112.881 65.2595 112.721 65.3732C112.56 65.4869 112.388 65.5779 112.193 65.6461C112.342 65.9189 112.48 66.1804 112.618 66.4192C112.755 66.6693 112.881 66.8967 113.007 67.1013C113.122 67.306 113.237 67.4879 113.328 67.6471C113.42 67.8062 113.5 67.9313 113.569 68.0109C113.649 68.1246 113.73 68.2155 113.787 68.2837C113.856 68.352 113.925 68.4088 113.993 68.4429C114.062 68.477 114.154 68.5111 114.257 68.5225C114.36 68.5452 114.486 68.5566 114.635 68.568L114.624 68.8067C114.486 68.8067 114.314 68.8067 114.097 68.7954C113.879 68.784 113.672 68.784 113.466 68.784C113.409 68.784 113.34 68.784 113.26 68.784C113.179 68.784 113.122 68.784 113.053 68.7954C113.007 68.7044 112.939 68.568 112.847 68.3861C112.755 68.2042 112.641 67.9995 112.514 67.7608C112.388 67.522 112.239 67.2605 112.079 66.9876C111.918 66.7034 111.758 66.4192 111.586 66.1349C111.563 66.0895 111.528 66.0554 111.506 66.0099C111.483 65.9644 111.448 65.9417 111.414 65.9189C111.379 65.8962 111.322 65.8735 111.265 65.8621C111.207 65.8507 111.116 65.8393 111.013 65.8393H110.818C110.783 65.8393 110.737 65.8393 110.68 65.8393C110.634 65.8393 110.565 65.828 110.497 65.828V68.0109H110.531ZM110.531 65.5665C110.565 65.5665 110.6 65.5779 110.634 65.5779C110.669 65.5779 110.703 65.5779 110.737 65.5779H110.955C111.483 65.5779 111.895 65.4528 112.182 65.214C112.469 64.9753 112.618 64.5887 112.618 64.043C112.618 63.5882 112.48 63.2585 112.205 63.0425C111.93 62.8379 111.563 62.7242 111.104 62.7242C110.967 62.7242 110.852 62.7355 110.783 62.7583C110.703 62.781 110.646 62.8151 110.611 62.872C110.577 62.9174 110.554 62.9857 110.543 63.0539C110.531 63.1221 110.531 63.2017 110.531 63.2926V65.5665ZM117.02 66.7603C117.02 66.6352 117.02 66.5215 117.009 66.4306C116.997 66.3396 116.986 66.2486 116.963 66.1577C116.94 66.0667 116.905 65.9644 116.848 65.8621C116.802 65.7598 116.733 65.6233 116.642 65.4642C116.527 65.2482 116.378 64.9867 116.206 64.6911C116.034 64.3841 115.816 64.0203 115.553 63.5882C115.449 63.4177 115.358 63.2699 115.289 63.1676C115.209 63.0539 115.14 62.9743 115.048 62.9061C114.968 62.8379 114.865 62.7924 114.762 62.7697C114.647 62.7355 114.509 62.7242 114.326 62.7014L114.337 62.4627C114.521 62.4627 114.739 62.4627 114.956 62.474C115.186 62.474 115.415 62.4854 115.644 62.4854C115.828 62.4854 116.023 62.4854 116.218 62.474C116.412 62.474 116.607 62.4627 116.791 62.4627L116.814 62.6901C116.573 62.7128 116.401 62.7355 116.309 62.781C116.218 62.8265 116.172 62.8833 116.172 62.9629C116.172 63.0198 116.195 63.0766 116.218 63.1448C116.252 63.2131 116.286 63.304 116.344 63.4063L117.57 65.6347L118.751 63.5087C118.82 63.3836 118.877 63.2699 118.912 63.1789C118.946 63.0994 118.969 63.0198 118.969 62.9516C118.969 62.872 118.912 62.8038 118.82 62.7697C118.717 62.7355 118.545 62.7014 118.281 62.6901L118.293 62.4513C118.453 62.4513 118.637 62.4513 118.82 62.4627C119.003 62.474 119.198 62.474 119.393 62.474C119.565 62.474 119.737 62.474 119.909 62.4627C120.093 62.4627 120.253 62.4513 120.425 62.4513L120.448 62.6787C120.276 62.6901 120.127 62.7128 120.012 62.7469C119.898 62.781 119.795 62.8379 119.703 62.9061C119.611 62.9857 119.519 63.088 119.439 63.2131C119.347 63.3381 119.244 63.5087 119.118 63.7247C118.889 64.0999 118.694 64.4409 118.522 64.7252C118.35 65.0208 118.224 65.2595 118.132 65.4414C118.04 65.6233 117.972 65.7711 117.914 65.8848C117.868 65.9985 117.823 66.0895 117.8 66.1804C117.777 66.26 117.765 66.351 117.765 66.4192C117.765 66.4988 117.765 66.5897 117.765 66.7034V68.0223C117.765 68.1246 117.777 68.2155 117.788 68.2837C117.811 68.352 117.846 68.4202 117.914 68.4657C117.972 68.5111 118.075 68.5452 118.201 68.568C118.327 68.5907 118.499 68.6134 118.728 68.6134L118.717 68.8522C118.625 68.8522 118.522 68.8522 118.396 68.8522C118.27 68.8522 118.155 68.8522 118.029 68.8522C117.903 68.8522 117.777 68.8522 117.651 68.8522C117.525 68.8522 117.41 68.8522 117.307 68.8522C117.215 68.8522 117.123 68.8522 117.009 68.8522C116.905 68.8522 116.791 68.8522 116.688 68.8522C116.584 68.8522 116.47 68.8522 116.367 68.8522C116.263 68.8522 116.16 68.8522 116.08 68.8522L116.057 68.6248C116.263 68.6134 116.424 68.5907 116.55 68.568C116.676 68.5452 116.768 68.4998 116.837 68.4315C116.894 68.3747 116.94 68.2837 116.963 68.1814C116.986 68.0791 116.997 67.9427 116.997 67.7721V66.7603H117.02ZM124.346 66.999C124.438 67.2264 124.529 67.4424 124.633 67.6357C124.736 67.829 124.85 67.9995 124.999 68.1473C125.137 68.2951 125.309 68.4088 125.492 68.4884C125.676 68.568 125.905 68.6134 126.169 68.6134C126.341 68.6134 126.501 68.5793 126.65 68.5225C126.799 68.4656 126.926 68.3861 127.04 68.2724C127.155 68.17 127.235 68.045 127.304 67.8972C127.373 67.7494 127.396 67.5902 127.396 67.4197C127.396 67.2037 127.361 67.0104 127.27 66.8626C127.189 66.7034 127.086 66.5784 126.949 66.4647C126.811 66.351 126.662 66.2486 126.49 66.1691C126.318 66.0895 126.146 65.9985 125.963 65.9189C125.756 65.828 125.561 65.737 125.355 65.6233C125.149 65.521 124.965 65.396 124.805 65.2482C124.644 65.1003 124.507 64.9298 124.403 64.7365C124.3 64.5433 124.254 64.3159 124.254 64.0544C124.254 63.7701 124.312 63.5314 124.426 63.3154C124.541 63.0994 124.69 62.9175 124.885 62.7697C125.08 62.6219 125.309 62.5082 125.561 62.4399C125.825 62.3604 126.089 62.3263 126.387 62.3263C126.673 62.3263 126.926 62.349 127.166 62.3945C127.407 62.4399 127.659 62.4968 127.934 62.565C127.923 62.7128 127.912 62.8379 127.9 62.9629C127.889 63.088 127.889 63.2017 127.877 63.3267C127.877 63.4518 127.877 63.5655 127.866 63.6906C127.866 63.8156 127.866 63.9407 127.866 64.0885L127.579 64.1112C127.533 63.6451 127.396 63.2813 127.143 63.0539C126.891 62.8151 126.559 62.7014 126.134 62.7014C125.974 62.7014 125.825 62.7242 125.687 62.7697C125.55 62.8151 125.435 62.8947 125.332 62.9857C125.229 63.0766 125.16 63.1903 125.103 63.3154C125.045 63.4404 125.022 63.5882 125.022 63.7474C125.022 63.9634 125.057 64.134 125.126 64.2818C125.194 64.4296 125.286 64.5546 125.412 64.6569C125.527 64.7593 125.676 64.8616 125.836 64.9298C125.997 65.0094 126.157 65.089 126.341 65.1572C126.559 65.2481 126.777 65.3505 126.994 65.4642C127.212 65.5779 127.407 65.7029 127.579 65.8621C127.751 66.0099 127.889 66.1918 128.003 66.3851C128.106 66.5897 128.164 66.8171 128.164 67.09C128.164 67.3856 128.106 67.6584 127.98 67.8972C127.854 68.1246 127.694 68.3292 127.487 68.4884C127.281 68.6589 127.04 68.7726 126.777 68.8636C126.501 68.9432 126.226 68.9886 125.951 68.9886C125.71 68.9886 125.447 68.9659 125.183 68.909C124.919 68.8636 124.633 68.7954 124.346 68.7044C124.312 68.4088 124.277 68.1359 124.231 67.8744C124.186 67.613 124.128 67.3401 124.048 67.0445L124.346 66.999ZM130.56 68.0109C130.56 68.1132 130.571 68.2042 130.583 68.2837C130.594 68.352 130.64 68.4202 130.697 68.4657C130.766 68.5111 130.869 68.5566 131.007 68.5793C131.145 68.6021 131.339 68.6248 131.58 68.6248L131.569 68.8636C131.328 68.8636 131.076 68.8636 130.812 68.8522C130.548 68.8522 130.308 68.8408 130.09 68.8408C130.01 68.8408 129.906 68.8408 129.803 68.8408C129.7 68.8408 129.597 68.8408 129.494 68.8408C129.39 68.8408 129.299 68.8408 129.207 68.8408C129.115 68.8408 129.035 68.8408 128.978 68.8408L128.966 68.6134C129.138 68.6021 129.276 68.5793 129.39 68.5452C129.494 68.5111 129.574 68.4657 129.631 68.4088C129.689 68.352 129.723 68.261 129.746 68.1587C129.769 68.0564 129.78 67.9199 129.78 67.7494V63.2585C129.78 63.1562 129.769 63.0653 129.757 62.9857C129.734 62.9175 129.7 62.8606 129.643 62.8151C129.585 62.7697 129.505 62.7355 129.39 62.7128C129.276 62.6901 129.127 62.6787 128.943 62.6673L128.955 62.4286C129.024 62.4286 129.115 62.4286 129.207 62.4286C129.299 62.4286 129.402 62.4286 129.517 62.4286C129.631 62.4286 129.746 62.4286 129.861 62.4286C129.975 62.4286 130.09 62.4286 130.204 62.4286C130.365 62.4286 130.548 62.4172 130.755 62.3945C130.961 62.3717 131.167 62.3604 131.362 62.3604C131.683 62.3604 131.981 62.3945 132.268 62.4513C132.555 62.5082 132.818 62.6105 133.025 62.7583C133.243 62.9061 133.415 63.088 133.552 63.3154C133.678 63.5541 133.747 63.8384 133.747 64.1794C133.747 64.5205 133.678 64.8161 133.541 65.0662C133.403 65.3164 133.22 65.5324 132.99 65.7029C132.773 65.8735 132.52 65.9985 132.234 66.0781C131.959 66.1577 131.672 66.2032 131.397 66.2032C131.225 66.2032 131.064 66.1918 130.915 66.1691C130.755 66.1463 130.64 66.1122 130.548 66.0781V68.0109H130.56ZM130.56 65.8052C130.663 65.8393 130.778 65.8621 130.892 65.8735C131.007 65.8848 131.145 65.8962 131.282 65.8962C131.454 65.8962 131.638 65.8735 131.821 65.8166C132.004 65.7598 132.176 65.6688 132.325 65.5438C132.474 65.4187 132.601 65.2482 132.704 65.0435C132.807 64.8389 132.853 64.5774 132.853 64.259C132.853 63.7474 132.715 63.3722 132.429 63.1221C132.153 62.8833 131.764 62.7583 131.259 62.7583C131.099 62.7583 130.984 62.7697 130.892 62.781C130.801 62.8038 130.732 62.8265 130.686 62.8606C130.64 62.8947 130.606 62.9516 130.594 63.0084C130.583 63.0653 130.571 63.1448 130.571 63.2358V65.8052H130.56ZM137.657 66.4874H135.421L134.905 67.8062C134.802 68.0564 134.767 68.2155 134.767 68.2837C134.767 68.3974 134.825 68.477 134.928 68.5225C135.031 68.568 135.237 68.5907 135.513 68.6134L135.49 68.8522C135.329 68.8522 135.134 68.8522 134.928 68.8408C134.722 68.8408 134.515 68.8295 134.309 68.8295C134.148 68.8295 133.976 68.8295 133.793 68.8408C133.621 68.8408 133.449 68.8522 133.277 68.8522L133.266 68.6248C133.437 68.6134 133.587 68.5907 133.701 68.5566C133.816 68.5339 133.908 68.477 133.988 68.3974C134.068 68.3178 134.148 68.2155 134.229 68.0791C134.297 67.9427 134.389 67.7608 134.492 67.5334L136.35 63.0198C136.407 62.8833 136.464 62.7696 136.521 62.6673C136.579 62.565 136.636 62.4513 136.682 62.3376L137.106 62.2808C137.152 62.4968 137.209 62.6901 137.267 62.872C137.324 63.0539 137.37 63.2131 137.427 63.3609L138.941 67.7039C139.009 67.8972 139.067 68.0564 139.124 68.1587C139.181 68.2724 139.239 68.3633 139.307 68.4202C139.376 68.477 139.468 68.5225 139.583 68.5452C139.697 68.568 139.835 68.5907 140.007 68.6021L139.984 68.8408C139.8 68.8408 139.594 68.8408 139.365 68.8295C139.135 68.8295 138.906 68.8181 138.688 68.8181C138.505 68.8181 138.31 68.8181 138.115 68.8295C137.92 68.8295 137.737 68.8408 137.542 68.8408L137.519 68.6134C137.771 68.5907 137.955 68.568 138.058 68.5225C138.161 68.477 138.218 68.3974 138.218 68.2837C138.218 68.2383 138.207 68.17 138.195 68.1132C138.172 68.045 138.15 67.9768 138.127 67.8972L137.657 66.4874ZM135.57 66.1008H137.53L136.648 63.4632H136.625L135.57 66.1008ZM110.244 35.7563L110.256 35.7677L110.267 35.779L110.29 35.8018L110.313 35.8245L110.325 35.8359L110.336 35.8473L110.348 35.8586L110.359 35.87L110.371 35.8814L110.382 35.8927L110.393 35.9041L110.405 35.9155L110.416 35.9268L110.428 35.9382L110.439 35.9496L110.451 35.9609L110.474 35.9723L110.485 35.9837L110.497 35.9951L110.52 36.0064L110.531 36.0178L110.554 36.0405L110.565 36.0519L110.588 36.0633L110.6 36.0746L110.623 36.086L110.646 36.0974L110.669 36.1088L110.68 36.1201L110.703 36.1315L110.715 36.1429L110.737 36.1542L110.749 36.1656H110.76L110.783 36.177L110.806 36.1883H110.818L110.841 36.1997H110.852L110.875 36.2111H110.886L110.921 36.2224H110.932L110.967 36.2338H110.978L111.013 36.2452L111.047 36.2566L111.081 36.2679H111.093H111.116H111.127H111.15H111.162H111.173H111.207H111.242H111.253H111.288H111.334H111.368H111.379H111.414H111.448H111.46H111.494H111.54H111.574H111.586C111.609 36.2679 111.632 36.2566 111.666 36.2566H111.678H111.7H111.712H111.746H111.758L111.792 36.2452L111.827 36.2338H111.838L111.861 36.2224H111.872H111.884H111.907H111.918L111.941 36.2111H111.953L111.987 36.1997L112.021 36.1883L112.044 36.177H112.056L112.079 36.1656L112.102 36.1542H112.113L112.136 36.1429H112.148L112.171 36.1315L112.182 36.1201L112.205 36.1088L112.216 36.0974L112.239 36.086L112.251 36.0746L112.274 36.0633L112.297 36.0519H112.308L112.331 36.0405L112.354 36.0292L112.377 36.0178L112.388 36.0064L112.411 35.9951H112.423L112.434 35.9837L112.446 35.9723L112.457 35.9609L112.469 35.9496L112.48 35.9382L112.492 35.9268L112.503 35.9155L112.514 35.9041L112.537 35.8814L112.56 35.8586H112.572L112.583 35.8473L112.595 35.8359L112.606 35.8245C112.87 35.5403 113.03 35.1537 113.03 34.7331C113.03 34.3124 112.87 33.9258 112.606 33.6416V33.6303L112.595 33.6189L112.583 33.6075L112.56 33.5848L112.537 33.562L112.514 33.5393L112.503 33.5279L112.48 33.5052H112.469L112.446 33.4825L112.434 33.4711L112.411 33.4483L112.388 33.4256L112.354 33.4029C112.331 33.3915 112.308 33.3801 112.297 33.3574H112.285L112.262 33.346L112.239 33.3347H112.228C112.205 33.3233 112.182 33.3119 112.171 33.3005L112.136 33.2892L112.102 33.2778L112.067 33.2664L112.033 33.2551L111.999 33.2437H111.987L111.953 33.2323H111.941L111.907 33.221L111.872 33.2096H111.861H111.849L111.815 33.1982L111.781 33.1868L111.746 33.1755L111.712 33.1641H111.7H111.666H111.655H111.62H111.586C111.551 33.1641 111.506 33.1527 111.471 33.1527H111.46H111.425H111.391H111.379H111.345H111.311H111.299C111.288 33.1527 111.276 33.1527 111.265 33.1527C111.242 33.1527 111.207 33.1641 111.185 33.1641H111.15L111.116 33.1755H111.104L111.07 33.1868L111.036 33.1982H111.024L111.001 33.2096H110.99L110.967 33.221H110.955L110.932 33.2323H110.921L110.898 33.2437H110.886H110.875L110.852 33.2551H110.841L110.818 33.2664L110.795 33.2778L110.772 33.2892L110.749 33.3005H110.737L110.715 33.3119H110.703H110.692L110.669 33.3233H110.657L110.634 33.3347L110.611 33.346L110.588 33.3574L110.6 33.2778L110.577 33.2892L110.565 33.3005L110.543 33.3119L110.531 33.3233H110.52L110.497 33.3347H110.485L110.462 33.346V33.3688L110.451 33.3801L110.439 33.3915L110.428 33.4029L110.416 33.4142L110.405 33.4256L110.393 33.437L110.382 33.4483L110.371 33.4597L110.359 33.4711L110.348 33.4825L110.336 33.4938V33.5052L110.325 33.5166L110.313 33.5279V33.5393L110.302 33.5507C110.038 33.8349 109.878 34.2215 109.878 34.6421C109.82 35.0855 109.981 35.4721 110.244 35.7563ZM95.8218 29.651C99.2842 28.7301 101.508 26.3994 106.954 28.8438C107.573 29.128 108.135 29.435 108.685 29.6738C108.765 29.7079 108.846 29.742 108.926 29.7761C108.857 29.3213 108.937 28.8097 109.213 28.264C109.304 28.0821 109.43 27.9229 109.568 27.7751C105.395 28.2412 101.669 27.127 98.539 23.8754C94.8703 20.0781 93.5633 15.0643 93.976 9.93673C97.5989 9.65249 101.164 10.1982 104.294 11.8127C104.638 9.81167 105.338 7.92437 106.301 6.18487C105.085 5.49135 103.744 4.9911 102.334 4.65003C101.623 6.35541 101.199 8.14038 101.164 9.91399C100.671 9.78893 100.178 9.6866 99.674 9.59565C99.6511 7.16263 100.201 4.71824 101.176 2.37617C103.32 2.87642 105.326 3.69501 107.115 4.8433C108.295 3.04696 109.786 1.43253 111.483 0C113.179 1.43253 114.658 3.05833 115.851 4.85467C117.628 3.70637 119.657 2.88779 121.789 2.37617C122.764 4.70687 123.314 7.15126 123.291 9.59565C122.787 9.6866 122.282 9.78893 121.801 9.91399C121.766 8.12901 121.354 6.35541 120.631 4.65003C119.221 4.97973 117.868 5.49135 116.653 6.18487C117.616 7.92437 118.304 9.81167 118.66 11.8127C121.789 10.1982 125.366 9.64113 128.989 9.93673C129.402 15.0643 128.095 20.0895 124.426 23.8754C121.285 27.1157 117.57 28.2299 113.386 27.7751C113.523 27.9115 113.649 28.0821 113.741 28.264C114.028 28.8211 114.108 29.3327 114.028 29.7761C114.108 29.742 114.188 29.7079 114.269 29.6738C114.819 29.435 115.381 29.1167 116 28.8438C121.457 26.4108 123.681 28.7301 127.132 29.651C124.105 34.6876 117.375 34.7899 117.249 31.2768C117.284 30.9244 117.788 30.7538 117.995 31.4246C118.763 33.9259 123.624 32.3683 124.426 30.2763C124.426 30.2763 122.248 28.48 119.29 28.9461C117.261 29.2645 115.919 30.2081 114.131 31.004C113.546 31.2654 112.973 31.4474 112.4 31.5611C112.079 31.6293 111.769 31.652 111.46 31.6406C111.162 31.652 110.841 31.6293 110.52 31.5611C109.946 31.4474 109.373 31.2654 108.8 31.004C107.011 30.2081 105.67 29.2645 103.641 28.9461C100.683 28.48 98.5046 30.2763 98.5046 30.2763C99.3071 32.3683 104.18 33.9259 104.936 31.4246C105.143 30.7538 105.647 30.9357 105.681 31.2768C105.578 34.7899 98.8371 34.6876 95.8218 29.651ZM110.462 30.1967L110.474 30.2081L110.485 30.2195L110.497 30.2308L110.508 30.2422L110.52 30.2536L110.531 30.2649L110.543 30.2763L110.554 30.2877L110.565 30.2991L110.577 30.3104L110.588 30.3218H110.6L110.611 30.3332L110.623 30.3445L110.634 30.3559L110.646 30.3673L110.657 30.3786L110.669 30.39L110.68 30.4014L110.692 30.4128L110.703 30.4241L110.715 30.4355L110.726 30.4469L110.737 30.4582L110.749 30.4696H110.76H110.772L110.783 30.481H110.795L110.818 30.4923L110.829 30.5037L110.841 30.5151L110.852 30.5264L110.864 30.5378L110.875 30.5492L110.886 30.5606L110.898 30.5719L110.909 30.5833H110.921H110.932H110.944H110.955H110.967H110.99H111.001H111.013H111.024H111.036H111.047H111.058H111.07H111.081H111.093H111.104H111.127H111.139H111.162H111.173H111.185H111.196H111.207H111.23H111.242H111.253H111.276H111.288H111.299H111.322H111.334H111.357H111.379H111.402H111.425H111.437H111.46H111.471H111.494H111.506H111.517H111.54H111.551H111.563H111.586H111.597H111.609H111.632H111.643H111.655H111.666H111.678H111.7H111.712H111.723H111.735H111.758H111.769H111.781H111.792H111.804H111.815H111.838H111.849H111.861H111.872H111.884H111.895L111.907 30.5719L111.918 30.5606L111.93 30.5492L111.941 30.5378L111.953 30.5264L111.964 30.5151L111.976 30.5037L111.987 30.4923H111.999L112.021 30.481H112.033L112.056 30.4696H112.067L112.079 30.4582L112.102 30.4469L112.113 30.4355L112.125 30.4241L112.136 30.4128L112.148 30.4014L112.159 30.39L112.171 30.3786L112.182 30.3673L112.193 30.3559L112.205 30.3445L112.216 30.3332H112.228L112.239 30.3218H112.251L112.262 30.3104L112.274 30.2991L112.285 30.2877L112.297 30.2763L112.308 30.2649L112.32 30.2536L112.331 30.2422L112.342 30.2308L112.354 30.2195L112.365 30.2081C112.583 29.9694 112.721 29.651 112.721 29.3099C112.721 28.9575 112.583 28.6505 112.365 28.4118L112.354 28.4004L112.342 28.389L112.331 28.3777L112.32 28.3663L112.308 28.3549L112.297 28.3436L112.274 28.3208L112.262 28.3094H112.251L112.239 28.2981L112.228 28.2867L112.216 28.2753L112.205 28.264L112.193 28.2526L112.182 28.2412L112.171 28.2299L112.159 28.2185L112.148 28.2071L112.136 28.1957L112.125 28.1844L112.113 28.173L112.102 28.1616L112.09 28.1503H112.079L112.067 28.1389H112.056H112.044L112.033 28.1275H112.021H112.01L111.999 28.1162H111.987L111.976 28.1048L111.941 28.0934L111.93 28.0821H111.918L111.907 28.0707H111.895L111.884 28.0593H111.872H111.861H111.849H111.838H111.827H111.815H111.804H111.792L111.781 28.0479H111.769H111.758H111.735H111.723H111.7L111.666 28.0366H111.655H111.643H111.62H111.609H111.597H111.574H111.563H111.551H111.528H111.517H111.506H111.483H111.471H111.46H111.437H111.425H111.402H111.391H111.368H111.345H111.322H111.299H111.288H111.276H111.265H111.253H111.23H111.219H111.207H111.185H111.173H111.162H111.15H111.139H111.116H111.104H111.081L111.047 28.0479H111.036H111.024H111.013H111.001L110.978 28.0593H110.967H110.955H110.944H110.932H110.921H110.909H110.898H110.886L110.875 28.0707H110.864L110.852 28.0821H110.841L110.829 28.0934L110.818 28.1048L110.806 28.1162L110.795 28.1275H110.783L110.772 28.1389H110.76H110.749L110.737 28.1503H110.726H110.715L110.703 28.1616H110.692L110.68 28.173L110.669 28.1844L110.657 28.1957L110.646 28.2071L110.634 28.2185L110.623 28.2299L110.611 28.2412L110.6 28.2526L110.588 28.264L110.577 28.2753L110.565 28.2867L110.554 28.2981L110.543 28.3094L110.531 28.3208H110.52L110.508 28.3322H110.497L110.485 28.3436L110.474 28.3549L110.462 28.3663L110.451 28.3777L110.439 28.389L110.428 28.4004L110.416 28.4118L110.405 28.4231C110.187 28.6619 110.05 28.9802 110.05 29.3213C110.118 29.6396 110.244 29.958 110.462 30.1967ZM118.831 13.393C118.854 13.7454 118.877 14.0979 118.889 14.4503C118.992 19.1686 117.169 22.7954 113.89 25.6149C117.536 26.2743 120.78 25.5012 123.463 22.7271C126.318 19.7711 127.338 15.8601 127.017 11.8695C124.128 11.6307 121.308 12.0855 118.831 13.393ZM105.796 12.6881C106.576 13.1997 107.321 13.7909 108.02 14.4617C109.717 16.0761 110.841 17.8384 111.46 19.7484C112.079 17.8384 113.202 16.0761 114.899 14.4617C115.598 13.8023 116.344 13.2111 117.112 12.6995C116.573 8.85665 114.452 5.57093 111.46 3.03559C108.467 5.55956 106.335 8.84528 105.796 12.6881ZM117.249 14.3935C116.837 14.7004 116.447 15.0302 116.068 15.394C113.672 17.6678 112.755 20.3282 112.95 23.3183C115.725 21.09 117.295 18.2022 117.249 14.3935ZM105.67 14.3821C106.083 14.6891 106.484 15.0188 106.862 15.3826C109.258 17.6565 110.176 20.3282 109.981 23.3183C107.195 21.1013 105.613 18.2022 105.67 14.3821Z" fill="white"/>
<path fill-rule="evenodd" clip-rule="evenodd" d="M3.00374 47.5916C3.00374 48.9445 3.17573 50.2179 3.51967 51.4116C3.86361 52.6054 4.37953 53.6286 5.06741 54.5154C5.75529 55.4022 6.62658 56.1071 7.6584 56.6188C8.69023 57.1304 9.91696 57.3805 11.3271 57.3805C12.0953 57.3805 12.8404 57.2782 13.5283 57.0735C14.2277 56.8575 14.8582 56.5164 15.3971 56.0389C15.9015 55.5955 16.3601 55.0384 16.727 54.379C17.0938 53.731 17.4722 52.9465 17.8505 52.0597L18.6989 52.2643C18.4581 53.1966 18.2632 54.072 18.1257 54.8906C17.9881 55.7092 17.862 56.5733 17.7588 57.5056C16.6353 57.8353 15.5232 58.0854 14.4226 58.2673C13.322 58.4492 12.2214 58.5515 11.1093 58.5515C9.50423 58.5515 8.01381 58.29 6.66098 57.8125C5.30815 57.3237 4.12729 56.6188 3.15279 55.7206C2.16683 54.8224 1.3987 53.731 0.836935 52.4576C0.28663 51.1843 0 49.7631 0 48.2055C0 46.3978 0.332482 44.8288 1.0089 43.4873C1.67385 42.1457 2.57956 41.0201 3.72602 40.122C4.86103 39.2238 6.19092 38.5416 7.6928 38.1096C9.19467 37.6662 10.7883 37.4502 12.4621 37.4502C13.3334 37.4502 14.2621 37.5184 15.248 37.6435C16.2225 37.7685 17.1512 37.9504 17.9996 38.1665C17.9079 39.0646 17.862 39.9287 17.8391 40.7359C17.8161 41.5431 17.8161 42.4072 17.8161 43.3054L16.9219 43.3963C16.8646 42.5664 16.6926 41.8387 16.4174 41.2362C16.1423 40.6222 15.764 40.122 15.3054 39.7127C14.8468 39.3148 14.3079 39.0078 13.7003 38.8259C13.0927 38.644 12.4162 38.5417 11.7054 38.5417C10.2838 38.5417 9.03418 38.769 7.9565 39.2124C6.89028 39.6558 5.97311 40.2698 5.23937 41.0656C4.50563 41.8615 3.94385 42.8279 3.57698 43.942C3.19864 44.9994 3.00374 46.2386 3.00374 47.5916ZM107.596 57.3919C108.146 57.3578 108.594 57.2782 108.937 57.1986C109.281 57.1076 109.545 56.9598 109.74 56.7779C109.935 56.5846 110.061 56.3232 110.13 56.0048C110.199 55.6751 110.233 55.2431 110.233 54.6974V41.2475C110.233 40.7132 110.187 40.2698 110.13 39.9401C110.061 39.6217 109.935 39.3489 109.74 39.167C109.557 38.9737 109.281 38.8372 108.937 38.7349C108.594 38.644 108.158 38.5758 107.596 38.5417L107.665 37.8254C107.86 37.8254 108.112 37.8254 108.399 37.8368C108.685 37.8481 108.995 37.8481 109.316 37.8481C110.68 37.8481 112.056 37.8481 113.42 37.8481C113.81 37.8481 114.165 37.8368 114.509 37.8368C114.853 37.8254 115.128 37.8254 115.358 37.8254V38.5871C114.762 38.6212 114.291 38.6667 113.936 38.7349C113.581 38.8031 113.306 38.9168 113.122 39.0533C112.939 39.2011 112.824 39.3943 112.767 39.6217C112.721 39.8377 112.686 40.122 112.675 40.4517V40.463V55.4705V55.4818C112.675 55.8115 112.709 56.0844 112.767 56.3118C112.824 56.5278 112.939 56.7211 113.122 56.8803C113.317 57.0281 113.581 57.1304 113.936 57.1986C114.291 57.2668 114.762 57.3237 115.358 57.3464V58.1081C115.128 58.1081 114.853 58.1081 114.509 58.0968C114.165 58.0854 113.798 58.0854 113.42 58.0854C112.056 58.0854 110.68 58.0854 109.316 58.0854C108.983 58.0854 108.685 58.0968 108.399 58.0968C108.112 58.1081 107.86 58.1081 107.665 58.1081L107.596 57.3919ZM58.9171 54.6633C58.9171 55.1408 58.9514 55.5387 59.0088 55.857C59.0661 56.164 59.2037 56.4027 59.3985 56.5847C59.582 56.7552 59.8572 56.8803 60.2011 56.9485C60.545 57.0167 61.0151 57.0508 61.5998 57.0508H63.159C63.9844 57.0508 64.6494 56.9826 65.1768 56.8575C65.6927 56.7211 66.1283 56.4937 66.4837 56.1754C66.8391 55.857 67.1601 55.4364 67.4238 54.9247C67.699 54.4018 68.0085 53.7537 68.3296 53.0033L69.155 53.1966C69.0404 53.6059 68.9372 54.0493 68.834 54.5041C68.7308 54.9588 68.6391 55.425 68.5588 55.8798C68.4786 56.3345 68.3983 56.7552 68.3525 57.1531C68.2951 57.551 68.2607 57.8807 68.2378 58.1309C65.406 58.1309 63.1246 58.1195 61.3705 58.1081C59.6164 58.0968 58.3094 58.0854 57.4381 58.0854C57.1859 58.0854 56.8763 58.0968 56.5324 58.0968C56.1884 58.1081 55.8216 58.1081 55.4547 58.1081C55.0878 58.1081 54.721 58.1195 54.377 58.1195C54.0331 58.1309 53.735 58.1309 53.4942 58.1309L53.4255 57.4032C54.0789 57.3691 54.6063 57.3009 55.0076 57.21C55.3974 57.119 55.7069 56.9712 55.9248 56.7893C56.1311 56.6074 56.2802 56.3345 56.3489 56.0162C56.4177 55.6865 56.4636 55.2544 56.4636 54.7087V40.4972C56.4636 40.1561 56.4292 39.8718 56.3719 39.6445C56.3146 39.4171 56.177 39.2352 55.9821 39.0874C55.7872 38.9396 55.512 38.8259 55.1566 38.7577C54.7898 38.6894 54.3082 38.644 53.6891 38.6099L53.7579 37.8481C54.0216 37.8481 54.3426 37.8595 54.6751 37.8595C55.019 37.8595 55.3859 37.8709 55.7299 37.8709C56.0967 37.8709 56.4636 37.8822 56.8075 37.8822C57.1515 37.8936 57.4839 37.8936 57.782 37.8936C58.3323 37.8936 59.5017 37.8822 61.2673 37.8709C63.0443 37.8595 65.3029 37.8481 68.0429 37.8481C67.9512 38.5644 67.8824 39.3261 67.848 40.1106C67.8136 40.8951 67.7793 41.7364 67.7678 42.6232L66.9079 42.646C66.7818 41.907 66.6442 41.3044 66.4837 40.8269C66.3232 40.3494 66.1054 39.9628 65.8188 39.6786C65.5322 39.3943 65.1653 39.1897 64.7182 39.0646C64.2596 38.9396 63.6634 38.8827 62.9526 38.8827H59.903C59.4788 38.8827 59.2037 38.9282 59.0775 39.0078C58.9629 39.0874 58.8941 39.3148 58.8941 39.6558V46.9663L66.2544 46.7502L66.2086 48.6489C64.9131 48.5352 63.6405 48.4556 62.3794 48.4215C61.1183 48.376 59.9603 48.3419 58.8941 48.3192V54.6633H58.9171ZM25.4172 54.6633C25.4172 55.1408 25.4516 55.5387 25.5089 55.857C25.5663 56.164 25.7038 56.4141 25.8987 56.5847C26.0822 56.7552 26.3573 56.8803 26.7013 56.9485C27.0452 57.0167 27.5153 57.0508 28.1 57.0508H29.6591C30.4846 57.0508 31.1496 56.9826 31.6769 56.8575C32.1929 56.7325 32.6285 56.4937 32.9839 56.1754C33.3393 55.857 33.6603 55.4364 33.9355 54.9247C34.2106 54.4018 34.5202 53.7537 34.8412 53.0033L35.6667 53.1966C35.552 53.6059 35.4488 54.0493 35.3456 54.5041C35.2424 54.9588 35.1507 55.425 35.0705 55.8798C34.9788 56.3345 34.91 56.7552 34.8641 57.1531C34.8068 57.551 34.7724 57.8807 34.7495 58.1309C31.9177 58.1309 29.6362 58.1195 27.8821 58.1081C26.128 58.0968 24.821 58.0854 23.9612 58.0854C23.709 58.0854 23.3994 58.0968 23.0555 58.0968C22.7116 58.1081 22.3447 58.1081 21.9778 58.1081C21.611 58.1081 21.2441 58.1195 20.9001 58.1195C20.5562 58.1309 20.2581 58.1309 20.0173 58.1309L19.9486 57.4032C20.602 57.3691 21.1294 57.3009 21.5307 57.21C21.9205 57.119 22.23 56.9712 22.4478 56.7893C22.6542 56.6074 22.8033 56.3345 22.8721 56.0162C22.9409 55.6865 22.9867 55.2544 22.9867 54.7087V40.4972C22.9867 40.1561 22.9523 39.8718 22.895 39.6445C22.8377 39.4284 22.6886 39.2352 22.5052 39.0874C22.3218 38.9396 22.0351 38.8259 21.6797 38.7577C21.3243 38.6894 20.8314 38.644 20.2237 38.6099L20.2925 37.8481C20.5562 37.8481 20.8772 37.8595 21.2097 37.8595C21.5536 37.8595 21.9205 37.8709 22.2644 37.8709C22.6313 37.8709 22.9982 37.8822 23.3421 37.8822C23.6861 37.8936 24.0185 37.8936 24.3166 37.8936C24.8669 37.8936 26.0363 37.8822 27.8019 37.8709C29.5789 37.8595 31.8374 37.8481 34.5775 37.8481C34.4858 38.5644 34.417 39.3261 34.3826 40.1106C34.3482 40.8951 34.3138 41.7364 34.3024 42.6232L33.4425 42.646C33.3164 41.907 33.1788 41.3044 33.0183 40.8269C32.8578 40.3494 32.64 39.9628 32.3534 39.6786C32.0667 39.3943 31.6999 39.1897 31.2528 39.0646C30.7942 38.9396 30.198 38.8827 29.4872 38.8827H26.4376C26.0134 38.8827 25.7382 38.9282 25.6121 39.0078C25.4975 39.0874 25.4287 39.3148 25.4287 39.6558V46.9663L32.789 46.7502L32.7431 48.6489C31.4476 48.5352 30.1751 48.4556 28.9139 48.4215C27.6528 48.376 26.4949 48.3419 25.4287 48.3192V54.6633H25.4172ZM45.0792 38.5417C44.4945 38.5871 44.0244 38.6553 43.6575 38.7463C43.2906 38.8373 43.0155 38.9737 42.8091 39.167C42.6142 39.3602 42.4767 39.6217 42.4079 39.9628C42.3391 40.3039 42.2933 40.7359 42.2933 41.2589V54.6746C42.2933 55.1521 42.3276 55.5501 42.385 55.8684C42.4537 56.1754 42.5799 56.4255 42.7747 56.596C42.9582 56.7666 43.2334 56.8916 43.5773 56.9598C43.9212 57.0281 44.3913 57.0622 44.976 57.0622H46.0881C46.9135 57.0622 47.5899 56.9939 48.1173 56.8689C48.6447 56.7438 49.0803 56.5051 49.4472 56.1867C49.8141 55.8684 50.1236 55.4477 50.3873 54.9361C50.651 54.4131 50.9606 53.7651 51.2816 53.0147L52.0955 53.208C51.9809 53.6173 51.8663 54.0607 51.7745 54.5154C51.6828 54.9702 51.5797 55.4364 51.4994 55.8911C51.4191 56.3459 51.3389 56.7666 51.2816 57.1645C51.2242 57.5624 51.1899 57.8921 51.1784 58.1422H47.9339C46.9938 58.1422 46.1912 58.1422 45.5034 58.1309C44.8269 58.1309 44.2422 58.1195 43.7607 58.1195C43.2792 58.1195 42.855 58.1195 42.4996 58.1081C42.1442 58.0968 41.8232 58.0968 41.5595 58.0968H40.8143C40.5391 58.0968 40.2181 58.1081 39.8742 58.1081C39.5302 58.1081 39.1863 58.1195 38.8538 58.1195C38.5214 58.1195 38.1889 58.1309 37.8908 58.1309C37.5812 58.1422 37.329 58.1422 37.1341 58.1422L37.0653 57.4146C37.65 57.3805 38.1201 57.3123 38.487 57.2213C38.8538 57.1304 39.129 56.9826 39.3353 56.8007C39.5302 56.6188 39.6678 56.3459 39.7366 56.0276C39.8054 55.6979 39.8513 55.2658 39.8513 54.7201V40.5085C39.8513 40.1674 39.8283 39.8832 39.7595 39.6558C39.7022 39.4398 39.5646 39.2465 39.3697 39.0987C39.1863 38.9509 38.8997 38.8372 38.5443 38.769C38.1774 38.7008 37.6959 38.6553 37.0883 38.6212L37.1571 37.8595C37.3864 37.8595 37.673 37.8709 38.0054 37.8709C38.3379 37.8709 38.6933 37.8822 39.0831 37.8822C39.4615 37.8822 39.8627 37.8936 40.2525 37.8936C40.6423 37.905 41.0207 37.905 41.3531 37.905C41.6168 37.905 41.9264 37.905 42.2703 37.8936C42.6142 37.8936 42.9582 37.8822 43.2907 37.8822C43.6232 37.8822 43.9556 37.8822 44.2537 37.8709C44.5518 37.8709 44.804 37.8595 44.9989 37.8595L45.0792 38.5417ZM70.6225 37.8254C70.8518 37.8254 71.1154 37.8368 71.425 37.8368C71.7345 37.8368 72.067 37.8481 72.411 37.8481C72.7664 37.8481 73.1333 37.8595 73.5001 37.8595C73.867 37.8709 74.2339 37.8709 74.5893 37.8709C75.151 37.8709 75.7931 37.8368 76.5039 37.7685C77.2032 37.7003 77.9599 37.6662 78.7395 37.6662C79.6337 37.6662 80.4936 37.7458 81.319 37.9163C82.1445 38.0755 82.8668 38.3484 83.4973 38.7122C84.1279 39.076 84.6323 39.5762 84.9992 40.1788C85.3661 40.7814 85.5495 41.5318 85.5495 42.4186C85.5495 43.1576 85.4119 43.7715 85.1597 44.2831C84.9075 44.8061 84.575 45.2381 84.1967 45.5906C83.8069 45.943 83.3712 46.2273 82.9126 46.4433C82.4426 46.6593 82.0069 46.8412 81.6056 46.9663V47.0572C83.1878 47.296 84.426 47.8644 85.2973 48.7626C86.1686 49.6608 86.5928 50.8659 86.5928 52.3553C86.5928 53.4467 86.3635 54.3563 85.9049 55.118C85.4463 55.8684 84.8387 56.4823 84.0705 56.9598C83.3139 57.4373 82.4426 57.7898 81.4796 58.0058C80.5051 58.2218 79.5076 58.3355 78.4873 58.3355C78.1548 58.3355 77.8223 58.3241 77.4554 58.29C77.0886 58.2673 76.7332 58.2446 76.3548 58.2105C75.988 58.1763 75.6211 58.1536 75.2542 58.1195C74.8874 58.0854 74.5434 58.074 74.2339 58.074C73.9472 58.074 73.6492 58.0854 73.3281 58.0854C73.0071 58.0968 72.6861 58.0968 72.3537 58.0968C72.0212 58.0968 71.7116 58.1081 71.4136 58.1081C71.1155 58.1195 70.8518 58.1195 70.634 58.1195L70.5651 57.3919C71.1613 57.3578 71.6543 57.2895 72.0097 57.1986C72.3766 57.1076 72.6632 56.9712 72.8696 56.7779C73.0645 56.5846 73.202 56.3118 73.2594 55.9935C73.3281 55.6637 73.3511 55.2317 73.3511 54.686V40.4744C73.3511 40.1333 73.3281 39.8491 73.2594 39.6217C73.202 39.3943 73.0759 39.2124 72.8925 39.0646C72.6976 38.9168 72.4224 38.8031 72.0556 38.7349C71.6887 38.6667 71.1957 38.6212 70.5881 38.5871L70.6225 37.8254ZM75.8275 54.8793C75.8275 55.334 75.8504 55.7206 75.8963 56.0276C75.9536 56.3345 76.0682 56.5733 76.2631 56.7438C76.4465 56.9144 76.7332 57.0281 77.1115 57.0849C77.4898 57.1531 78.0172 57.1759 78.6707 57.1759C80.1726 57.1759 81.3649 56.8007 82.2591 56.0617C83.1649 55.3113 83.612 54.2085 83.612 52.7418C83.612 51.8892 83.4629 51.1388 83.1649 50.5135C82.8668 49.8882 82.4426 49.3765 81.9152 48.9673C81.3878 48.5693 80.7458 48.2737 80.0006 48.0805C79.2554 47.8872 78.4185 47.7962 77.5128 47.7962H75.816V54.8793H75.8275ZM75.8275 46.7275H77.593C79.3586 46.7275 80.6426 46.3864 81.4681 45.727C82.2821 45.0676 82.6948 44.0671 82.6948 42.7596C82.6948 42.2821 82.626 41.8046 82.4884 41.3271C82.3509 40.861 82.1216 40.4289 81.7662 40.0538C81.4222 39.6672 80.9292 39.3602 80.3101 39.1215C79.6796 38.8827 78.8885 38.7577 77.9026 38.7577C77.3981 38.7577 76.9969 38.8031 76.7102 38.86C76.4236 38.9168 76.2287 39.0192 76.0911 39.1328C75.965 39.2465 75.8848 39.4057 75.8619 39.5762C75.8389 39.7582 75.8389 39.9514 75.8389 40.1788V46.7275H75.8275ZM92.692 55.425C92.692 55.7661 92.7035 56.0389 92.7379 56.2777C92.7723 56.5051 92.864 56.6983 93.0359 56.8575C93.2079 57.0167 93.4716 57.1304 93.8385 57.21C94.1939 57.2895 94.7098 57.335 95.3747 57.3578V58.1195C94.6869 58.1195 93.999 58.1081 93.2882 58.0968C92.5774 58.0854 91.8895 58.074 91.2016 58.074C90.9264 58.074 90.6398 58.0854 90.3073 58.0854C89.9749 58.0968 89.6539 58.0968 89.3214 58.0968C89.0118 58.0968 88.7138 58.1081 88.4271 58.1081C88.1405 58.1195 87.8998 58.1195 87.7049 58.1195L87.6705 57.3919C88.2208 57.3578 88.6679 57.2782 89.0004 57.1986C89.3329 57.1076 89.5851 56.9598 89.78 56.7779C89.9634 56.5846 90.0895 56.3232 90.1469 56.0048C90.2156 55.6751 90.2386 55.2431 90.2386 54.6974V40.4858C90.2386 40.1447 90.2157 39.8605 90.1583 39.6331C90.101 39.4057 89.9863 39.2238 89.8029 39.076C89.6309 38.9282 89.3558 38.8145 89.0004 38.7463C88.645 38.6781 88.1749 38.6326 87.5788 38.5985L87.6246 37.8368C87.8539 37.8368 88.1176 37.8481 88.4271 37.8481C88.7252 37.8481 89.0577 37.8595 89.4131 37.8595C89.7685 37.8595 90.1239 37.8709 90.4908 37.8709C90.8577 37.8822 91.2131 37.8822 91.557 37.8822C92.1188 37.8822 92.692 37.8481 93.2653 37.7685C93.85 37.7003 94.4347 37.6548 95.0308 37.6548C95.8792 37.6548 96.739 37.7231 97.5874 37.8595C98.4358 38.0073 99.2154 38.2574 99.9033 38.6212C100.591 38.9851 101.153 39.4853 101.577 40.1106C102.001 40.7359 102.219 41.5431 102.219 42.5095C102.219 43.1576 102.105 43.7715 101.91 44.3513C101.703 44.9312 101.417 45.4542 101.038 45.9203C100.671 46.3978 100.236 46.8071 99.7313 47.1709C99.2269 47.5347 98.6651 47.819 98.0575 48.0463C98.5161 48.899 98.9632 49.729 99.3989 50.5135C99.8345 51.3093 100.247 52.0256 100.626 52.685C101.004 53.333 101.348 53.9129 101.646 54.4018C101.955 54.902 102.208 55.2772 102.403 55.5728C102.678 55.9366 102.907 56.2322 103.113 56.4482C103.308 56.6642 103.526 56.8348 103.755 56.9485C103.985 57.0735 104.26 57.1645 104.581 57.2213C104.89 57.2782 105.292 57.335 105.796 57.3691L105.75 58.1309C105.326 58.1309 104.764 58.1195 104.076 58.1081C103.389 58.0968 102.724 58.0854 102.082 58.0854C101.887 58.0854 101.669 58.0968 101.44 58.0968C101.199 58.1081 100.992 58.1081 100.786 58.1309C100.649 57.8353 100.419 57.4032 100.121 56.8348C99.823 56.2663 99.4676 55.5955 99.0549 54.8452C98.6422 54.0948 98.1951 53.2762 97.6906 52.3894C97.1976 51.5026 96.6817 50.6044 96.1429 49.6835C96.0512 49.5471 95.9709 49.4107 95.8907 49.297C95.8104 49.1833 95.7072 49.0923 95.5926 49.0127C95.4665 48.9331 95.3059 48.8763 95.111 48.8308C94.9161 48.7853 94.641 48.7626 94.32 48.7626H93.6894C93.5748 48.7626 93.4372 48.7626 93.2653 48.7512C93.1047 48.7399 92.9098 48.7285 92.6805 48.7171V55.425H92.692ZM92.692 47.6939C92.8067 47.7053 92.9213 47.7166 93.0359 47.728C93.1506 47.7394 93.2653 47.7394 93.3799 47.7394H94.0563C95.7302 47.7394 97.0257 47.3642 97.9428 46.6024C98.86 45.8407 99.3186 44.6128 99.3186 42.9074C99.3186 41.4635 98.8829 40.4176 98.0116 39.7582C97.1403 39.0987 95.9709 38.7577 94.5264 38.7577C94.0792 38.7577 93.7353 38.8031 93.4945 38.8827C93.2423 38.9509 93.0704 39.076 92.9442 39.2238C92.8296 39.3716 92.7608 39.5763 92.7379 39.7923C92.715 40.0197 92.692 40.2698 92.692 40.554V47.6939ZM125.71 37.8709C126.192 37.8709 126.811 37.8709 127.568 37.8595C128.313 37.8595 129.081 37.8481 129.849 37.8481C130.629 37.8481 131.443 37.8481 132.28 37.8368C133.128 37.8368 133.965 37.8254 134.813 37.8254C134.767 38.3256 134.733 38.7804 134.699 39.1897C134.664 39.6104 134.63 40.0196 134.607 40.4176C134.584 40.8155 134.573 41.2248 134.561 41.6341C134.55 42.032 134.55 42.4868 134.55 42.9643L133.747 43.0098C133.621 42.248 133.472 41.6113 133.323 41.0884C133.174 40.5654 132.956 40.1333 132.681 39.8036C132.394 39.4739 132.016 39.2352 131.534 39.0987C131.053 38.9623 130.411 38.8941 129.62 38.8941H127.189V55.4818C127.189 55.8115 127.224 56.1071 127.281 56.3232C127.338 56.5505 127.464 56.7325 127.671 56.8916C127.866 57.0394 128.175 57.1417 128.576 57.21C128.978 57.2782 129.54 57.335 130.227 57.3578L130.182 58.1195C129.883 58.1195 129.551 58.1195 129.173 58.1081C128.794 58.1081 128.405 58.0968 128.015 58.0968C127.613 58.0968 127.224 58.0968 126.834 58.0854C126.444 58.0854 126.077 58.074 125.733 58.074C125.447 58.074 125.137 58.0854 124.805 58.0854C124.472 58.0854 124.128 58.0968 123.784 58.0968C123.452 58.0968 123.108 58.1081 122.764 58.1081C122.42 58.1195 122.122 58.1195 121.847 58.1195L121.778 57.3919C122.431 57.3578 122.959 57.2895 123.36 57.1986C123.761 57.119 124.059 56.9712 124.254 56.7779C124.449 56.5846 124.587 56.3118 124.644 55.9935C124.713 55.6637 124.736 55.2317 124.736 54.686V38.8827H122.374C121.583 38.8827 120.93 38.9509 120.448 39.0874C119.966 39.2238 119.565 39.4626 119.267 39.7923C118.969 40.122 118.751 40.554 118.591 41.077C118.442 41.6 118.293 42.2367 118.167 42.9984L117.364 42.9529V41.6227C117.364 40.986 117.353 40.3835 117.33 39.8036C117.307 39.2238 117.261 38.5644 117.192 37.814C118.04 37.814 118.889 37.8254 119.714 37.8254C120.528 37.8254 121.331 37.8368 122.099 37.8368C122.867 37.8368 123.543 37.8481 124.117 37.8481C124.667 37.8709 125.217 37.8709 125.71 37.8709ZM145.086 51.4799C145.086 51.0706 145.074 50.7181 145.063 50.4339C145.051 50.1497 145.005 49.8541 144.925 49.5698C144.856 49.2856 144.73 48.9559 144.581 48.6375C144.421 48.2965 144.203 47.8758 143.916 47.3642C143.538 46.682 143.068 45.8748 142.518 44.9084C141.967 43.9534 141.279 42.7824 140.442 41.4067C140.11 40.861 139.823 40.4062 139.594 40.0651C139.365 39.724 139.113 39.4398 138.849 39.2352C138.585 39.0305 138.276 38.8827 137.92 38.7918C137.565 38.7008 137.118 38.6326 136.556 38.5871L136.602 37.8254C137.198 37.8254 137.863 37.8368 138.574 37.8481C139.296 37.8595 140.018 37.8709 140.741 37.8709C141.337 37.8709 141.944 37.8595 142.563 37.8481C143.183 37.8368 143.79 37.8254 144.386 37.8254L144.444 38.5417C143.675 38.5985 143.148 38.6894 142.862 38.8145C142.575 38.9396 142.426 39.1329 142.426 39.383C142.426 39.5535 142.483 39.7468 142.575 39.9742C142.667 40.2016 142.804 40.4858 142.976 40.8041L146.851 47.8758L150.6 41.1566C150.829 40.7473 151.001 40.4062 151.128 40.1333C151.242 39.8605 151.311 39.6217 151.311 39.4285C151.311 39.1556 151.15 38.9737 150.829 38.8486C150.508 38.7349 149.947 38.644 149.133 38.5871L149.179 37.8254C149.706 37.8254 150.256 37.8368 150.841 37.8481C151.426 37.8595 152.033 37.8709 152.675 37.8709C153.203 37.8709 153.741 37.8595 154.303 37.8481C154.865 37.8368 155.415 37.8254 155.931 37.8254L156 38.5417C155.45 38.5871 154.991 38.6553 154.624 38.7463C154.269 38.8373 153.936 39.0192 153.661 39.2579C153.375 39.4967 153.088 39.8264 152.824 40.2243C152.549 40.6336 152.205 41.1679 151.815 41.8274C151.093 43.0211 150.463 44.0898 149.935 45.0108C149.408 45.9317 148.995 46.6934 148.697 47.2846C148.399 47.8644 148.17 48.3306 148.021 48.6717C147.86 49.0241 147.745 49.3311 147.677 49.6039C147.608 49.8768 147.562 50.1269 147.562 50.377C147.551 50.6158 147.551 50.9341 147.551 51.2752V55.4591C147.551 55.7888 147.585 56.0844 147.642 56.3004C147.7 56.5278 147.826 56.7097 148.032 56.8689C148.227 57.0167 148.537 57.119 148.938 57.1872C149.339 57.2554 149.901 57.3123 150.589 57.335L150.543 58.0968C150.245 58.0968 149.912 58.0968 149.534 58.0854C149.156 58.0854 148.766 58.074 148.376 58.074C147.975 58.074 147.585 58.074 147.195 58.0627C146.805 58.0627 146.438 58.0513 146.095 58.0513C145.808 58.0513 145.51 58.0627 145.166 58.0627C144.833 58.0627 144.489 58.074 144.146 58.074C143.813 58.074 143.469 58.0854 143.125 58.0854C142.781 58.0968 142.472 58.0968 142.208 58.0968L142.139 57.3691C142.793 57.335 143.32 57.2668 143.721 57.1759C144.123 57.0963 144.421 56.9485 144.616 56.7552C144.811 56.5619 144.948 56.289 145.005 55.9707C145.074 55.641 145.097 55.209 145.097 54.6633V51.4799H145.086Z" fill="#C79C42"/>
</svg>
