<svg width="847" height="105" viewBox="0 0 847 105" fill="none" xmlns="http://www.w3.org/2000/svg">
<g filter="url(#filter0_i)">
<path fill-rule="evenodd" clip-rule="evenodd" d="M37.773 6.1936C35.0506 6.37057 32.839 6.72448 31.1375 7.25536C29.436 7.78625 28.0746 8.31716 27.2239 9.37894C26.3731 10.2637 25.6923 11.6795 25.352 13.2721C25.0117 14.8648 24.8416 16.9884 24.8416 19.6428V85.4728C24.8416 87.7734 25.0117 89.7199 25.352 91.3126C25.6923 92.9052 26.203 93.967 27.2239 94.8518C28.0746 95.7367 29.4358 96.2675 30.9672 96.6215C32.6687 96.9754 34.8807 97.1523 37.4329 97.1523H42.5372C46.4506 97.1523 49.5132 96.7985 52.0654 96.2676C54.4475 95.5597 56.6594 94.4979 58.3609 92.9053C60.0624 91.3126 61.5939 89.3661 62.7849 86.7117C63.9759 84.0572 65.5073 80.8718 67.0386 77.1556L70.7819 78.0403C70.2715 79.9869 69.7611 82.2874 69.2506 84.411C68.7402 86.7115 68.3996 89.0121 67.8891 91.1356C67.5489 93.4361 67.2086 95.3828 66.8683 97.3294C66.528 99.2759 66.528 100.868 66.3579 102.107H51.2149C46.791 102.107 43.0476 102.107 39.8147 102.107C36.5819 102.107 33.8599 102.107 31.6479 102.107C29.436 102.107 27.3941 102.107 25.6926 102.107C23.9911 102.107 22.6298 102.107 21.2686 102.107H17.8659C16.5047 102.107 15.1434 102.107 13.4419 102.107C11.7404 102.107 10.2091 102.107 8.67775 102.107C6.97626 102.107 5.61474 102.107 4.0834 102.107C2.72221 102.107 1.53132 102.107 0.510425 102.107L0.170315 98.5681C2.89269 98.3911 5.10436 98.0372 6.80584 97.5063C8.50733 96.9754 9.8687 96.2676 10.7194 95.3828C11.5702 94.498 12.2505 93.0822 12.5908 91.4895C12.9311 89.8969 13.1018 87.7733 13.1018 85.1188V15.2188C13.1018 13.6261 12.9311 12.2104 12.5908 10.9717C12.2505 9.90992 11.7403 9.02509 10.7194 8.31724C9.8687 7.60939 8.50733 7.07841 6.80584 6.72448C5.10436 6.37056 2.89253 6.19357 0 6.01661L0.34063 2.30045C1.36152 2.30045 2.72238 2.30045 4.25372 2.30045C5.78505 2.30045 7.48685 2.30045 9.35849 2.30045C11.06 2.30045 12.9312 2.30045 14.8028 2.30045C16.6745 2.30045 18.3763 2.30045 19.9076 2.30045C21.2688 2.30045 22.63 2.30045 24.1613 2.30045C25.6927 2.30045 27.3941 2.30045 28.9255 2.30045C30.4568 2.30045 31.988 2.30045 33.5193 2.30045C34.8805 2.30045 36.0717 2.30045 36.9225 2.30045L37.773 6.1936ZM95.7938 68.1305C95.7938 73.0854 96.6448 77.3325 98.1761 81.0488C99.7074 84.588 101.919 87.5964 104.472 89.72C107.194 92.0205 110.086 93.6131 113.489 94.6749C116.722 95.7367 120.295 96.2676 123.698 96.2676C127.272 96.2676 130.674 95.7366 133.907 94.4978C137.14 93.2591 140.032 91.4896 142.585 89.0121C145.137 86.5346 147.178 83.1724 148.71 79.2792C150.241 75.3861 150.922 70.4311 150.922 64.9452V21.4124C150.922 18.404 150.752 15.9266 150.242 13.98C149.731 12.0334 149.05 10.6177 147.859 9.55594C146.668 8.49416 144.967 7.78625 142.925 7.25536C140.883 6.90144 138.161 6.54757 134.928 6.3706L135.098 2.65445C137.48 2.65445 140.203 2.65431 143.605 2.83127C146.838 2.83127 150.412 3.00827 153.985 3.00827C156.877 3.00827 159.94 3.00824 163.173 2.83127C166.405 2.83127 168.958 2.65445 171.17 2.65445L171.34 6.1936C168.447 6.54753 166.065 6.90144 164.193 7.25536C162.322 7.60929 160.961 8.3172 159.77 9.55594C158.749 10.6177 157.898 12.2104 157.558 14.5109C157.218 16.6345 157.047 19.6428 157.047 23.359V67.2458C157.047 73.9704 155.856 79.8099 153.815 84.411C151.603 89.189 148.71 93.0822 145.137 95.9136C141.564 98.922 137.48 101.046 133.056 102.461C128.633 103.877 124.039 104.585 119.445 104.585C114.851 104.585 110.426 103.877 106.173 102.638C101.919 101.4 98.3459 99.2759 95.113 96.6215C91.8802 93.967 89.3283 90.4278 87.4567 86.5346C85.585 82.4645 84.5639 77.6864 84.5639 72.0236V16.6345C84.5639 15.0418 84.3939 13.626 84.2238 12.3873C84.0536 11.1485 83.2026 10.2637 82.3519 9.37894C81.331 8.67109 79.97 7.96329 78.2685 7.60936C76.3969 7.25544 74.0145 6.90145 71.122 6.72448L71.2923 3.00827C72.4834 3.00827 73.8446 3.00827 75.546 3.00827C77.2475 3.00827 78.9488 3.00827 80.6503 3.00827C82.5219 3.00827 84.3939 3.00827 86.2655 3.00827C88.1371 3.00827 89.8386 3.00827 91.5401 3.00827C92.9013 3.00827 94.4328 3.00827 95.9641 3.00827C97.6656 3.00827 99.1965 3.00827 100.898 3.00827C102.6 3.00827 104.131 3.00827 105.662 3.00827C107.194 3.00827 108.385 3.00827 109.576 3.00827L109.916 6.5476C107.023 6.72457 104.642 7.07847 102.94 7.60936C101.239 8.14025 99.7074 8.84804 98.6865 9.90982C97.6656 10.9716 96.9846 12.3874 96.6443 13.98C96.304 15.7496 96.1339 17.8732 96.1339 20.3507V68.1305H95.7938ZM210.644 102.461C208.602 102.461 205.88 102.461 202.647 102.284C199.244 102.284 196.011 102.107 192.949 102.107C189.546 102.107 186.823 102.107 184.611 102.284C182.399 102.284 180.017 102.461 177.806 102.461L177.635 98.7451C180.358 98.5681 182.74 98.2141 184.611 97.5063C186.483 96.7984 188.184 95.9136 189.716 94.8518C191.247 93.6131 192.779 92.0203 194.31 90.0738C195.671 88.1272 197.543 85.8267 199.414 83.1723L220.513 53.0887L197.883 19.2888C196.011 16.6344 194.65 14.5109 193.459 12.7413C192.268 11.1486 191.077 9.90993 189.886 9.02512C188.695 8.1403 187.163 7.43241 185.462 7.07848C183.76 6.72456 181.719 6.54757 178.997 6.3706L179.167 2.65445C180.187 2.65445 181.379 2.65445 183.08 2.65445C184.611 2.65445 186.313 2.65445 188.184 2.65445C190.056 2.65445 191.758 2.65445 193.629 2.65445C195.501 2.65445 197.032 2.65445 198.564 2.65445C201.626 2.65445 204.689 2.65442 207.922 2.47745C211.155 2.47745 213.707 2.30045 215.748 2.30045L216.089 5.83979C212.516 6.19371 210.134 6.72448 208.773 7.25536C207.412 7.78625 206.901 8.49416 206.901 9.55594C206.901 10.4407 207.581 12.0334 208.943 13.98L227.829 42.6478L245.524 15.7496C246.375 14.3339 247.226 13.2722 247.736 12.2104C248.247 11.1487 248.417 10.4407 248.417 9.55594C248.417 8.49416 247.737 7.60937 246.375 7.07848C245.014 6.5476 242.632 6.01671 239.229 5.66279L239.57 2.12357C241.611 2.12357 244.163 2.12349 247.226 2.30045C250.289 2.30045 253.351 2.47745 256.414 2.47745C259.477 2.47745 262.029 2.47742 264.071 2.30045C266.113 2.30045 268.155 2.12357 270.366 2.12357L270.536 5.83979C267.814 6.01675 265.432 6.3706 263.73 6.90148C261.859 7.43237 260.327 8.3172 258.796 9.55594C257.265 10.7947 255.903 12.2104 254.542 14.157C253.181 15.9266 251.48 18.2272 249.608 21.0586L230.892 47.9567L255.223 84.765C257.095 87.5964 258.626 89.8969 259.987 91.6666C261.348 93.4362 262.71 94.6749 264.071 95.5597C265.432 96.6215 267.134 97.1524 268.835 97.5063C270.537 97.8602 272.919 98.2142 275.641 98.2142L275.471 101.93C274.28 101.93 272.919 101.93 271.387 101.93C269.856 101.93 268.154 101.93 266.453 101.93C264.751 101.93 262.88 101.93 261.008 101.93C259.136 101.93 257.435 101.93 255.733 101.93C254.202 101.93 252.5 101.93 250.799 101.93C249.097 101.93 247.226 101.93 245.524 101.93C243.823 101.93 242.122 101.93 240.59 101.93C239.059 101.93 237.868 101.93 236.677 101.93L236.166 98.5681C240.08 98.2141 242.802 97.8602 244.334 97.3294C245.865 96.7985 246.545 96.0907 246.545 95.0289C246.545 93.9671 245.865 92.5514 244.674 90.6048L223.405 58.2207L203.498 88.6582C202.647 90.0739 201.796 91.1356 201.456 92.1974C200.945 93.0822 200.776 93.967 200.776 94.6749C200.776 95.9136 201.456 96.7985 202.987 97.3294C204.519 97.8602 207.241 98.3912 211.155 98.7451L210.644 102.461ZM302.695 68.1305C302.695 73.0854 303.545 77.3325 305.076 81.0488C306.608 84.588 308.82 87.5964 311.372 89.72C314.095 92.0205 316.987 93.6131 320.39 94.6749C323.623 95.7367 327.196 96.2676 330.599 96.2676C334.172 96.2676 337.575 95.7366 340.808 94.4978C344.041 93.2591 346.933 91.4896 349.486 89.0121C352.038 86.5346 354.079 83.1724 355.611 79.2792C357.142 75.3861 357.823 70.4311 357.823 64.9452V21.4124C357.823 18.404 357.652 15.9266 357.142 13.98C356.631 12.0334 355.951 10.6177 354.76 9.55594C353.569 8.49416 352.038 7.78625 349.996 7.25536C347.954 6.90144 345.232 6.54757 341.999 6.3706L342.169 2.65445C344.551 2.65445 347.274 2.65431 350.677 2.83127C353.909 2.83127 357.482 3.00827 361.055 3.00827C363.948 3.00827 367.011 3.00824 370.244 2.83127C373.476 2.65431 376.029 2.65445 378.241 2.65445L378.41 6.1936C375.518 6.54753 373.136 6.72448 371.264 7.25536C369.393 7.60929 368.032 8.3172 366.84 9.55594C365.82 10.6177 364.969 12.2104 364.628 14.5109C364.288 16.6345 364.118 19.6428 364.118 23.359V67.2458C364.118 73.9704 362.927 79.8099 360.885 84.411C358.673 89.189 355.781 93.0822 352.208 95.9136C348.635 98.922 344.551 101.046 340.127 102.461C335.703 103.877 331.109 104.585 326.515 104.585C321.921 104.585 317.498 103.877 313.414 102.638C309.16 101.4 305.587 99.2759 302.354 96.6215C299.122 93.967 296.569 90.6047 294.698 86.5346C292.826 82.4645 291.805 77.6864 291.805 72.0236V16.6345C291.805 15.0418 291.635 13.626 291.294 12.3873C290.954 11.1485 290.444 10.2637 289.423 9.37894C288.402 8.67109 287.041 7.96329 285.34 7.60936C283.468 7.25544 281.086 6.90145 278.193 6.72448L278.363 3.00827C279.555 3.00827 280.916 3.00827 282.617 3.00827C284.319 3.00827 286.02 3.00827 287.721 3.00827C289.593 3.00827 291.464 3.00827 293.336 3.00827C295.208 3.00827 296.91 3.00827 298.611 3.00827C299.972 3.00827 301.503 3.00827 303.035 3.00827C304.736 3.00827 306.268 3.00827 307.969 3.00827C309.671 3.00827 311.202 3.00827 312.733 3.00827C314.265 3.00827 315.456 3.00827 316.647 3.00827L316.817 6.5476C313.924 6.72457 311.712 7.07847 309.841 7.60936C308.139 8.14025 306.608 8.84804 305.587 9.90982C304.566 10.9716 303.885 12.3874 303.545 13.98C303.205 15.7496 303.035 17.8732 303.035 20.3507V68.1305H302.695ZM409.548 89.1891C409.548 90.7817 409.548 92.1973 409.718 93.4361C409.888 94.4979 410.399 95.5597 411.079 96.2676C411.76 96.9754 413.121 97.6833 414.823 98.0372C416.524 98.3912 418.906 98.7451 422.139 98.7451V102.461C418.906 102.461 415.673 102.461 412.27 102.284C408.867 102.284 405.634 102.107 402.401 102.107C401.21 102.107 399.679 102.107 398.148 102.107C396.616 102.107 395.085 102.107 393.554 102.107C392.023 102.107 390.661 102.107 389.3 102.107C387.939 102.107 386.918 102.107 385.897 102.107L385.727 98.5681C388.279 98.3911 390.321 98.0372 392.023 97.5063C393.724 96.9754 394.745 96.2676 395.596 95.3828C396.446 94.498 396.957 93.0822 397.297 91.4895C397.638 89.8969 397.808 87.7733 397.808 85.1188V15.2188C397.808 13.6261 397.638 12.2104 397.468 10.9717C397.127 9.90992 396.617 9.02509 395.766 8.31724C394.915 7.60939 393.724 7.07841 392.023 6.72448C390.321 6.37056 388.109 6.19357 385.387 6.01661L385.557 2.30045C386.578 2.30045 387.939 2.30045 389.3 2.30045C390.661 2.30045 392.193 2.30045 393.894 2.30045C395.596 2.30045 397.297 2.30045 398.999 2.30045C400.7 2.30045 402.401 2.30045 403.933 2.30045C406.655 2.30045 409.207 2.1235 411.93 1.76958C414.652 1.41565 417.375 1.2387 420.097 1.2387C424.01 1.2387 428.094 1.5926 432.008 2.30045C435.921 3.0083 439.664 4.24698 442.897 6.01661C446.13 7.78623 448.682 10.2638 450.724 13.2721C452.765 16.2805 453.787 20.3506 453.787 25.1286C453.787 28.3139 453.276 31.3224 452.255 34.1538C451.235 36.9852 449.873 39.6396 448.172 41.9401C446.47 44.2406 444.428 46.3642 442.046 48.1338C439.664 49.9034 437.112 51.3191 434.22 52.3808C436.432 56.6279 438.473 60.6981 440.515 64.4143C442.557 68.3074 444.428 71.8466 446.3 75.032C448.002 78.2173 449.703 81.0488 451.064 83.5263C452.425 86.0037 453.616 87.9503 454.637 89.1891C455.828 90.9587 457.019 92.3743 457.87 93.4361C458.891 94.4979 459.912 95.3827 460.933 95.9136C461.954 96.4445 463.315 96.9753 464.846 97.1523C466.378 97.5062 468.249 97.6832 470.461 97.8602L470.291 101.576C468.249 101.576 465.697 101.577 462.464 101.4C459.231 101.223 456.169 101.223 453.106 101.223C452.255 101.223 451.234 101.223 450.043 101.223C448.852 101.223 448.002 101.223 446.981 101.4C446.3 99.9839 445.279 97.8603 443.918 95.0289C442.557 92.1975 440.855 89.0121 438.984 85.2959C437.112 81.5797 434.9 77.5096 432.518 73.2625C430.136 68.8384 427.754 64.4143 425.201 59.9902C424.861 59.2823 424.351 58.7515 424.011 58.0436C423.67 57.3358 423.16 56.9818 422.649 56.6279C422.139 56.2739 421.288 55.9201 420.437 55.7432C419.586 55.5662 418.225 55.3892 416.694 55.3892H413.802C413.291 55.3892 412.611 55.3892 411.76 55.3892C411.079 55.3892 410.058 55.2123 409.038 55.2123V89.1891H409.548ZM409.548 51.1421C410.058 51.1421 410.569 51.3191 411.079 51.3191C411.59 51.3191 412.1 51.3191 412.611 51.3191H415.843C423.67 51.3191 429.796 49.3725 434.049 45.6563C438.303 41.9401 440.515 35.9234 440.515 27.4292C440.515 20.3507 438.473 15.2187 434.389 11.8565C430.306 8.67113 424.861 6.90148 418.055 6.90148C416.014 6.90148 414.312 7.07844 413.291 7.43236C412.1 7.78629 411.25 8.31713 410.739 9.20194C410.229 9.90979 409.888 10.9717 409.718 12.0334C409.548 13.0952 409.548 14.3339 409.548 15.7496V51.1421ZM505.852 69.7232C505.852 67.7766 505.852 66.007 505.682 64.5913C505.512 63.1756 505.341 61.7598 505.001 60.3441C504.661 58.9284 504.151 57.3358 503.3 55.7432C502.619 54.1505 501.598 52.027 500.237 49.5496C498.535 46.1873 496.324 42.1171 493.772 37.5161C491.22 32.7381 487.987 27.0753 484.073 20.3507C482.542 17.6963 481.18 15.3957 480.16 13.803C478.968 12.0334 477.948 10.7947 476.587 9.73293C475.396 8.67116 473.864 7.96329 472.333 7.60936C470.631 7.07847 468.589 6.90153 465.867 6.5476L466.037 2.83127C468.76 2.83127 471.992 2.83131 475.225 3.00827C478.628 3.00827 482.031 3.18533 485.434 3.18533C488.156 3.18533 491.049 3.18524 493.942 3.00827C496.834 3.00827 499.727 2.83127 502.449 2.83127L502.79 6.3706C499.216 6.72453 496.664 7.07851 495.303 7.78636C493.942 8.49421 493.261 9.37896 493.261 10.6177C493.261 11.5025 493.601 12.3874 493.942 13.4491C494.452 14.5109 494.963 15.9266 495.813 17.5192L514.019 52.2039L531.544 19.1119C532.565 17.1653 533.416 15.3957 533.927 13.98C534.437 12.7413 534.777 11.5025 534.777 10.4407C534.777 9.20196 533.927 8.14025 532.566 7.60936C531.034 7.07847 528.482 6.54757 524.569 6.3706L524.738 2.65445C527.12 2.65445 529.843 2.65431 532.566 2.83127C535.288 3.00824 538.181 3.00827 541.073 3.00827C543.625 3.00827 546.177 3.00824 548.729 2.83127C551.452 2.83127 553.834 2.65445 556.386 2.65445L556.726 6.1936C554.174 6.37057 551.962 6.72448 550.261 7.25536C548.559 7.78625 547.028 8.67116 545.667 9.73293C544.306 10.9717 542.944 12.5643 541.753 14.5109C540.392 16.4575 538.861 19.1119 536.989 22.4741C533.586 28.3139 530.694 33.6229 528.142 38.0469C525.589 42.6479 523.718 46.3642 522.357 49.1956C520.995 52.027 519.974 54.3274 519.124 56.097C518.443 57.8667 517.762 59.2824 517.422 60.6981C517.082 61.9368 516.912 63.3525 516.912 64.4143C516.912 65.653 516.912 67.0687 516.912 68.8384V89.3661C516.912 90.9588 517.082 92.3743 517.252 93.4361C517.592 94.4979 518.103 95.5597 519.124 96.2676C519.974 96.9754 521.506 97.5062 523.377 97.8602C525.249 98.2141 527.801 98.5681 531.204 98.5681L531.034 102.284C529.673 102.284 528.141 102.284 526.27 102.284C524.398 102.284 522.697 102.284 520.825 102.284C518.954 102.284 517.082 102.284 515.21 102.284C513.339 102.284 511.637 102.284 510.106 102.284C508.745 102.284 507.383 102.284 505.682 102.284C504.15 102.284 502.449 102.284 500.918 102.284C499.386 102.284 497.685 102.284 496.154 102.284C494.622 102.284 493.091 102.284 491.9 102.284L491.56 98.7451C494.622 98.5681 497.004 98.2141 498.876 97.8602C500.748 97.5062 502.109 96.7983 503.13 95.7365C503.98 94.8517 504.661 93.4362 505.001 91.8435C505.341 90.2508 505.512 88.1273 505.512 85.4728V69.7232H505.852ZM614.577 73.4394C615.938 76.9786 617.299 80.341 618.831 83.3493C620.362 86.3577 622.064 89.0121 624.275 91.3126C626.317 93.6131 628.869 95.3827 631.592 96.6215C634.314 97.8602 637.717 98.5681 641.63 98.5681C644.183 98.5681 646.565 98.0371 648.777 97.1523C650.989 96.2675 652.86 95.0288 654.562 93.2591C656.263 91.6665 657.455 89.7199 658.475 87.4194C659.496 85.1189 659.836 82.6414 659.836 79.987C659.836 76.6247 659.326 73.6164 657.965 71.3159C656.774 68.8384 655.243 66.8918 653.201 65.1222C651.159 63.3525 648.947 61.7599 646.395 60.5211C643.842 59.2824 641.29 57.8666 638.568 56.6279C635.505 55.2122 632.613 53.7966 629.55 52.0269C626.487 50.4343 623.765 48.4877 621.383 46.1872C619.001 43.8867 616.959 41.2321 615.428 38.2237C613.897 35.2154 613.216 31.6762 613.216 27.6061C613.216 23.182 614.067 19.4658 615.768 16.1035C617.469 12.7412 619.681 9.90987 622.574 7.60936C625.466 5.30885 628.869 3.53923 632.613 2.47745C636.526 1.23872 640.439 0.707819 644.863 0.707819C649.117 0.707819 652.861 1.06173 656.434 1.76958C660.007 2.47743 663.75 3.36225 667.833 4.42403C667.663 6.72454 667.493 8.67111 667.323 10.6177C667.153 12.5643 667.153 14.3339 666.983 16.2805C666.983 18.2271 666.983 19.9967 666.813 21.9433C666.813 23.8899 666.813 25.8365 666.813 28.137L662.559 28.491C661.878 21.2355 659.836 15.5727 656.093 12.0334C652.35 8.31724 647.416 6.5476 641.12 6.5476C638.738 6.5476 636.526 6.90151 634.484 7.60936C632.443 8.31721 630.741 9.55599 629.21 10.9717C627.679 12.3874 626.658 14.1569 625.807 16.1035C624.956 18.0501 624.616 20.3507 624.616 22.8281C624.616 26.1904 625.126 28.8449 626.147 31.1454C627.168 33.446 628.529 35.3924 630.401 36.985C632.103 38.5777 634.314 40.1705 636.696 41.2323C639.079 42.4711 641.461 43.7097 644.183 44.7715C647.416 46.1872 650.648 47.7799 653.881 49.5496C657.114 51.3192 660.007 53.2657 662.559 55.7432C665.111 58.0437 667.153 60.8751 668.854 63.8835C670.386 67.0688 671.237 70.608 671.237 74.8551C671.237 79.4562 670.386 83.7032 668.514 87.4194C666.643 90.9587 664.261 94.144 661.198 96.6215C658.135 99.2759 654.562 101.046 650.648 102.461C646.565 103.7 642.482 104.408 638.398 104.408C634.825 104.408 630.911 104.054 626.998 103.169C623.085 102.461 618.831 101.4 614.577 99.9838C614.066 95.3828 613.556 91.1356 612.876 87.0654C612.195 82.9953 611.344 78.7483 610.153 74.1473L614.577 73.4394ZM706.798 89.1891C706.798 90.7817 706.968 92.1973 707.138 93.4361C707.308 94.4979 707.989 95.5597 708.839 96.2676C709.86 96.9754 711.391 97.6833 713.433 98.0372C715.475 98.3912 718.367 98.7451 721.941 98.7451L721.771 102.461C718.198 102.461 714.454 102.461 710.541 102.284C706.628 102.284 703.054 102.107 699.821 102.107C698.63 102.107 697.099 102.107 695.568 102.107C694.036 102.107 692.505 102.107 690.974 102.107C689.443 102.107 688.081 102.107 686.72 102.107C685.359 102.107 684.168 102.107 683.317 102.107L683.147 98.5681C685.699 98.3911 687.741 98.0372 689.443 97.5063C690.974 96.9754 692.165 96.2676 693.016 95.3828C693.866 94.498 694.377 93.0822 694.717 91.4895C695.058 89.8969 695.228 87.7733 695.228 85.1188V15.2188C695.228 13.6261 695.057 12.2104 694.887 10.9717C694.547 9.90992 694.036 9.02509 693.185 8.31724C692.335 7.60939 691.144 7.07841 689.443 6.72448C687.741 6.37056 685.529 6.19357 682.807 6.01661L682.977 2.30045C683.998 2.30045 685.359 2.30045 686.72 2.30045C688.081 2.30045 689.613 2.30045 691.314 2.30045C693.016 2.30045 694.717 2.30045 696.418 2.30045C698.12 2.30045 699.822 2.30045 701.523 2.30045C703.905 2.30045 706.627 2.1235 709.69 1.76958C712.753 1.41565 715.815 1.2387 718.708 1.2387C723.472 1.2387 727.896 1.76964 732.15 2.65445C736.403 3.53927 740.317 5.13185 743.38 7.43236C746.612 9.73287 749.164 12.5642 751.206 16.1035C753.078 19.8197 754.099 24.2438 754.099 29.5526C754.099 34.8615 753.078 39.4625 751.036 43.3557C748.995 47.2489 746.272 50.6113 742.869 53.2658C739.636 55.9202 735.893 57.8666 731.639 59.1054C727.556 60.3441 723.302 61.0519 719.219 61.0519C716.666 61.0519 714.284 60.8751 712.072 60.5211C709.69 60.1672 707.989 59.6363 706.627 59.1054V89.1891H706.798ZM706.798 54.8583C708.329 55.3892 710.031 55.7431 711.732 55.9201C713.434 56.0971 715.475 56.2741 717.517 56.2741C720.069 56.2741 722.792 55.9201 725.514 55.0353C728.236 54.1505 730.789 52.7348 733.001 50.7882C735.213 48.8417 737.084 46.1872 738.615 43.0018C740.147 39.8165 740.827 35.7464 740.827 30.7914C740.827 22.8281 738.786 16.9883 734.532 13.0951C730.448 9.37894 724.663 7.43236 717.177 7.43236C714.794 7.43236 713.093 7.6094 711.732 7.78636C710.371 8.14029 709.35 8.49423 708.669 9.02512C707.988 9.556 707.478 10.4408 707.308 11.3256C707.138 12.2104 706.968 13.4491 706.968 14.8648V54.8583H706.798ZM812.12 65.476H778.941L771.284 86.0038C769.753 89.897 769.242 92.3743 769.242 93.4361C769.242 95.2057 770.093 96.4444 771.624 97.1523C773.156 97.8601 776.218 98.2141 780.302 98.5681L779.961 102.284C777.579 102.284 774.687 102.284 771.624 102.107C768.562 102.107 765.499 101.93 762.436 101.93C760.054 101.93 757.502 101.93 754.78 102.107C752.227 102.107 749.675 102.284 747.123 102.284L746.952 98.7451C749.505 98.5681 751.717 98.2141 753.418 97.6832C755.12 97.3293 756.481 96.4445 757.672 95.2057C758.863 93.967 760.054 92.3744 761.245 90.2508C762.266 88.1273 763.627 85.2959 765.159 81.7566L792.723 11.5026C793.573 9.37902 794.424 7.60927 795.275 6.01661C796.125 4.42394 796.976 2.65444 797.657 0.884818L803.952 0C804.633 3.36229 805.484 6.37054 806.335 9.20194C807.185 12.0333 807.866 14.5108 808.717 16.8114L831.176 84.411C832.197 87.4193 833.048 89.8969 833.899 91.4895C834.749 93.2591 835.6 94.6749 836.621 95.5597C837.642 96.4445 839.003 97.1524 840.705 97.5063C842.406 97.8602 844.448 98.2141 847 98.3911L846.66 102.107C843.938 102.107 840.875 102.107 837.472 101.93C834.069 101.93 830.666 101.753 827.433 101.753C824.711 101.753 821.818 101.753 818.926 101.93C816.033 101.93 813.311 102.107 810.418 102.107L810.078 98.5681C813.821 98.2141 816.544 97.8601 818.075 97.1523C819.606 96.4444 820.457 95.2057 820.457 93.4361C820.457 92.7282 820.287 91.6664 820.117 90.7816C819.776 89.7199 819.436 88.6582 819.096 87.4194L812.12 65.476ZM781.153 59.4594H810.248L797.147 18.4041H796.806L781.153 59.4594Z" fill="#37524B"/>
</g>
<defs>
<filter id="filter0_i" x="0" y="0" width="847" height="108.585" filterUnits="userSpaceOnUse" color-interpolation-filters="sRGB">
<feFlood flood-opacity="0" result="BackgroundImageFix"/>
<feBlend mode="normal" in="SourceGraphic" in2="BackgroundImageFix" result="shape"/>
<feColorMatrix in="SourceAlpha" type="matrix" values="0 0 0 0 0 0 0 0 0 0 0 0 0 0 0 0 0 0 127 0" result="hardAlpha"/>
<feOffset dy="4"/>
<feGaussianBlur stdDeviation="5"/>
<feComposite in2="hardAlpha" operator="arithmetic" k2="-1" k3="1"/>
<feColorMatrix type="matrix" values="0 0 0 0 0 0 0 0 0 0 0 0 0 0 0 0 0 0 0.1 0"/>
<feBlend mode="normal" in2="shape" result="effect1_innerShadow"/>
</filter>
</defs>
</svg>
