<svg width="121" height="121" viewBox="0 0 121 121" fill="none" xmlns="http://www.w3.org/2000/svg">
<path d="M107 82H121V121H107V82Z" fill="#AD8530"/>
<path d="M0 0H39V13H0V0Z" fill="#AD8530"/>
<path d="M120.98 120.988L0.0203705 0.0290007L0.0405502 0.00878906H42.9877C45.3321 0.00878906 47.5553 0.93847 49.2125 2.59573L118.413 71.7963C120.07 73.4535 121 75.6969 121 78.0211V120.988H120.98Z" fill="#C79C42"/>
<path d="M62.3115 45.9912L63.6677 36.7352C63.6875 36.5966 63.704 36.4613 63.7172 36.3293C63.7436 36.1973 63.7667 36.062 63.7865 35.9235L63.7766 35.9136L59.5693 40.1802C59.4044 40.3452 59.2394 40.5102 59.0744 40.6752C58.9094 40.8402 58.7411 40.9953 58.5695 41.1405C58.6949 41.2527 58.8203 41.3649 58.9457 41.4771C59.0711 41.5893 59.1965 41.7015 59.3219 41.8137L58.8863 42.2492L57.0747 40.4376L57.4014 40.1109C57.6059 40.3155 57.794 40.4178 57.9656 40.4178C58.1504 40.4178 58.3154 40.3716 58.4606 40.2792C58.6124 40.1802 58.7378 40.0812 58.8368 39.9822L63.6083 35.2305L64.2716 34.5672C64.1594 34.4682 64.0439 34.3659 63.9251 34.2603C63.8063 34.1547 63.6875 34.0491 63.5687 33.9436L64.0043 33.508L65.1824 34.686L63.9251 43.3679C63.8987 43.5659 63.869 43.7606 63.836 43.9519C63.8096 44.1499 63.7832 44.3479 63.7568 44.5459L63.7667 44.5558L68.3106 40.0317C68.5878 39.7546 68.8353 39.5269 69.0531 39.3487C68.9277 39.2365 68.8023 39.1243 68.6769 39.0121C68.5515 38.8999 68.4261 38.7877 68.3007 38.6755L68.7363 38.2399L70.5578 40.0614L70.2311 40.3881C69.9803 40.1505 69.7559 40.0383 69.5579 40.0515C69.3599 40.0647 69.1686 40.1571 68.9838 40.3287C68.799 40.5003 68.5878 40.7049 68.3502 40.9425L62.7867 46.4664L62.3115 45.9912ZM70.6045 48.8395C70.8949 48.5491 71.0632 48.3016 71.1094 48.097C71.1556 47.8925 71.1061 47.6912 70.9609 47.4932C70.8157 47.2952 70.5946 47.0609 70.2976 46.7903L69.5452 46.0974L67.2783 48.3643C66.9351 48.7075 66.6678 48.955 66.4764 49.1068L68.3969 50.9679C68.6939 51.2517 68.9909 51.4563 69.2879 51.5817C69.5914 51.7005 69.9148 51.7071 70.258 51.6015C70.6012 51.4959 70.9675 51.2484 71.3569 50.859L71.6934 51.1956L69.7036 53.0666L64.5955 47.9585L64.9222 47.6318C65.1862 47.8694 65.4139 47.9849 65.6052 47.9783C65.8032 47.9651 65.9946 47.8727 66.1794 47.7011C66.3774 47.5295 66.5919 47.3282 66.8229 47.0972L71.0995 42.8206C71.3767 42.5434 71.6241 42.3157 71.8419 42.1376C71.7165 42.0254 71.5911 41.9132 71.4658 41.801C71.3404 41.6888 71.215 41.5766 71.0896 41.4644L71.5251 41.0288L76.2868 45.7905L74.6039 47.5724L74.2772 47.2457C74.6666 46.8563 74.9009 46.5032 74.9801 46.1864C75.0659 45.8631 75.0395 45.5661 74.9009 45.2955C74.7755 45.0249 74.5841 44.7675 74.3267 44.5233L73.4555 43.6918C73.2048 43.4542 72.9837 43.3255 72.7923 43.3057C72.6009 43.2859 72.4062 43.3486 72.2082 43.4938C72.0234 43.639 71.7957 43.8469 71.5251 44.1175L69.9412 45.7014L71.7924 47.5724L72.5745 46.6517L73.0101 47.0873L70.9312 49.1662L70.6045 48.8395ZM72.9217 56.4826L76.4162 49.4441C76.6538 48.9821 76.8386 48.6191 76.9706 48.3551C77.1092 48.0845 77.2346 47.8602 77.3467 47.682C77.2478 47.5962 77.1521 47.5071 77.0597 47.4147C76.9673 47.3223 76.8716 47.2332 76.7726 47.1474L77.2082 46.7118L79.6137 49.1174L79.287 49.4441C78.8845 49.0811 78.5677 48.9359 78.3367 49.0085C78.1123 49.0877 77.8549 49.3781 77.5645 49.8797C77.2412 50.4274 76.9706 50.9422 76.7528 51.424C76.535 51.9057 76.2875 52.4106 76.0103 52.9386C75.8057 53.328 75.6242 53.6943 75.4658 54.0374C75.3141 54.3872 75.1326 54.7667 74.9214 55.1759L74.9412 55.1957C75.2316 55.0373 75.545 54.869 75.8816 54.6908C76.2182 54.5126 76.4756 54.3806 76.6538 54.2948C77.4259 53.8922 78.175 53.5062 78.901 53.1366C79.6401 52.767 80.2869 52.4436 80.8413 52.1664C81.4022 51.8827 81.8081 51.6682 82.0589 51.523L82.3757 51.8398C82.2173 52.1169 82.0259 52.4799 81.8015 52.9287C81.5771 53.3775 81.3428 53.8494 81.0987 54.3443C80.8545 54.8393 80.6202 55.3046 80.3958 55.7402C80.178 56.1823 80.0031 56.5354 79.8711 56.7994C79.6665 57.1888 79.4685 57.5782 79.2771 57.9675C79.0924 58.3635 78.8878 58.7595 78.6634 59.1555L78.6931 59.1852C78.9439 59.0532 79.2112 58.9113 79.4949 58.7595C79.7853 58.6143 80.079 58.4658 80.376 58.314C81.036 57.9972 81.5837 57.7267 82.0193 57.5023C82.4615 57.2845 82.8245 57.0997 83.1083 56.9479C83.3986 56.8027 83.6461 56.674 83.8507 56.5618C84.0685 56.4496 84.2797 56.344 84.4843 56.245C84.6361 56.1724 84.7978 56.0965 84.9694 56.0173C85.1541 55.9381 85.3356 55.8754 85.5138 55.8292C85.3752 55.7039 85.2366 55.5785 85.0981 55.4531C84.9661 55.3211 84.8308 55.1924 84.6922 55.067L85.1277 54.6314L87.1373 56.641L86.8107 56.9677C86.5599 56.7697 86.3322 56.641 86.1276 56.5816C85.9296 56.5288 85.6821 56.5519 85.3851 56.6509C85.0882 56.7499 84.6658 56.9347 84.118 57.2053C82.9169 57.7992 81.7355 58.3866 80.574 58.9674C79.4256 59.5482 78.2674 60.1124 77.0993 60.6602L76.8023 60.3632L79.5939 54.5621C79.7061 54.3311 79.815 54.1034 79.9206 53.879C80.0328 53.6613 80.1417 53.4402 80.2473 53.2158C80.0295 53.328 79.8084 53.4369 79.584 53.5425C79.3662 53.6547 79.1485 53.7669 78.9307 53.879L73.2088 56.7697L72.9217 56.4826Z" fill="white"/>
</svg>
