<svg width="121" height="121" viewBox="0 0 121 121" fill="none" xmlns="http://www.w3.org/2000/svg">
<path d="M107 82H121V121H107V82Z" fill="#172925"/>
<path d="M0 0H39V14H0V0Z" fill="#172925"/>
<path d="M120.98 120.98L0.0203705 0.0202117L0.0405502 0H42.9877C45.3321 0 47.5553 0.929681 49.2125 2.58694L118.413 71.7875C120.07 73.4447 121 75.6881 121 78.0123V120.98H120.98Z" fill="#283E39"/>
<path d="M46.1124 29.8215C46.3764 30.0591 46.6041 30.1746 46.7955 30.168C46.9935 30.1548 47.1849 30.0624 47.3697 29.8908C47.5677 29.7192 47.7821 29.5179 48.0131 29.287L52.2897 25.0104C52.5669 24.7332 52.8144 24.5055 53.0322 24.3273C52.9068 24.2151 52.7814 24.1029 52.656 23.9907C52.5306 23.8785 52.4052 23.7663 52.2798 23.6541L52.7154 23.2186C53.0718 23.5618 53.4348 23.9181 53.8043 24.2877C54.1805 24.6507 54.56 25.0236 54.9428 25.4064C55.8997 26.3633 56.4673 27.2543 56.6455 28.0792C56.8303 28.9108 56.6191 29.6565 56.0119 30.3165C55.7677 30.5871 55.4576 30.8181 55.0814 31.0095C54.7184 31.2009 54.2894 31.2999 53.7944 31.3065C53.3127 31.3131 52.7781 31.1745 52.1907 30.8907C51.6034 30.6069 50.9698 30.1251 50.29 29.4454C50.2636 29.419 50.2141 29.3695 50.1415 29.2969C50.0689 29.2243 50.0029 29.1517 49.9435 29.0791L48.5081 30.5145C48.1583 30.8643 47.8877 31.1151 47.6964 31.2669C47.8613 31.4055 48.023 31.5473 48.1814 31.6925C48.3398 31.8377 48.4982 31.9829 48.6566 32.1281L48.2111 32.5736L45.7858 30.1482L46.1124 29.8215ZM50.3494 28.6732C50.4616 28.8118 50.5573 28.9273 50.6365 29.0197C50.7289 29.1121 50.8378 29.221 50.9632 29.3464C51.3394 29.7225 51.7551 29.9931 52.2105 30.1581C52.6725 30.3165 53.1345 30.3495 53.5965 30.2571C54.0584 30.1647 54.4808 29.9271 54.8636 29.5443C55.2794 29.1286 55.5236 28.7062 55.5962 28.2772C55.6819 27.8482 55.6258 27.4226 55.4279 27.0002C55.2365 26.5844 54.9395 26.1752 54.5369 25.7726C54.3059 25.5417 54.0947 25.4295 53.9033 25.4361C53.7185 25.4493 53.5305 25.5384 53.3391 25.7033C53.1609 25.8683 52.953 26.0696 52.7154 26.3072L50.3494 28.6732ZM55.066 39.7452C54.439 39.1183 54.0067 38.4748 53.7692 37.8148C53.5316 37.1549 53.4458 36.5081 53.5118 35.8745C53.591 35.241 53.7791 34.6437 54.076 34.0827C54.373 33.5218 54.736 33.0268 55.165 32.5978C55.5808 32.182 56.0691 31.8322 56.6301 31.5485C57.1977 31.2581 57.8015 31.0766 58.4417 31.004C59.0885 30.938 59.7352 31.0106 60.382 31.2218C61.0354 31.4396 61.6525 31.8388 62.2332 32.4196C62.8404 33.0268 63.2562 33.6603 63.4806 34.3203C63.7049 34.9803 63.7775 35.6336 63.6983 36.2804C63.6323 36.9272 63.4575 37.531 63.1737 38.092C62.8965 38.6596 62.55 39.1513 62.1342 39.567C61.725 39.9762 61.2367 40.326 60.6691 40.6164C60.1081 40.9002 59.501 41.0784 58.8476 41.151C58.2074 41.2236 57.564 41.1543 56.9172 40.9431C56.2704 40.7319 55.6534 40.3326 55.066 39.7452ZM55.4917 39.3592C55.9008 39.7683 56.343 40.0389 56.8182 40.1709C57.3 40.2963 57.785 40.3128 58.2734 40.2204C58.775 40.128 59.2535 39.9531 59.7088 39.6957C60.1774 39.4384 60.5932 39.1282 60.9562 38.7652C61.3654 38.356 61.7151 37.894 62.0055 37.3793C62.2959 36.8645 62.4972 36.3332 62.6094 35.7854C62.7216 35.2377 62.715 34.7031 62.5896 34.1817C62.4774 33.6603 62.2167 33.1951 61.8075 32.7859C61.3984 32.3767 60.9496 32.1061 60.4612 31.9741C59.9794 31.8487 59.4878 31.8322 58.9862 31.9246C58.4978 32.017 58.0193 32.1919 57.5508 32.4493C57.0954 32.7067 56.6829 33.0202 56.3133 33.3898C55.9503 33.7527 55.6204 34.1817 55.3234 34.6767C55.033 35.1783 54.8218 35.7062 54.6898 36.2606C54.5578 36.815 54.5479 37.3595 54.6601 37.894C54.7723 38.4286 55.0495 38.917 55.4917 39.3592ZM59.8886 43.5977C60.1526 43.8353 60.3803 43.9508 60.5717 43.9442C60.7696 43.931 60.961 43.8386 61.1458 43.667C61.3438 43.4954 61.5583 43.2941 61.7893 43.0631L66.0659 38.7865C66.3431 38.5093 66.5905 38.2817 66.8083 38.1035C66.6829 37.9913 66.5575 37.8791 66.4322 37.7669C66.3068 37.6547 66.1814 37.5425 66.056 37.4303L66.4916 36.9947C66.8479 37.3379 67.2109 37.6943 67.5805 38.0639C67.9567 38.4269 68.3362 38.7997 68.7189 39.1825C69.6759 40.1395 70.2435 41.0304 70.4217 41.8554C70.6064 42.6869 70.3953 43.4327 69.7881 44.0927C69.5439 44.3632 69.2337 44.5942 68.8575 44.7856C68.4945 44.977 68.0656 45.076 67.5706 45.0826C67.0888 45.0892 66.5542 44.9506 65.9669 44.6668C65.3795 44.383 64.7459 43.9013 64.0662 43.2215C64.0398 43.1951 63.9903 43.1456 63.9177 43.073C63.8451 43.0004 63.7791 42.9278 63.7197 42.8552L62.2843 44.2907C61.9345 44.6404 61.6639 44.8912 61.4725 45.043C61.6375 45.1816 61.7992 45.3235 61.9576 45.4687C62.116 45.6139 62.2744 45.7591 62.4328 45.9043L61.9873 46.3497L59.5619 43.9244L59.8886 43.5977ZM64.1256 42.4493C64.2378 42.5879 64.3335 42.7034 64.4127 42.7958C64.5051 42.8882 64.6139 42.9971 64.7393 43.1225C65.1155 43.4987 65.5313 43.7693 65.9867 43.9343C66.4487 44.0927 66.9106 44.1257 67.3726 44.0333C67.8346 43.9409 68.257 43.7033 68.6397 43.3205C69.0555 42.9047 69.2997 42.4823 69.3723 42.0534C69.4581 41.6244 69.402 41.1987 69.204 40.7763C69.0126 40.3606 68.7156 39.9514 68.3131 39.5488C68.0821 39.3178 67.8709 39.2056 67.6795 39.2122C67.4947 39.2254 67.3066 39.3145 67.1152 39.4795C66.937 39.6445 66.7291 39.8458 66.4916 40.0834L64.1256 42.4493ZM74.1483 45.3048C73.9305 45.087 73.7259 44.9748 73.5345 44.9682C73.3497 44.9682 73.1847 45.021 73.0395 45.1266C72.9009 45.2256 72.7854 45.3213 72.693 45.4137L70.1984 47.9084C69.8288 48.278 69.4922 48.6607 69.1886 49.0567C68.8982 49.4527 68.6837 49.8586 68.5452 50.2744C68.4066 50.6901 68.3901 51.1158 68.4957 51.5514C68.6079 51.9936 68.885 52.4357 69.3272 52.8779C69.8024 53.3531 70.3007 53.627 70.822 53.6996C71.35 53.7788 71.8813 53.6897 72.4159 53.4323C72.957 53.1815 73.4883 52.802 74.0097 52.2939L76.8211 49.5418C77.0983 49.2646 77.3458 49.0369 77.5636 48.8587C77.4382 48.7465 77.3128 48.6343 77.1874 48.5221C77.0686 48.4165 76.9465 48.3077 76.8211 48.1955L77.2567 47.7599L79.098 49.6012L78.7713 49.9279C78.5139 49.6837 78.283 49.5649 78.0784 49.5715C77.8804 49.5847 77.6857 49.6738 77.4943 49.8388C77.3095 50.0104 77.0983 50.215 76.8607 50.4525L74.5442 52.7294C74.1153 53.1584 73.6599 53.5214 73.1781 53.8184C72.6963 54.1154 72.1981 54.31 71.6833 54.4024C71.1751 54.5014 70.6603 54.4684 70.139 54.3034C69.6308 54.1385 69.1292 53.8085 68.6342 53.3135C67.9281 52.6073 67.4958 51.9243 67.3374 51.2643C67.1856 50.6109 67.2846 49.9378 67.6344 49.2448C67.9842 48.5518 68.565 47.7995 69.3767 46.9877L71.3863 44.9781C71.5579 44.8065 71.7625 44.6085 72.0001 44.3842C72.2509 44.1598 72.4423 43.9882 72.5742 43.8694C72.4489 43.7572 72.3235 43.645 72.1981 43.5328C72.0793 43.414 71.9572 43.2985 71.8318 43.1863L72.2575 42.7606L74.475 44.9781L74.1483 45.3048ZM73.0094 57.3718L73.336 57.0451C73.6 57.2827 73.8277 57.3982 74.0191 57.3916C74.2171 57.3784 74.4085 57.286 74.5933 57.1144C74.7913 56.9429 75.0058 56.7416 75.2367 56.5106L79.5133 52.234C79.7905 51.9568 80.038 51.7291 80.2558 51.5509C80.1304 51.4387 80.005 51.3265 79.8796 51.2143C79.7542 51.1021 79.6288 50.99 79.5034 50.8778L79.939 50.4422L82.1664 52.6696L81.8397 52.9963C81.5889 52.7587 81.3612 52.6432 81.1566 52.6498C80.9587 52.663 80.764 52.7521 80.5726 52.9171C80.3878 53.0886 80.1766 53.2932 79.939 53.5308L75.6921 57.7777C75.3489 58.1209 75.0817 58.3684 74.8903 58.5202L76.7712 60.3417C77.1935 60.7509 77.639 60.9323 78.1076 60.8861C78.5828 60.8466 79.1108 60.5364 79.6915 59.9556L80.0281 60.2922L77.9195 62.282L73.0094 57.3718ZM78.293 62.6555L78.6197 62.3288C78.8177 62.5268 79.0222 62.6258 79.2334 62.6258C79.4446 62.6258 79.6756 62.5664 79.9264 62.4476C80.1838 62.3354 80.4808 62.2034 80.8174 62.0516L88.4103 58.5373L88.6479 58.7748L85.2226 66.6152C85.1368 66.8066 85.018 67.0442 84.8663 67.328C84.7145 67.6118 84.5561 67.823 84.3911 67.9616C84.5099 68.0672 84.6287 68.1728 84.7475 68.2784C84.8663 68.384 84.985 68.4896 85.1038 68.5951L84.6683 69.0307L82.4013 66.7637L82.728 66.4371C82.9853 66.6812 83.2064 66.7901 83.3912 66.7637C83.576 66.7373 83.7311 66.6416 83.8565 66.4767C83.9819 66.3117 84.0809 66.1467 84.1535 65.9817L84.7376 64.7046L82.1043 62.1902L80.6986 62.9029C80.494 63.0151 80.3257 63.0976 80.1937 63.1504C80.0683 63.2098 79.9264 63.2725 79.768 63.3385C79.9066 63.4639 80.0419 63.586 80.1739 63.7048C80.3125 63.8302 80.4478 63.9523 80.5798 64.0711L80.1442 64.5067L78.293 62.6555ZM82.6785 61.913L84.9652 64.1998L86.1532 61.6061C86.2852 61.3289 86.4106 61.0517 86.5294 60.7745C86.6614 60.4974 86.7934 60.2202 86.9253 59.943L86.9055 59.9232C86.6548 60.042 86.4007 60.1575 86.1433 60.2697C85.8925 60.3885 85.6351 60.5073 85.3711 60.6261L82.6785 61.913ZM85.0937 69.4562L85.4204 69.1295C85.6844 69.3671 85.9121 69.4826 86.1035 69.476C86.3014 69.4628 86.4928 69.3704 86.6776 69.1988C86.8756 69.0272 87.0901 68.8259 87.3211 68.5949L91.5977 64.3183C91.8749 64.0411 92.1223 63.8135 92.3401 63.6353C92.2147 63.5231 92.0893 63.4109 91.964 63.2987C91.8386 63.1865 91.7132 63.0743 91.5878 62.9621L92.0234 62.5265C92.3995 62.8895 92.779 63.2558 93.1618 63.6254C93.5512 64.0016 93.9307 64.3876 94.3002 64.7836C95.244 65.7538 95.7687 66.6018 95.8743 67.3278C95.9865 68.0603 95.7687 68.7005 95.2209 69.2483C94.9701 69.5123 94.6566 69.7268 94.2804 69.8918C93.9175 70.0567 93.4951 70.1095 93.0133 70.0501C92.5381 69.9973 91.997 69.773 91.3898 69.377C91.4294 69.6014 91.4261 69.8357 91.3799 70.0798C91.3337 70.324 91.2776 70.6045 91.2116 70.9213L90.8255 72.6537C90.7595 72.9441 90.7067 73.2147 90.6671 73.4655C90.6341 73.7097 90.644 73.9439 90.6968 74.1683C90.7562 74.3861 90.8882 74.5973 91.0928 74.8019L90.7661 75.1286L89.5188 73.8812C89.499 73.5183 89.5089 73.185 89.5485 72.8814C89.5947 72.5844 89.6574 72.2577 89.7366 71.9013L90.1325 70.1788C90.1853 69.9544 90.2447 69.6971 90.3107 69.4067C90.3899 69.1163 90.4229 68.8391 90.4097 68.5751C90.2975 68.4761 90.182 68.3672 90.0633 68.2484C89.9511 68.1362 89.8422 68.0207 89.7366 67.902L87.8161 69.8225C87.4663 70.1722 87.1957 70.423 87.0043 70.5748C87.1297 70.687 87.2551 70.7992 87.3805 70.9114C87.5059 71.0236 87.6313 71.1358 87.7567 71.248L87.3211 71.6836L85.0937 69.4562ZM90.7166 68.1494C91.0928 68.4992 91.469 68.7566 91.8452 68.9216C92.2279 69.0932 92.614 69.1427 93.0034 69.0701C93.3928 68.9975 93.7756 68.7731 94.1517 68.3969C94.6533 67.8954 94.8843 67.374 94.8447 66.8328C94.8117 66.2982 94.4916 65.7274 93.8845 65.1202C93.6403 64.876 93.4192 64.7539 93.2212 64.7539C93.0298 64.7605 92.8384 64.8463 92.647 65.0113C92.4688 65.1763 92.2609 65.3776 92.0234 65.6152L90.1227 67.5159C90.2216 67.6281 90.314 67.7337 90.3998 67.8327C90.4922 67.9383 90.5978 68.0438 90.7166 68.1494Z" fill="white"/>
</svg>
