<svg width="305" height="310" viewBox="0 0 305 310" fill="none" xmlns="http://www.w3.org/2000/svg">
<g opacity="0.2" filter="url(#filter0_i)">
<path fill-rule="evenodd" clip-rule="evenodd" d="M87.8554 123.611C87.9548 120.502 88.0545 117.489 88.3528 114.476C66.9704 103.301 42.4056 99.5109 17.5423 101.455C14.7576 135.564 23.6087 168.994 48.3725 194.26C71.6445 217.972 99.6905 224.58 131.317 219.041C102.774 194.843 86.9603 163.94 87.8554 123.611ZM141.759 305.627L141.859 305.724L141.958 305.821L142.157 306.016L142.356 306.21L142.455 306.307L142.555 306.404L142.654 306.502L142.754 306.599L142.853 306.696L142.952 306.793L143.052 306.89L143.151 306.987L143.251 307.085L143.35 307.182L143.45 307.279L143.549 307.376L143.748 307.473L143.848 307.57L143.947 307.668L144.146 307.765L144.245 307.862L144.444 308.056L144.544 308.154L144.743 308.251L144.842 308.348L145.041 308.445L145.24 308.542L145.439 308.639L145.538 308.737L145.737 308.834L145.837 308.931L146.035 309.028L146.135 309.125H146.235L146.433 309.223L146.632 309.32H146.732L146.931 309.417H147.03L147.229 309.514H147.328L147.627 309.611H147.726L148.025 309.708H148.124L148.422 309.806L148.721 309.903L149.019 310H149.118H149.318H149.417H149.616H149.715H149.815H150.113H150.411H150.511H150.809H151.207H151.506H151.605H151.903H152.202H152.301H152.599H152.997H153.296H153.395C153.594 310 153.793 309.903 154.091 309.903H154.191H154.389H154.489H154.787H154.887L155.185 309.806L155.484 309.708H155.583L155.782 309.611H155.881H155.981H156.18H156.279L156.478 309.514H156.577L156.876 309.417L157.174 309.32L157.373 309.223H157.473L157.672 309.125L157.87 309.028H157.97L158.169 308.931H158.268L158.467 308.834L158.567 308.737L158.765 308.639L158.865 308.542L159.064 308.445L159.163 308.348L159.362 308.251L159.561 308.154H159.66L159.86 308.056L160.058 307.959L160.257 307.862L160.357 307.765L160.556 307.668H160.655L160.755 307.57L160.854 307.473L160.953 307.376L161.053 307.279L161.153 307.182L161.252 307.085L161.351 306.987L161.451 306.89L161.65 306.696L161.848 306.502H161.948L162.048 306.404L162.147 306.307L162.246 306.21C164.534 303.781 165.926 300.476 165.926 296.881C165.926 293.285 164.534 289.981 162.246 287.552V287.455L162.147 287.357L162.048 287.26L161.848 287.066L161.65 286.871L161.451 286.677L161.351 286.58L161.153 286.386H161.053L160.854 286.191L160.755 286.094L160.556 285.9L160.357 285.705L160.058 285.511C159.859 285.414 159.661 285.317 159.561 285.122H159.462L159.263 285.025L159.064 284.928H158.965C158.766 284.831 158.567 284.734 158.467 284.636L158.169 284.539L157.87 284.442L157.572 284.345L157.274 284.248L156.975 284.15H156.876L156.577 284.053H156.478L156.18 283.956L155.881 283.859H155.782H155.682L155.384 283.762L155.086 283.664L154.787 283.567L154.489 283.47H154.389H154.091H153.992H153.694H153.395C153.097 283.47 152.699 283.373 152.401 283.373H152.301H152.003H151.704H151.605H151.306H151.008H150.909C150.809 283.373 150.71 283.373 150.61 283.373C150.411 283.373 150.113 283.47 149.914 283.47H149.616L149.318 283.567H149.218L148.92 283.664L148.621 283.762H148.522L148.323 283.859H148.223L148.025 283.956H147.925L147.726 284.053H147.627L147.428 284.15H147.328H147.229L147.03 284.248H146.931L146.732 284.345L146.533 284.442L146.334 284.539L146.135 284.636H146.035L145.837 284.733H145.737H145.638L145.439 284.831H145.339L145.14 284.928L144.942 285.025L144.743 285.122C143.668 285.661 143.135 286.038 142.256 286.774C139.969 289.204 138.576 292.508 138.576 296.103C138.079 299.893 139.472 303.197 141.759 305.627ZM16.6469 253.442C46.6818 245.571 65.9759 225.649 113.216 246.542C118.587 248.972 123.46 251.596 128.233 253.636C128.929 253.928 129.626 254.219 130.322 254.511C129.725 250.624 130.421 246.251 132.808 241.586C133.604 240.031 134.698 238.671 135.891 237.408C99.6905 241.392 67.3683 231.868 40.2176 204.075C8.39258 171.618 -2.94517 128.762 0.635137 84.9341C32.0623 82.5047 62.9922 87.1693 90.1429 100.969C93.1265 83.8652 99.1931 67.7335 107.547 52.8652C97.0052 46.9373 85.3692 42.6614 73.1365 39.7461C66.9704 54.3229 63.2905 69.5799 62.9921 84.7398C58.7156 83.6708 54.4393 82.7962 50.0633 82.0188C49.8644 61.2225 54.6381 40.3292 63.0916 20.3103C81.6894 24.5862 99.0936 31.583 114.608 41.3981C124.852 26.0439 137.781 12.2445 152.5 0C167.219 12.2445 180.048 26.141 190.391 41.4953C205.807 31.6802 223.41 24.6834 241.908 20.3103C250.362 40.232 255.136 61.1254 254.937 82.0188C250.561 82.7962 246.185 83.6708 242.008 84.7398C241.709 69.4827 238.129 54.3229 231.864 39.7461C219.631 42.5643 207.895 46.9373 197.353 52.8652C205.707 67.7335 211.675 83.8652 214.758 100.969C241.908 87.1693 272.938 82.4075 304.365 84.9341C307.945 128.762 296.607 171.715 264.782 204.075C237.532 231.771 205.309 241.295 169.009 237.408C170.203 238.574 171.296 240.031 172.092 241.586C174.578 246.348 175.275 250.721 174.578 254.511C175.275 254.219 175.971 253.928 176.667 253.636C181.441 251.596 186.314 248.875 191.684 246.542C239.024 225.746 258.318 245.571 288.254 253.442C261.998 296.492 203.619 297.367 202.525 267.339C202.823 264.326 207.199 262.868 208.989 268.602C215.653 289.981 257.821 276.668 264.782 258.787C264.782 258.787 245.886 243.433 220.227 247.417C202.624 250.138 190.988 258.204 175.473 265.006C170.401 267.241 165.429 268.796 160.456 269.768C157.672 270.351 154.986 270.545 152.301 270.448C149.715 270.545 146.931 270.351 144.146 269.768C139.173 268.796 134.201 267.241 129.228 265.006C113.713 258.204 102.077 250.138 84.474 247.417C58.8151 243.433 39.9192 258.787 39.9192 258.787C46.8809 276.668 89.1483 289.981 95.7122 268.602C97.5024 262.868 101.878 264.423 102.177 267.339C101.282 297.367 42.8031 296.492 16.6469 253.442ZM143.649 258.107L143.748 258.204L143.848 258.301L143.947 258.398L144.047 258.495L144.146 258.592L144.245 258.69L144.345 258.787L144.444 258.884L144.544 258.981L144.643 259.078L144.743 259.176H144.842L144.942 259.273L145.041 259.37L145.14 259.467L145.24 259.564L145.339 259.661L145.439 259.759L145.538 259.856L145.638 259.953L145.737 260.05L145.837 260.147L145.936 260.244L146.035 260.342L146.135 260.439H146.235H146.334L146.433 260.536H146.533L146.732 260.633L146.831 260.73L146.931 260.828L147.03 260.925L147.13 261.022L147.229 261.119L147.328 261.216L147.428 261.313L147.527 261.411H147.627H147.726H147.826H147.925H148.025H148.223H148.323H148.422H148.522H148.621H148.721H148.82H148.92H149.019H149.118H149.218H149.417H149.516H149.715H149.815H149.914H150.014H150.113H150.312H150.411H150.511H150.71H150.809H150.909H151.108H151.207H151.406H151.605H151.804H152.003H152.102H152.301H152.401H152.599H152.699H152.798H152.997H153.097H153.196H153.395H153.494H153.594H153.793H153.892H153.992H154.091H154.191H154.389H154.489H154.589H154.688H154.887H154.986H155.086H155.185H155.285H155.384H155.583H155.682H155.782H155.881H155.981H156.08L156.18 261.313L156.279 261.216L156.379 261.119L156.478 261.022L156.577 260.925L156.677 260.828L156.777 260.73L156.876 260.633H156.975L157.174 260.536H157.274L157.473 260.439H157.572L157.672 260.342L157.87 260.244L157.97 260.147L158.069 260.05L158.169 259.953L158.268 259.856L158.368 259.759L158.467 259.661L158.567 259.564L158.666 259.467L158.765 259.37L158.865 259.273H158.965L159.064 259.176H159.163L159.263 259.078L159.362 258.981L159.462 258.884L159.561 258.787L159.66 258.69L159.76 258.592L159.86 258.495L159.959 258.398L160.058 258.301L160.158 258.204C162.048 256.163 163.241 253.442 163.241 250.527C163.241 247.514 162.048 244.89 160.158 242.849L160.058 242.752L159.959 242.655L159.86 242.558L159.76 242.461L159.66 242.364L159.561 242.266L159.362 242.072L159.263 241.975H159.163L159.064 241.878L158.965 241.781L158.865 241.683L158.765 241.586L158.666 241.489L158.567 241.392L158.467 241.295L158.368 241.197L158.268 241.1L158.169 241.003L158.069 240.906L157.97 240.809L157.87 240.712L157.771 240.614H157.672L157.572 240.517H157.473H157.373L157.274 240.42H157.174H157.075L156.975 240.323H156.876L156.777 240.226L156.478 240.128L156.379 240.031H156.279L156.18 239.934H156.08L155.981 239.837H155.881H155.782H155.682H155.583H155.484H155.384H155.285H155.185L155.086 239.74H154.986H154.887H154.688H154.589H154.389L154.091 239.643H153.992H153.892H153.694H153.594H153.494H153.296H153.196H153.097H152.898H152.798H152.699H152.5H152.401H152.301H152.102H152.003H151.804H151.704H151.506H151.306H151.108H150.909H150.809H150.71H150.61H150.511H150.312H150.213H150.113H149.914H149.815H149.715H149.616H149.516H149.318H149.218H149.019L148.721 239.74H148.621H148.522H148.422H148.323L148.124 239.837H148.025H147.925H147.826H147.726H147.627H147.527H147.428H147.328L147.229 239.934H147.13L147.03 240.031H146.931L146.831 240.128L146.732 240.226L146.632 240.323L146.533 240.42H146.433L146.334 240.517H146.235H146.135L146.035 240.614H145.936H145.837L145.737 240.712H145.638L145.538 240.809L145.439 240.906L145.339 241.003L145.24 241.1L145.14 241.197L145.041 241.295L144.942 241.392L144.842 241.489L144.743 241.586L144.643 241.683L144.544 241.781L144.444 241.878L144.345 241.975L144.245 242.072H144.146L144.047 242.169H143.947L143.848 242.266L143.748 242.364L143.649 242.461L143.549 242.558L143.45 242.655L143.35 242.752L143.251 242.849L143.151 242.947C141.262 244.987 140.068 247.708 140.068 250.624C140.665 253.345 141.759 256.066 143.649 258.107ZM216.249 114.476C216.448 117.489 216.647 120.502 216.747 123.514C217.642 163.843 201.829 194.843 173.385 218.944C205.011 224.58 233.156 217.972 256.428 194.26C281.192 168.994 290.044 135.564 287.259 101.455C262.197 99.4138 237.731 103.301 216.249 114.476ZM103.171 108.451C109.934 112.824 116.399 117.878 122.465 123.611C137.184 137.411 146.931 152.473 152.301 168.799C157.672 152.473 167.418 137.411 182.137 123.611C188.204 117.975 194.668 112.922 201.331 108.549C196.657 75.7022 178.258 47.6175 152.301 25.9467C126.344 47.5204 107.846 75.605 103.171 108.451ZM202.525 123.028C198.944 125.652 195.563 128.47 192.281 131.58C171.495 151.016 163.539 173.755 165.23 199.313C189.298 180.266 202.923 155.583 202.525 123.028ZM102.077 122.931C105.658 125.555 109.138 128.373 112.42 131.483C133.206 150.918 141.162 173.755 139.472 199.313C115.304 180.364 101.58 155.583 102.077 122.931Z" fill="#D3B298"/>
</g>
<defs>
<filter id="filter0_i" x="0" y="0" width="305" height="314" filterUnits="userSpaceOnUse" color-interpolation-filters="sRGB">
<feFlood flood-opacity="0" result="BackgroundImageFix"/>
<feBlend mode="normal" in="SourceGraphic" in2="BackgroundImageFix" result="shape"/>
<feColorMatrix in="SourceAlpha" type="matrix" values="0 0 0 0 0 0 0 0 0 0 0 0 0 0 0 0 0 0 127 0" result="hardAlpha"/>
<feOffset dy="4"/>
<feGaussianBlur stdDeviation="2"/>
<feComposite in2="hardAlpha" operator="arithmetic" k2="-1" k3="1"/>
<feColorMatrix type="matrix" values="0 0 0 0 0 0 0 0 0 0 0 0 0 0 0 0 0 0 0.25 0"/>
<feBlend mode="normal" in2="shape" result="effect1_innerShadow"/>
</filter>
</defs>
</svg>
