<svg width="14" height="18" viewBox="0 0 14 18" fill="none" xmlns="http://www.w3.org/2000/svg">
<path d="M7 0C3.36527 0 0.408203 2.95706 0.408203 6.5918C0.408203 7.94907 0.817879 9.25291 1.59202 10.3611L6.78298 17.8861C6.8322 17.9574 6.91334 18 7 18C7.08666 18 7.1678 17.9574 7.21702 17.8861L12.4071 10.3623C13.1821 9.25291 13.5918 7.94907 13.5918 6.5918C13.5918 2.95706 10.6347 0 7 0ZM11.9739 10.0616L7 17.272L2.02521 10.0603C1.31235 9.0399 0.935547 7.84051 0.935547 6.5918C0.935547 3.24784 3.65604 0.527344 7 0.527344C10.344 0.527344 13.0645 3.24784 13.0645 6.5918C13.0645 7.84051 12.6876 9.0399 11.9739 10.0616Z" fill="#C79C42"/>
<path d="M7 2.10938C5.99432 2.10938 5.04387 2.43499 4.25138 3.05104C4.13642 3.1404 4.11568 3.30606 4.20504 3.42102C4.29441 3.53598 4.46007 3.55672 4.57503 3.46736C5.27411 2.92395 6.11262 2.63672 7 2.63672C9.18085 2.63672 10.9551 4.41095 10.9551 6.5918C10.9551 8.77264 9.18085 10.5469 7 10.5469C4.81915 10.5469 3.04492 8.77264 3.04492 6.5918C3.04492 5.70445 3.33215 4.86591 3.87556 4.16679C3.96493 4.05179 3.94418 3.88617 3.82922 3.7968C3.71423 3.70744 3.54864 3.72821 3.45924 3.84314C2.8432 4.63567 2.51758 5.58615 2.51758 6.5918C2.51758 9.06342 4.52837 11.0742 7 11.0742C9.47163 11.0742 11.4824 9.06342 11.4824 6.5918C11.4824 4.12017 9.47163 2.10938 7 2.10938Z" fill="#C79C42"/>
<path fill-rule="evenodd" clip-rule="evenodd" d="M11.9739 10.0616L7 17.272L2.02521 10.0603C1.31235 9.0399 0.935547 7.84051 0.935547 6.5918C0.935547 3.24784 3.65604 0.527344 7 0.527344C10.344 0.527344 13.0645 3.24784 13.0645 6.5918C13.0645 7.84051 12.6876 9.0399 11.9739 10.0616ZM4.25138 3.05104C5.04387 2.43499 5.99432 2.10938 7 2.10938C9.47163 2.10938 11.4824 4.12017 11.4824 6.5918C11.4824 9.06342 9.47163 11.0742 7 11.0742C4.52837 11.0742 2.51758 9.06342 2.51758 6.5918C2.51758 5.58615 2.8432 4.63567 3.45924 3.84314C3.54864 3.72821 3.71423 3.70744 3.82922 3.7968C3.94418 3.88617 3.96493 4.05179 3.87556 4.16679L4.57503 3.46736C4.46007 3.55672 4.29441 3.53598 4.20504 3.42102C4.11568 3.30606 4.13642 3.1404 4.25138 3.05104Z" fill="#C79C42"/>
</svg>
